<svg width="32" height="33" viewBox="0 0 32 33" fill="none" xmlns="http://www.w3.org/2000/svg">
<g clip-path="url(#clip0_45_433)">
<path d="M19.5939 2.16831L30.5064 13.0808C32.4939 15.0683 32.4939 18.2871 30.5064 20.2746L19.5939 31.1933C17.6064 33.1808 14.3877 33.1808 12.4002 31.1933L1.4877 20.2746C-0.499805 18.2871 -0.499805 15.0683 1.4877 13.0808L12.4064 2.16831C14.3877 0.187061 17.6127 0.187061 19.5939 2.16831Z" fill="#F15D22"/>
<path d="M17.0312 18.9684H14.9687C14.5437 18.9684 14.1937 18.6372 14.1749 18.2122L13.7249 9.08091C13.6999 8.64341 14.0374 8.26841 14.4812 8.24341H14.5249H17.4812C17.9187 8.24341 18.2749 8.59966 18.2749 9.03716V9.07466L17.8249 18.2059C17.8062 18.6309 17.4562 18.9684 17.0312 18.9684Z" fill="white"/>
<path d="M16 25.1184C17.2772 25.1184 18.3125 24.0831 18.3125 22.8059C18.3125 21.5287 17.2772 20.4934 16 20.4934C14.7228 20.4934 13.6875 21.5287 13.6875 22.8059C13.6875 24.0831 14.7228 25.1184 16 25.1184Z" fill="white"/>
</g>
<defs>
<clipPath id="clip0_45_433">
<rect width="32" height="32" fill="white" transform="translate(0 0.680908)"/>
</clipPath>
</defs>
</svg>
