<svg width="676" height="382" viewBox="0 0 676 382" fill="none" xmlns="http://www.w3.org/2000/svg">
<path d="M10.3485 380.759C10.3485 380.759 -23.9436 285.852 32.3205 188.316C86.0898 95.1089 177.014 85.4551 177.014 85.4551C177.014 85.4551 297.732 -87.5571 426.009 -18.883C540.589 42.4594 520.079 194.923 603.659 253.615C687.239 312.307 675.426 385.416 675.426 385.416L10.3485 380.759Z" fill="url(#paint0_linear_106_795)"/>
<g style="mix-blend-mode:screen" opacity="0.47">
<path d="M539.865 273.101C470.133 218.384 464.548 42.7861 362.476 42.7861C260.405 42.7861 246.091 214.906 200.333 189.767C154.579 164.628 120.606 141.754 54.4201 221.172C-8.03549 296.116 12.4881 380.893 12.4881 380.893L668.592 383.564C637.871 287.271 609.593 327.818 539.861 273.104L539.865 273.101Z" fill="#F3FFFF"/>
</g>
<defs>
<linearGradient id="paint0_linear_106_795" x1="328.65" y1="16.1586" x2="339.349" y2="388.776" gradientUnits="userSpaceOnUse">
<stop stop-color="#8BF9FD"/>
<stop offset="0.99" stop-color="#FAFEE5"/>
</linearGradient>
</defs>
</svg>
