<svg width="469" height="280" viewBox="0 0 469 280" fill="none" xmlns="http://www.w3.org/2000/svg">
<path d="M307.529 0H300.608V195.772H307.529V0Z" fill="#352E73"/>
<path d="M307.529 195.773H309.881V0.000579834H307.529V195.773Z" fill="#2D2861"/>
<path d="M241.135 8.08789H372.836C378.688 8.08789 383.442 12.838 383.442 18.6936V63.9233C383.442 69.7752 378.692 74.5254 372.84 74.5254H241.139C235.287 74.5254 230.537 69.7752 230.537 63.9233V18.6936C230.537 12.8417 235.287 8.08789 241.142 8.08789H241.135Z" fill="#115E5E"/>
<path d="M239.849 6.92432H371.55C377.402 6.92432 382.152 11.6745 382.152 17.5264V62.7561C382.152 68.608 377.402 73.3582 371.55 73.3582H239.849C233.997 73.3582 229.247 68.608 229.247 62.7561V17.5264C229.247 11.6745 233.997 6.92432 239.849 6.92432Z" fill="#158484"/>
<path d="M364.032 43.6966L362.584 29.793H371.274L369.826 43.6966H364.032ZM366.929 52.6438C365.685 52.6438 364.665 52.2683 363.871 51.5173C363.077 50.7449 362.681 49.833 362.681 48.7817C362.681 47.7089 363.077 46.8077 363.871 46.0782C364.665 45.3487 365.685 44.9839 366.929 44.9839C368.195 44.9839 369.214 45.3487 369.987 46.0782C370.781 46.8077 371.178 47.7089 371.178 48.7817C371.178 49.833 370.781 50.7449 369.987 51.5173C369.214 52.2683 368.195 52.6438 366.929 52.6438Z" fill="white"/>
<path d="M353.583 52.3216V49.1998L353.068 48.363V42.4411C353.068 41.5828 352.799 40.9284 352.263 40.4778C351.748 40.0273 350.9 39.802 349.72 39.802C348.926 39.802 348.122 39.9307 347.306 40.1882C346.491 40.4242 345.794 40.7568 345.214 41.1859L342.897 36.3904C343.927 35.7468 345.161 35.2533 346.598 34.91C348.036 34.5667 349.441 34.395 350.815 34.395C353.84 34.395 356.179 35.0709 357.831 36.4226C359.505 37.7744 360.342 39.92 360.342 42.8595V52.3216H353.583ZM348.594 52.6435C347.156 52.6435 345.955 52.3967 344.989 51.9032C344.023 51.4097 343.294 50.7553 342.8 49.94C342.307 49.1032 342.06 48.1806 342.06 47.1722C342.06 46.035 342.35 45.0695 342.929 44.2756C343.508 43.4817 344.388 42.8809 345.568 42.4733C346.77 42.0656 348.283 41.8618 350.106 41.8618H353.776V45.3698H351.265C350.493 45.3698 349.924 45.4986 349.559 45.7561C349.216 45.9921 349.044 46.3568 349.044 46.8503C349.044 47.258 349.195 47.6013 349.495 47.8802C349.817 48.1377 350.246 48.2664 350.782 48.2664C351.276 48.2664 351.727 48.1377 352.134 47.8802C352.563 47.6013 352.874 47.1722 353.068 46.5928L354.001 48.7492C353.722 50.058 353.132 51.0343 352.231 51.6779C351.33 52.3216 350.117 52.6435 348.594 52.6435Z" fill="white"/>
<path d="M327.833 52.3196L320.752 34.7148H328.219L333.594 49.0046H329.828L335.557 34.7148H342.445L335.364 52.3196H327.833Z" fill="white"/>
<path d="M307.874 52.6425C306.351 52.6425 304.934 52.2777 303.625 51.5482C302.338 50.7973 301.308 49.7459 300.536 48.3942C299.763 47.021 299.377 45.3903 299.377 43.5022C299.377 41.614 299.763 39.9941 300.536 38.6423C301.308 37.2691 302.338 36.2178 303.625 35.4883C304.934 34.7588 306.351 34.394 307.874 34.394C309.419 34.394 310.685 34.7266 311.672 35.3917C312.659 36.0354 313.388 37.0331 313.861 38.3849C314.333 39.7152 314.569 41.4209 314.569 43.5022C314.569 45.6049 314.343 47.3321 313.893 48.6838C313.464 50.0356 312.756 51.0333 311.768 51.677C310.803 52.3206 309.505 52.6425 307.874 52.6425ZM309.612 46.9781C310.148 46.9781 310.631 46.8493 311.06 46.5918C311.49 46.3344 311.833 45.9482 312.09 45.4332C312.348 44.8968 312.477 44.2531 312.477 43.5022C312.477 42.7297 312.348 42.0968 312.09 41.6033C311.833 41.0883 311.49 40.7021 311.06 40.4447C310.631 40.1872 310.148 40.0584 309.612 40.0584C309.076 40.0584 308.593 40.1872 308.164 40.4447C307.735 40.7021 307.391 41.0883 307.134 41.6033C306.876 42.0968 306.747 42.7297 306.747 43.5022C306.747 44.2531 306.876 44.8968 307.134 45.4332C307.391 45.9482 307.735 46.3344 308.164 46.5918C308.593 46.8493 309.076 46.9781 309.612 46.9781ZM312.702 52.3206V49.939L312.67 43.5022L312.348 37.0653V28.4399H319.622V52.3206H312.702Z" fill="white"/>
<path d="M289.934 52.3216V49.1998L289.419 48.363V42.4411C289.419 41.5828 289.151 40.9284 288.615 40.4778C288.1 40.0273 287.252 39.802 286.072 39.802C285.278 39.802 284.473 39.9307 283.658 40.1882C282.843 40.4242 282.145 40.7568 281.566 41.1859L279.248 36.3904C280.278 35.7468 281.512 35.2533 282.95 34.91C284.387 34.5667 285.793 34.395 287.166 34.395C290.192 34.395 292.53 35.0709 294.183 36.4226C295.856 37.7744 296.693 39.92 296.693 42.8595V52.3216H289.934ZM284.945 52.6435C283.508 52.6435 282.306 52.3967 281.341 51.9032C280.375 51.4097 279.645 50.7553 279.152 49.94C278.658 49.1032 278.412 48.1806 278.412 47.1722C278.412 46.035 278.701 45.0695 279.281 44.2756C279.86 43.4817 280.74 42.8809 281.92 42.4733C283.121 42.0656 284.634 41.8618 286.458 41.8618H290.127V45.3698H287.617C286.844 45.3698 286.276 45.4986 285.911 45.7561C285.568 45.9921 285.396 46.3568 285.396 46.8503C285.396 47.258 285.546 47.6013 285.847 47.8802C286.168 48.1377 286.598 48.2664 287.134 48.2664C287.627 48.2664 288.078 48.1377 288.486 47.8802C288.915 47.6013 289.226 47.1722 289.419 46.5928L290.353 48.7492C290.074 50.058 289.484 51.0343 288.582 51.6779C287.681 52.3216 286.469 52.6435 284.945 52.6435Z" fill="white"/>
<path d="M268.783 52.3206V28.4399H276.057V52.3206H268.783Z" fill="white"/>
<path d="M254.303 38.1609H264.345V43.6322H254.303V38.1609ZM254.818 46.5931H266.083V52.3219H247.351V29.793H265.665V35.5218H254.818V46.5931Z" fill="white"/>
<path d="M252.008 152.424H176.012C169.975 152.424 165.082 157.318 165.082 163.355V267.241C165.082 273.278 169.975 278.172 176.012 278.172H252.008C258.045 278.172 262.939 273.278 262.939 267.241V163.355C262.939 157.318 258.045 152.424 252.008 152.424Z" fill="#DEB864"/>
<path d="M219.335 173.487H210.608V174.849H219.335V173.487Z" fill="#6C787A"/>
<path d="M212.133 172.968H213.307V162.395H213.773L212.667 159.938L211.565 162.395H212.133V172.968Z" fill="#6C787A"/>
<path d="M216.477 172.968H217.655V162.395H218.117L217.016 159.938L215.91 162.395H216.477V172.968Z" fill="#6C787A"/>
<path d="M220.517 159.285V165.368C220.517 166.885 221.748 168.117 223.266 168.117C224.783 168.117 226.015 166.885 226.015 165.368V159.285H220.517Z" fill="#6C787A"/>
<path d="M223.562 168.593H222.916V174.517H220.806V174.788H225.65V174.517H223.562V168.593Z" fill="#6C787A"/>
<path d="M258.206 152.424H229.253V278.171H258.206C260.821 278.171 262.942 275.094 262.942 271.294V159.298C262.942 155.498 260.821 152.42 258.206 152.42V152.424Z" fill="#D38743"/>
<path d="M464.968 127.814H338.596V268.004H464.968V127.814Z" fill="#DEB864"/>
<path d="M283.113 151.363H388.928C396.167 151.363 402.045 157.24 402.045 164.479V265.053C402.045 272.292 396.167 278.173 388.925 278.173H283.113C275.874 278.173 269.993 272.296 269.993 265.053V164.479C269.993 157.24 275.87 151.359 283.113 151.359V151.363Z" fill="#DEB864"/>
<path d="M396.163 151.363H351.909V278.173H396.163C399.41 278.173 402.044 274.478 402.044 269.919V159.614C402.044 155.055 399.41 151.359 396.163 151.359V151.363Z" fill="#D38743"/>
<path d="M254.807 194.071H376.556C380.646 194.071 383.969 197.391 383.969 201.483V270.764C383.969 274.853 380.649 278.176 376.556 278.176H254.807C250.718 278.176 247.395 274.856 247.395 270.764V201.483C247.395 197.394 250.715 194.074 254.804 194.074L254.807 194.071Z" fill="#8CD334"/>
<path opacity="0.38" d="M380.292 194.175C384.132 195.031 387.224 197.871 388.398 201.624L396.573 227.766L459.582 229.428L468.79 278.172H379.591L380.296 194.175H380.292Z" fill="#D38743"/>
<path d="M379.306 194.071H337.595V278.176H379.306C381.882 278.176 383.969 276.088 383.969 273.513V198.734C383.969 196.159 381.882 194.071 379.306 194.071Z" fill="#2BA14C"/>
<path d="M404.285 230.569C404.285 232.18 402.981 233.485 401.37 233.485C399.759 233.485 398.455 232.18 398.455 230.569C398.455 228.958 399.759 227.654 401.37 227.654C402.981 227.654 404.285 228.958 404.285 230.569Z" fill="#7271B3"/>
<path d="M410.791 213.287C410.047 211.438 408.389 210.596 406.239 210.99C398.964 212.305 400.351 228.224 400.532 230.034L400.673 231.425L401.836 230.652C409.035 225.873 412.503 217.543 410.791 213.287ZM402.093 228.401C401.782 223.221 402.121 213.443 406.539 212.644C406.792 212.598 407.031 212.576 407.251 212.576C408.219 212.576 408.869 213.02 409.23 213.916C410.397 216.813 408.089 223.785 402.093 228.401Z" fill="#7271B3"/>
<path d="M400.668 228.543C399.664 227.279 390.709 216.312 385.233 219.989C383.593 221.091 383.047 222.684 383.73 224.356C385.02 227.506 390.351 230.234 396.456 230.234C397.67 230.234 398.916 230.125 400.162 229.89L401.535 229.634L400.668 228.54V228.543ZM385.287 223.721C384.911 222.803 385.2 222.041 386.168 221.387C386.645 221.066 387.187 220.921 387.776 220.921C391.095 220.921 395.842 225.509 398.399 228.449C391.901 229.125 386.309 226.213 385.287 223.721Z" fill="#7271B3"/>
<path d="M364.895 231.538H443.123C448.795 231.538 453.397 236.14 453.397 241.812V267.9C453.397 273.571 448.795 278.173 443.123 278.173H364.895C359.224 278.173 354.622 273.571 354.622 267.9V241.808C354.622 236.137 359.224 231.535 364.895 231.535V231.538Z" fill="#FEE2BF"/>
<path d="M446.936 231.538H416.065V278.172H446.936C450.505 278.172 453.398 275.279 453.398 271.71V238C453.398 234.431 450.505 231.538 446.936 231.538Z" fill="#DEB864"/>
<path d="M388.297 231.538H385.862C372.688 246.421 380.758 272.491 382.744 278.173H384.645C383.283 274.344 373.869 245.987 388.185 231.672C388.228 231.629 388.264 231.582 388.297 231.535V231.538Z" fill="#7271B3"/>
<path d="M433.855 277.995C433.845 278.053 433.837 278.115 433.837 278.172H435.644C440.961 251.604 435.094 237.545 431.132 231.538H428.899C432.501 236.562 439.415 250.408 433.855 277.999V277.995Z" fill="#7271B3"/>
<path d="M271.579 204.842H254.298V214.765H271.579V204.842Z" fill="#7271B3"/>
<path d="M270.983 205.489H254.894V214.119H270.983V205.489Z" fill="#F3FFFF"/>
<path d="M269.904 207.454H255.603C255.418 207.454 255.267 207.302 255.267 207.118C255.267 206.934 255.418 206.782 255.603 206.782H269.904C270.088 206.782 270.24 206.934 270.24 207.118C270.24 207.302 270.088 207.454 269.904 207.454Z" fill="#7271B3"/>
<path d="M265.883 209.207H255.603C255.418 209.207 255.267 209.055 255.267 208.871C255.267 208.686 255.418 208.535 255.603 208.535H265.883C266.067 208.535 266.219 208.686 266.219 208.871C266.219 209.055 266.067 209.207 265.883 209.207Z" fill="#7271B3"/>
<path d="M346.232 158.193H328.951V168.116H346.232V158.193Z" fill="#7271B3"/>
<path d="M345.635 158.84H329.546V167.474H345.635V158.84Z" fill="#F3FFFF"/>
<path d="M344.559 160.804H330.258C330.074 160.804 329.922 160.653 329.922 160.468C329.922 160.284 330.074 160.132 330.258 160.132H344.559C344.744 160.132 344.895 160.284 344.895 160.468C344.895 160.653 344.744 160.804 344.559 160.804Z" fill="#7271B3"/>
<path d="M340.535 162.553H330.254C330.07 162.553 329.918 162.402 329.918 162.217C329.918 162.033 330.07 161.881 330.254 161.881H340.535C340.719 161.881 340.871 162.033 340.871 162.217C340.871 162.402 340.719 162.553 340.535 162.553Z" fill="#7271B3"/>
<path d="M129.421 110.641C129.421 110.641 146.872 135.87 159.067 139.478C172.657 143.499 205.987 137.13 205.987 137.13L216.767 141.985C216.767 141.985 179.506 167.065 161.798 167.065C144.091 167.065 113.007 149.329 113.007 149.329L129.421 110.638V110.641Z" fill="#D04A14"/>
<path d="M191.773 140.775C191.773 142.787 192.933 144.42 194.364 144.42C195.794 144.42 196.954 142.787 196.954 140.775C196.954 138.763 195.794 137.13 194.364 137.13C192.933 137.13 191.773 138.763 191.773 140.775Z" fill="#7271B3"/>
<path d="M183.768 126.582C181.865 126.976 180.795 128.251 180.828 130.068C180.904 134.247 186.654 140.121 194.24 141.729L195.465 141.989L195.096 140.768C194.616 139.175 190.209 125.235 183.768 126.586V126.582ZM193.243 139.908C186.705 138.029 182.378 132.914 182.327 130.068C182.312 129.187 182.692 128.591 183.486 128.265C183.667 128.19 183.873 128.128 184.097 128.081C188.009 127.261 191.694 135.418 193.243 139.908Z" fill="#7271B3"/>
<path d="M193.904 140.212L195.154 140.045C196.292 139.89 197.364 139.597 198.365 139.186C203.382 137.119 206.467 132.16 206.027 128.085C205.792 125.918 204.585 124.263 202.714 123.544C196.461 121.146 194.319 136.856 194.099 138.658L193.907 140.215L193.904 140.212ZM195.916 137.781C196.62 133.514 198.336 126.6 201.063 125.477C201.547 125.278 202.06 125.26 202.606 125.473C203.715 125.9 204.314 126.683 204.444 127.872C204.791 131.101 201.58 136.361 195.916 137.781Z" fill="#7271B3"/>
<path d="M225.094 200.303H158.945C152.967 200.303 148.112 195.448 148.112 189.469V152.819C148.112 146.84 152.967 141.989 158.942 141.989H225.09C231.068 141.989 235.923 146.844 235.923 152.822V189.473C235.923 195.451 231.068 200.306 225.09 200.306L225.094 200.303Z" fill="#8CD334"/>
<path d="M153.858 141.986H181.304V200.299H153.858C150.686 200.299 148.111 196.68 148.111 192.219V150.067C148.111 145.602 150.683 141.986 153.858 141.986Z" fill="#2BA14C"/>
<path d="M205.987 141.986H208.155C219.869 160.596 212.692 193.194 210.925 200.299H209.235C210.445 195.509 218.815 160.055 206.088 142.156C206.049 142.101 206.016 142.044 205.987 141.986Z" fill="#7271B3"/>
<path d="M165.486 200.082C165.497 200.154 165.501 200.23 165.501 200.302H163.897C159.172 167.08 164.384 149.502 167.906 141.989H169.893C166.689 148.271 160.545 165.584 165.486 200.082Z" fill="#7271B3"/>
<path d="M27.3128 241.699C23.957 239.192 21.0851 237.256 20.1134 237.169C17.285 236.916 11.6823 247.215 12.9936 250.795C12.9936 250.795 19.6872 253.247 25.5319 256.986C27.2044 252.128 27.5801 246.886 27.3128 241.699Z" fill="#FFBA94"/>
<path d="M18.1216 251.814C19.4762 253.215 19.8772 255.285 19.1475 257.091C18.2914 259.215 16.7201 262.376 13.8519 266.671C7.90247 275.583 1.2269 280.062 0.59475 275.026C-0.037403 269.994 2.40811 229.414 7.2197 230.183C12.0277 230.953 21.77 236.017 22.1999 238.004C22.6298 239.994 15.0909 240.977 14.4805 244.78C14.1048 247.121 16.3444 249.968 18.1216 251.81V251.814Z" fill="#F15D22"/>
<path d="M0.595331 275.026C0.898765 277.454 2.61099 277.671 4.96983 276.24C1.63567 261.878 8.02948 240.243 11.0602 231.274C9.63696 230.747 8.30036 230.357 7.21667 230.183C2.40869 229.414 -0.0404376 269.994 0.591716 275.026H0.595331Z" fill="#ADEFF7"/>
<path d="M48.1809 186.846C48.1809 186.846 72.2244 235.037 67.0516 240.21C61.8788 245.383 22.2192 237.161 22.2192 237.161C22.2192 237.161 15.6773 247.074 21.1969 257.051C23.0464 260.396 63.8077 268.82 75.7789 264.763C87.75 260.706 97.0842 256.849 96.0692 241.225C95.0541 225.602 86.3304 193.543 86.3304 193.543L48.1844 186.846H48.1809Z" fill="#2D2861"/>
<path d="M75.2866 250.375C75.7453 252.037 79.6936 258.387 82.3739 260.056C90.6533 255.953 96.0212 247.984 95.2229 233.773C95.1001 231.584 94.3848 228.658 94.1861 227.571C84.162 237.44 74.4629 247.395 75.2829 250.375H75.2866Z" fill="#261D62"/>
<path d="M90.3294 209.43C88.2126 200.457 86.3305 193.543 86.3305 193.543L48.1846 186.846C48.1846 186.846 51.367 193.221 55.1636 201.58C65.9282 207.403 75.5587 206.858 90.3294 209.426V209.43Z" fill="#2D2861"/>
<path d="M91.7915 239.784C91.7915 239.784 77.5879 260.075 77.5879 262.917C77.5879 265.76 88.3417 270.424 91.7915 268.802C91.7915 268.802 96.2563 252.164 103.358 247.496C110.46 242.829 91.7915 239.788 91.7915 239.788V239.784Z" fill="#FFBA94"/>
<path d="M51.226 145.442C51.226 145.442 43.3114 154.368 41.8918 172.021C40.4722 189.675 57.8438 197.25 70.83 199.28C83.8162 201.31 107.025 202.661 107.025 210.373C107.025 218.085 76.3856 245.68 77.8053 250.145C79.2249 254.609 95.6609 261.303 100.328 256.636C104.995 251.969 146.338 203.979 146.338 192.821C146.338 181.662 86.3267 164.923 86.3267 164.923L51.2224 145.446L51.226 145.442Z" fill="#352E73"/>
<path d="M87.9516 256.846C98.5609 244.347 133.149 202.325 126.629 195.805C119.245 188.422 61.6721 186.29 54.4764 174.568C49.6323 166.679 54.0609 155.34 57.4059 148.867L56.6438 148.444C53.194 155.04 48.6389 166.661 53.7648 175.006C61.2242 187.154 118.927 189.285 126.04 196.394C131.494 201.849 101.415 239.713 87.1099 256.546C87.3916 256.647 87.6734 256.748 87.9588 256.842L87.9516 256.846Z" fill="#2D2861"/>
<path d="M92.3506 263.597C93.6294 262.123 95.6523 261.541 97.5162 262.109C99.7053 262.773 102.996 264.059 107.526 266.534C116.929 271.667 121.982 277.923 117.023 278.996C112.067 280.073 71.4282 281.229 71.7677 276.37C72.1073 271.511 76.2868 261.361 78.2302 260.754C80.1736 260.147 81.8208 267.574 85.6643 267.841C88.0303 268.007 90.6673 265.526 92.3434 263.59L92.3506 263.597Z" fill="#F15D22"/>
<path d="M111.49 69.031C111.49 69.031 128.753 76.7902 135.497 87.4862C142.241 98.1822 133.572 111.754 129.555 115.771L129.122 99.3165L109.308 87.4826L111.49 69.0273V69.031Z" fill="#DEB864"/>
<path d="M132.83 107.425C127.842 95.4651 112.688 91.6144 102.628 99.789C98.2571 103.34 92.4051 107.299 84.7037 111.15C61.9787 122.514 44.123 140.774 44.123 140.774C44.123 140.774 49.7221 170.605 88.027 165.789C88.027 165.789 130.952 131.801 133.152 119.826C133.976 115.344 135.204 113.122 132.83 107.425Z" fill="#8CD334"/>
<path d="M125.235 94.8335L135.497 110.059C135.497 110.059 85.3369 145.117 72.0834 164.732C69.6884 168.275 65.1911 169.735 61.1706 168.279C53.2705 165.418 41.7184 160.007 37.3077 151.735C30.3288 138.651 46.5191 115.25 77.2165 99.3236C107.917 83.3934 108.77 82.223 125.238 94.8371L125.235 94.8335Z" fill="#F15D22"/>
<g style="mix-blend-mode:multiply" opacity="0.39">
<path d="M121.396 101.031C130.181 101.978 119.857 93.5104 109.811 86.3436C104.992 85.8199 99.6459 87.8825 90.2358 92.6038C96.5827 95.0168 110.288 99.8392 121.396 101.035V101.031Z" fill="#247894"/>
</g>
<path d="M140.28 82.7947L129.747 105.971L114.376 89.3041L129.992 74.8477L140.28 82.7947Z" fill="#FF916C"/>
<g style="mix-blend-mode:multiply" opacity="0.68">
<path d="M126.43 78.2171L129.996 74.8433L140.283 82.7939L134.486 95.5526C133.113 94.6531 131.928 93.6453 131.09 92.5797C128.644 89.4622 126.961 83.8523 126.434 78.2208L126.43 78.2171Z" fill="#FF682B"/>
</g>
<path d="M148.592 52.667C148.592 52.667 149.246 52.6128 151.142 58.2155C152.493 62.2107 152.706 66.5418 153.02 70.7141C153.49 76.9272 153.443 83.5161 149.928 88.9128C148.082 91.7485 135.335 88.6817 131.152 84.43C126.965 80.1783 124.992 70.1289 127.207 64.1036C129.421 58.0782 146.724 50.7705 148.592 52.667Z" fill="#FF916C"/>
<path d="M131.047 79.8684C129.764 81.2627 128.334 81.3096 124.407 80.1573C119.357 78.6763 115.564 73.3084 116.478 65.9574C119.271 43.478 141.049 44.6014 146.865 44.1932C149.047 44.0379 150.369 45.1469 151.171 46.5882C152.46 48.9109 154.664 50.5473 157.294 50.9266C158.442 51.0928 161.365 51.9344 161.628 53.8489C162.383 59.3288 160.888 64.3101 152.395 61.6479C133.153 55.6153 133.521 77.1808 131.047 79.8684Z" fill="#2D2861"/>
<path d="M136.664 69.9525C136.664 69.9525 137.972 64.4546 134.851 64.4835C131.73 64.516 128.836 69.9453 131.047 71.9754C133.258 74.0055 136.664 69.9489 136.664 69.9489V69.9525Z" fill="#FF916C"/>
<path d="M70.8296 166.217C76.4467 153.321 126.192 104.739 126.192 104.739C126.192 98.8803 91.026 96.8141 93.3234 80.1216C94.902 68.6381 111.49 69.0319 111.49 69.0319C111.49 69.0319 109.709 77.4738 117.688 85.4534C125.672 93.4366 138.549 105.505 136.649 110.057C132.329 120.402 70.8296 166.217 70.8296 166.217Z" fill="#FEE2BF"/>
<g style="mix-blend-mode:multiply" opacity="0.39">
<path d="M113.216 104.319C113.093 104.55 105.854 97.7442 100.768 124.706C100.23 127.553 99.7025 130.537 99.2546 133.365C98.9981 134.98 98.738 136.728 98.5213 138.35C97.6652 144.715 97.0619 151.672 97.4051 158.084C110.167 147.33 131.617 128.196 133.156 119.823C133.553 117.67 123.067 102.881 113.22 104.319H113.216Z" fill="#247894"/>
</g>
<path d="M117.023 279C119.414 278.48 119.475 276.757 117.843 274.535C103.834 279.13 81.716 274.676 72.5155 272.451C71.9412 273.961 71.8436 275.28 71.7677 276.378C71.4282 281.236 112.063 280.08 117.023 279.004V279Z" fill="#ADEFF7"/>
<path d="M212.125 199.279C211.529 198.683 208.997 198.481 207.646 199.279C206.436 199.994 200.671 201.533 202.498 197.939C203.149 196.66 208.184 199.2 208.184 197.17C208.184 195.14 197.727 192.922 189.613 191.097C181.496 189.27 141.017 165.226 137.668 161.877C134.32 158.529 133.204 151.73 133.204 151.73L111.494 160.454C111.494 160.454 114.741 173.643 116.565 175.471C118.393 177.298 179.195 198.257 183.931 201.241C188.291 203.986 190.509 206.432 192.388 207.197C195.314 208.386 202.506 209.852 206.461 208.137C208.867 207.439 211.54 204.322 212.132 202.649C212.721 200.973 212.132 199.283 212.132 199.283L212.125 199.279Z" fill="#FF916C"/>
<path d="M109.723 100.215C107.476 100.797 101.007 102.578 102.889 128.742C104.771 154.906 108.748 174.582 122.565 182.117C136.378 189.652 177.403 199.279 177.403 199.279C177.403 199.279 183.891 189.576 182.009 185.007C182.009 185.007 148.519 171.396 144.542 160.848C140.565 150.3 142.324 91.7733 109.723 100.215Z" fill="#F15D22"/>
<path d="M221.065 143.202C220.671 141.273 219.757 137.823 218.125 136.714C217.492 136.285 216.723 136.111 215.972 135.978C212.894 135.436 206.898 136.48 204.022 137.679C202.353 138.372 199.463 140.478 199.463 142.212C199.463 142.212 204.669 146.063 206.413 145.807C207.793 145.604 207.194 143.329 206.887 142.397C206.923 142.512 208.733 142.866 208.996 142.971C209.889 143.321 210.43 144.037 211.077 144.705C213.346 147.053 216.177 149.379 219.497 147.414C221.39 146.294 221.437 144.997 221.072 143.202H221.065Z" fill="#FF916C"/>
</svg>
