<svg width="468" height="382" viewBox="0 0 468 382" fill="none" xmlns="http://www.w3.org/2000/svg">
<g clip-path="url(#clip0_116_651)">
<path fill-rule="evenodd" clip-rule="evenodd" d="M201.646 161.462V219.074H114.535V161.462H201.646Z" fill="#BD9756"/>
<path fill-rule="evenodd" clip-rule="evenodd" d="M144.123 161.462V219.074H75.1924V161.462H144.123Z" fill="#DAB981"/>
<path fill-rule="evenodd" clip-rule="evenodd" d="M116.525 161.462V175.691L114.979 174.933L113.18 175.691L111.603 174.933L109.658 175.691L108.006 174.933L106.318 175.691L104.603 174.933L102.791 175.691V161.462H116.525Z" fill="#C99C50"/>
<path fill-rule="evenodd" clip-rule="evenodd" d="M144.18 162.003C144.126 162.064 144.137 162.166 144.084 162.228C143.733 162.629 136.076 171.062 135.379 171.829C135.367 171.842 135.296 171.919 135.18 171.922C134.054 171.941 117.911 172.155 109.083 172.158C98.5964 172.161 85.6211 171.965 83.581 171.934C83.4491 171.932 83.375 171.839 83.3628 171.824C79.7473 167.311 75.131 161.517 75.1302 161.514C75.1175 161.478 75.1537 161.436 75.141 161.4C75.193 161.46 75.2948 161.459 75.3466 161.519C77.0106 163.432 78.6371 165.378 80.2801 167.309C81.4269 168.657 82.1352 170.562 83.7163 171.358C83.725 171.362 92.4289 171.209 104.109 171.143C104.938 171.138 109.372 171.113 114.472 171.149C125.051 171.223 135.061 171.371 135.062 171.37C137.31 169.533 139.084 167.182 141.097 165.089C142.052 164.096 142.99 163.087 143.964 162.112C144.021 162.055 144.123 162.06 144.18 162.003Z" fill="#C99C50"/>
<path fill-rule="evenodd" clip-rule="evenodd" d="M144.18 218.533C144.123 218.476 144.021 218.481 143.964 218.424C142.99 217.449 142.051 216.44 141.096 215.447C139.084 213.354 137.309 211.003 135.061 209.166C135.06 209.165 125.051 209.313 114.471 209.387C109.372 209.423 104.938 209.398 104.109 209.393C92.4286 209.327 83.7246 209.174 83.7159 209.178C82.1348 209.974 81.4268 211.878 80.2797 213.227C80.2437 213.269 75.2544 219.125 75.2544 219.125C75.2213 219.144 75.1737 219.117 75.1406 219.136C75.19 219.073 75.1705 218.972 75.2199 218.909C75.5054 218.544 83.3393 208.73 83.3905 208.681C83.4716 208.604 83.5644 208.602 83.5808 208.602C85.6211 208.571 98.5962 208.375 109.083 208.378C117.911 208.381 134.054 208.595 135.18 208.614C135.296 208.616 135.367 208.694 135.378 208.707C136.075 209.474 143.733 217.907 144.083 218.308C144.137 218.37 144.126 218.471 144.18 218.533Z" fill="#C99C50"/>
<path fill-rule="evenodd" clip-rule="evenodd" d="M144.123 215.823C144.12 215.757 144.043 215.71 144.04 215.645C144.038 215.604 143.904 209.841 143.826 206.082C143.588 194.644 143.607 189.825 143.613 188.411C143.615 187.717 143.627 184.711 143.709 179.734C143.796 174.433 144.038 164.664 144.042 164.654C144.094 164.546 144.152 164.546 144.204 164.654C144.209 164.664 144.451 174.432 144.538 179.734C144.554 180.693 144.657 186.994 144.632 191.73C144.612 195.561 144.515 201.097 144.5 201.912C144.418 206.546 144.214 215.489 144.206 215.645C144.203 215.71 144.126 215.758 144.123 215.823Z" fill="#AF863F"/>
<path fill-rule="evenodd" clip-rule="evenodd" d="M201.133 218.56C201.134 217.931 201.125 210.008 201.232 196.393C201.318 185.383 201.561 164.67 201.566 164.655C201.577 164.618 201.636 164.61 201.647 164.574C201.648 164.671 201.728 164.757 201.73 164.854C201.742 165.513 201.977 185.934 202.061 196.938C202.16 209.796 202.16 217.864 202.16 218.999C202.161 219.012 202.161 219.117 202.153 219.163C202.149 219.184 202.128 219.298 202.04 219.404C202.017 219.43 201.886 219.586 201.647 219.586C195.072 219.597 179.272 219.467 177.327 219.451C167.402 219.369 148.248 219.165 147.924 219.157C147.824 219.155 147.737 219.076 147.638 219.074C147.736 219.071 147.823 218.993 147.921 218.99C148.233 218.983 167.214 218.778 176.842 218.697L194.271 218.578C196.559 218.568 198.846 218.57 201.133 218.56Z" fill="#AF863F"/>
<path fill-rule="evenodd" clip-rule="evenodd" d="M190.62 168.665V187.99H159.167V168.665H190.62Z" fill="#EBD8B7"/>
<path fill-rule="evenodd" clip-rule="evenodd" d="M188.889 170.444V176.182H183.596V170.444H188.889Z" fill="#B9A583"/>
<path fill-rule="evenodd" clip-rule="evenodd" d="M189.274 179.003V186.109C189.274 186.322 189.101 186.494 188.889 186.494H176.672C176.46 186.494 176.288 186.322 176.288 186.109V179.003C176.288 178.79 176.46 178.618 176.672 178.618H188.889C189.101 178.618 189.274 178.79 189.274 179.003ZM188.504 179.387H177.057V185.725H188.504V179.387Z" fill="#B9A583"/>
<path fill-rule="evenodd" clip-rule="evenodd" d="M162.633 172.56C162.42 172.56 162.248 172.388 162.248 172.176C162.248 171.963 162.42 171.791 162.633 171.791H174.172C174.384 171.791 174.557 171.963 174.557 172.176C174.557 172.388 174.384 172.56 174.172 172.56H162.633Z" fill="#B9A583"/>
<path fill-rule="evenodd" clip-rule="evenodd" d="M162.633 175.278C162.42 175.278 162.248 175.106 162.248 174.893C162.248 174.681 162.42 174.509 162.633 174.509H174.172C174.384 174.509 174.557 174.681 174.557 174.893C174.557 175.106 174.384 175.278 174.172 175.278H162.633Z" fill="#B9A583"/>
<path fill-rule="evenodd" clip-rule="evenodd" d="M162.633 177.995C162.42 177.995 162.248 177.823 162.248 177.61C162.248 177.398 162.42 177.226 162.633 177.226H174.172C174.384 177.226 174.557 177.398 174.557 177.61C174.557 177.823 174.384 177.995 174.172 177.995H162.633Z" fill="#B9A583"/>
<path fill-rule="evenodd" clip-rule="evenodd" d="M178.344 182.03C178.132 182.03 177.959 181.857 177.959 181.645C177.959 181.433 178.132 181.26 178.344 181.26H187.538C187.751 181.26 187.923 181.432 187.923 181.645C187.923 181.857 187.751 182.03 187.538 182.03H178.344Z" fill="#B9A583"/>
<path fill-rule="evenodd" clip-rule="evenodd" d="M178.344 183.852C178.132 183.852 177.959 183.679 177.959 183.467C177.959 183.255 178.132 183.083 178.344 183.083H187.538C187.751 183.083 187.923 183.255 187.923 183.467C187.923 183.679 187.751 183.852 187.538 183.852H178.344Z" fill="#B9A583"/>
<path fill-rule="evenodd" clip-rule="evenodd" d="M66.6156 253.023C60.9086 253.023 58.0661 244.866 60.4276 242.012C62.7892 239.159 61.3131 236.313 65.8392 235.473C70.3654 234.632 133.437 235.518 143.277 234.632C153.116 233.747 161.089 246.753 151.151 252.856C139.075 252.856 78.0797 253.023 66.6156 253.023Z" fill="#A74D40"/>
<path fill-rule="evenodd" clip-rule="evenodd" d="M72.9744 235.337C67.2674 235.337 65.225 227.525 67.5866 224.672C69.9481 221.818 68.9881 217.249 77.45 218.693C81.9882 219.467 140.596 218.178 150.435 217.292C160.275 216.406 172.13 233.284 157.839 234.57C144.575 234.57 84.4383 235.337 72.9744 235.337Z" fill="#D26F61"/>
<path fill-rule="evenodd" clip-rule="evenodd" d="M63.1667 239.63C63.1238 239.557 63.1481 239.463 63.2209 239.42C63.294 239.377 63.388 239.401 63.4309 239.474C63.4309 239.474 64.2392 240.547 65.1088 241.772C65.3427 242.101 65.577 242.439 65.8004 242.772C66.1318 243.267 66.4426 243.739 66.6823 244.131C67.0198 244.681 67.2213 245.065 67.2213 245.065C67.3448 245.274 67.3237 245.538 67.1687 245.726C67.1687 245.726 66.4956 246.474 65.7004 247.298C64.6539 248.382 63.4171 249.588 63.4171 249.588C63.3629 249.653 63.2663 249.663 63.2011 249.609C63.1358 249.554 63.1268 249.458 63.1808 249.392C63.1808 249.392 64.1368 247.954 65.0084 246.724C65.4071 246.162 65.7868 245.649 66.0258 245.329C65.9309 245.174 65.8084 244.969 65.6709 244.727C65.4443 244.328 65.1813 243.828 64.9083 243.299C64.7244 242.942 64.5415 242.574 64.3664 242.21C63.7154 240.856 63.1667 239.63 63.1667 239.63Z" fill="#813C31"/>
<path fill-rule="evenodd" clip-rule="evenodd" d="M70.326 222.289C70.283 222.217 70.3071 222.122 70.3802 222.079C70.453 222.036 70.5472 222.061 70.5902 222.134C70.5902 222.134 71.3982 223.206 72.2682 224.431C72.5021 224.76 72.7364 225.098 72.9598 225.432C73.2913 225.926 73.6018 226.398 73.8417 226.79C74.179 227.341 74.3805 227.724 74.3805 227.724C74.504 227.933 74.4831 228.197 74.328 228.385C74.328 228.385 73.6548 229.133 72.8599 229.957C71.8133 231.041 70.5765 232.247 70.5765 232.247C70.5223 232.312 70.4257 232.322 70.3605 232.268C70.2953 232.213 70.2862 232.117 70.3402 232.052C70.3402 232.052 71.296 230.613 72.1679 229.383C72.5664 228.821 72.946 228.308 73.1853 227.988C73.0903 227.833 72.9679 227.628 72.8303 227.386C72.6037 226.988 72.3407 226.487 72.0677 225.958C71.8838 225.601 71.7009 225.233 71.5259 224.869C70.8746 223.516 70.326 222.289 70.326 222.289Z" fill="#B84534"/>
<path fill-rule="evenodd" clip-rule="evenodd" d="M151.884 239.474C151.927 239.401 152.021 239.377 152.094 239.42C152.167 239.463 152.191 239.557 152.148 239.63C152.148 239.63 151.6 240.856 150.949 242.21C150.773 242.573 150.591 242.942 150.407 243.299C150.134 243.828 149.871 244.328 149.644 244.727C149.506 244.969 149.384 245.174 149.289 245.329C149.528 245.648 149.908 246.162 150.307 246.724C151.178 247.953 152.134 249.392 152.134 249.392C152.188 249.457 152.179 249.554 152.114 249.608C152.049 249.662 151.952 249.653 151.898 249.588C151.898 249.588 150.661 248.382 149.615 247.297C148.82 246.473 148.146 245.725 148.146 245.725C147.991 245.538 147.97 245.274 148.094 245.064C148.094 245.064 148.295 244.681 148.632 244.13C148.872 243.739 149.183 243.267 149.514 242.772C149.738 242.439 149.972 242.101 150.206 241.771C151.076 240.547 151.884 239.474 151.884 239.474Z" fill="#813C32"/>
<path fill-rule="evenodd" clip-rule="evenodd" d="M159.043 222.134C159.086 222.061 159.18 222.036 159.253 222.079C159.326 222.122 159.35 222.217 159.307 222.289C159.307 222.289 158.758 223.515 158.107 224.869C157.932 225.233 157.749 225.601 157.565 225.958C157.292 226.487 157.029 226.987 156.802 227.386C156.665 227.628 156.543 227.833 156.448 227.988C156.687 228.307 157.066 228.821 157.465 229.383C158.337 230.613 159.293 232.051 159.293 232.051C159.347 232.117 159.338 232.213 159.273 232.267C159.207 232.321 159.111 232.312 159.057 232.247C159.057 232.247 157.82 231.041 156.773 229.956C155.978 229.132 155.305 228.384 155.305 228.384C155.15 228.197 155.129 227.933 155.252 227.724C155.252 227.724 155.454 227.34 155.791 226.789C156.031 226.398 156.342 225.926 156.673 225.431C156.896 225.098 157.131 224.76 157.365 224.431C158.235 223.206 159.043 222.134 159.043 222.134Z" fill="#B84534"/>
<path fill-rule="evenodd" clip-rule="evenodd" d="M66.7251 245.511C66.6406 245.511 66.5718 245.443 66.5718 245.358C66.5718 245.273 66.6406 245.205 66.7251 245.205C66.7251 245.205 70.5505 245.138 76.5489 245.054C80.6296 244.997 85.7145 244.923 91.2847 244.866C94.4359 244.833 97.7417 244.807 101.109 244.788C103.275 244.776 105.466 244.767 107.658 244.768C109.849 244.768 112.041 244.779 114.207 244.793C117.574 244.814 120.88 244.847 124.031 244.879C127.541 244.915 130.859 244.956 133.855 244.995C142.598 245.108 148.59 245.204 148.59 245.204C148.675 245.204 148.744 245.273 148.744 245.358C148.744 245.442 148.675 245.511 148.59 245.511C148.59 245.511 142.598 245.607 133.855 245.721C130.859 245.76 127.541 245.8 124.031 245.836C120.88 245.868 117.574 245.901 114.207 245.922C112.04 245.936 109.849 245.947 107.658 245.948C105.466 245.949 103.275 245.94 101.109 245.928C97.7417 245.909 94.4359 245.883 91.2849 245.85C85.7147 245.792 80.6298 245.719 76.5491 245.662C70.5503 245.577 66.7251 245.511 66.7251 245.511Z" fill="#813C31"/>
<path fill-rule="evenodd" clip-rule="evenodd" d="M73.8838 228.17C73.7993 228.17 73.7305 228.102 73.7305 228.017C73.7305 227.932 73.7993 227.864 73.8838 227.864C73.8838 227.864 77.7092 227.798 83.7078 227.713C87.7885 227.656 92.8731 227.582 98.4436 227.525C101.595 227.492 104.901 227.466 108.267 227.447C110.433 227.435 112.625 227.426 114.817 227.427C117.008 227.428 119.2 227.439 121.366 227.452C124.733 227.474 128.038 227.507 131.189 227.539C134.7 227.575 138.018 227.615 141.013 227.654C149.757 227.768 155.749 227.864 155.749 227.864C155.833 227.864 155.902 227.932 155.902 228.017C155.902 228.102 155.833 228.17 155.749 228.17C155.749 228.17 149.757 228.267 141.013 228.38C138.018 228.419 134.7 228.459 131.189 228.495C128.038 228.528 124.732 228.56 121.366 228.582C119.199 228.596 117.008 228.606 114.816 228.607C112.625 228.608 110.433 228.599 108.267 228.587C104.9 228.568 101.595 228.542 98.4434 228.509C92.8729 228.451 87.7883 228.378 83.7076 228.321C77.7092 228.237 73.8838 228.17 73.8838 228.17Z" fill="#B84534"/>
<path fill-rule="evenodd" clip-rule="evenodd" d="M72.1742 235.339C72.0895 235.341 72.0194 235.273 72.0176 235.188C72.016 235.104 72.0833 235.034 72.168 235.032C72.168 235.032 78.9734 234.764 88.5282 234.497C91.8846 234.403 95.5792 234.309 99.4377 234.235C102.399 234.178 105.457 234.127 108.531 234.103C111.573 234.08 114.63 234.082 117.626 234.099C123.031 234.13 128.234 234.218 132.785 234.344C140.266 234.551 145.983 234.887 147.934 235.343C148.017 235.361 148.069 235.442 148.051 235.525C148.033 235.608 147.952 235.66 147.869 235.642C145.915 235.249 140.22 235.12 132.774 235.112C129.083 235.108 124.964 235.137 120.657 235.176C118.277 235.198 115.84 235.223 113.387 235.245C111.774 235.26 110.154 235.272 108.539 235.28C105.592 235.294 102.66 235.301 99.8131 235.309C97.824 235.315 95.8769 235.317 93.9951 235.317C81.6822 235.317 72.1742 235.339 72.1742 235.339Z" fill="#813C31"/>
<path fill-rule="evenodd" clip-rule="evenodd" d="M271.841 231.154V301.353H165.698V231.154H271.841Z" fill="#BD9756"/>
<path fill-rule="evenodd" clip-rule="evenodd" d="M201.75 231.154V301.353H117.759V231.154H201.75Z" fill="#DAB981"/>
<path fill-rule="evenodd" clip-rule="evenodd" d="M168.122 231.154V248.492L166.238 247.569L164.047 248.492L162.125 247.569L159.754 248.492L157.742 247.569L155.685 248.492L153.595 247.569L151.387 248.492V231.154H168.122Z" fill="#C99C50"/>
<path fill-rule="evenodd" clip-rule="evenodd" d="M201.819 231.813C201.754 231.888 201.767 232.012 201.702 232.087C201.276 232.576 191.945 242.851 191.095 243.786C191.081 243.802 190.995 243.896 190.854 243.899C189.481 243.922 169.811 244.184 159.054 244.187C146.277 244.191 130.466 243.952 127.981 243.914C127.82 243.912 127.729 243.799 127.715 243.78C123.309 238.281 117.684 231.22 117.683 231.217C117.668 231.173 117.712 231.122 117.696 231.078C117.76 231.151 117.884 231.15 117.947 231.223C119.975 233.554 121.956 235.925 123.958 238.278C125.356 239.921 126.219 242.242 128.145 243.212C128.155 243.217 138.761 243.031 152.994 242.95C154.004 242.944 159.406 242.913 165.62 242.957C178.511 243.047 190.707 243.228 190.708 243.226C193.447 240.987 195.609 238.123 198.062 235.573C199.225 234.363 200.369 233.133 201.556 231.946C201.626 231.877 201.75 231.883 201.819 231.813Z" fill="#C99C50"/>
<path fill-rule="evenodd" clip-rule="evenodd" d="M201.819 300.694C201.75 300.624 201.626 300.63 201.556 300.561C200.37 299.373 199.226 298.143 198.062 296.934C195.61 294.384 193.448 291.519 190.708 289.28C190.707 289.279 178.511 289.459 165.62 289.55C159.406 289.593 154.004 289.562 152.994 289.557C138.762 289.476 128.156 289.29 128.146 289.295C126.219 290.265 125.356 292.585 123.958 294.228C123.915 294.28 117.835 301.415 117.835 301.415C117.795 301.438 117.737 301.405 117.697 301.428C117.757 301.351 117.733 301.229 117.793 301.152C118.141 300.706 127.686 288.748 127.749 288.689C127.848 288.595 127.961 288.593 127.981 288.593C130.466 288.555 146.277 288.316 159.054 288.32C169.811 288.323 189.481 288.584 190.854 288.608C190.995 288.611 191.081 288.705 191.095 288.721C191.945 289.656 201.276 299.931 201.702 300.42C201.767 300.494 201.754 300.619 201.819 300.694Z" fill="#C99C50"/>
<path fill-rule="evenodd" clip-rule="evenodd" d="M201.75 297.392C201.746 297.312 201.653 297.255 201.649 297.175C201.646 297.124 201.483 290.102 201.388 285.523C201.098 271.586 201.121 265.714 201.128 263.991C201.131 263.145 201.145 259.482 201.245 253.418C201.351 246.958 201.646 235.056 201.652 235.044C201.715 234.911 201.785 234.911 201.848 235.044C201.854 235.056 202.149 246.959 202.255 253.418C202.274 254.587 202.401 262.265 202.37 268.035C202.346 272.703 202.227 279.449 202.209 280.442C202.109 286.088 201.861 296.985 201.851 297.175C201.847 297.255 201.754 297.312 201.75 297.392Z" fill="#AF863F"/>
<path fill-rule="evenodd" clip-rule="evenodd" d="M271.216 300.727C271.217 299.961 271.206 290.307 271.336 273.717C271.441 260.301 271.737 235.063 271.743 235.044C271.756 235 271.828 234.99 271.841 234.946C271.843 235.065 271.94 235.169 271.942 235.287C271.958 236.09 272.243 260.972 272.347 274.381C272.467 290.048 272.466 299.879 272.467 301.262C272.467 301.278 272.468 301.405 272.458 301.461C272.453 301.487 272.428 301.626 272.32 301.755C272.293 301.787 272.133 301.976 271.841 301.977C263.83 301.99 244.579 301.831 242.208 301.812C230.114 301.712 206.775 301.463 206.381 301.454C206.26 301.451 206.153 301.355 206.032 301.353C206.152 301.349 206.258 301.254 206.378 301.251C206.758 301.242 229.886 300.992 241.618 300.893L262.855 300.749C265.642 300.737 268.429 300.739 271.216 300.727Z" fill="#AF863F"/>
<path fill-rule="evenodd" clip-rule="evenodd" d="M257.095 252.954V276.502H218.77V252.954H257.095Z" fill="#EBD8B7"/>
<path fill-rule="evenodd" clip-rule="evenodd" d="M254.985 255.124V262.115H248.536V255.124H254.985Z" fill="#B9A583"/>
<path fill-rule="evenodd" clip-rule="evenodd" d="M255.454 265.552V274.211C255.454 274.47 255.244 274.68 254.985 274.68H240.099C239.84 274.68 239.631 274.47 239.631 274.211V265.552C239.631 265.293 239.841 265.083 240.099 265.083H254.985C255.244 265.083 255.454 265.293 255.454 265.552ZM254.517 266.021H240.568V273.743H254.517V266.021Z" fill="#B9A583"/>
<path fill-rule="evenodd" clip-rule="evenodd" d="M222.993 257.701C222.734 257.701 222.524 257.491 222.524 257.232C222.524 256.974 222.734 256.764 222.993 256.764H237.053C237.312 256.764 237.522 256.974 237.522 257.232C237.522 257.491 237.312 257.701 237.053 257.701H222.993Z" fill="#B9A583"/>
<path fill-rule="evenodd" clip-rule="evenodd" d="M222.993 261.013C222.734 261.013 222.524 260.803 222.524 260.544C222.524 260.286 222.734 260.076 222.993 260.076H237.053C237.312 260.076 237.522 260.286 237.522 260.544C237.522 260.803 237.312 261.013 237.053 261.013H222.993Z" fill="#B9A583"/>
<path fill-rule="evenodd" clip-rule="evenodd" d="M222.993 264.324C222.734 264.324 222.524 264.114 222.524 263.855C222.524 263.597 222.734 263.387 222.993 263.387H237.053C237.312 263.387 237.522 263.597 237.522 263.855C237.522 264.114 237.312 264.324 237.053 264.324H222.993Z" fill="#B9A583"/>
<path fill-rule="evenodd" clip-rule="evenodd" d="M242.137 269.24C241.878 269.24 241.668 269.03 241.668 268.771C241.668 268.513 241.878 268.303 242.137 268.303H253.34C253.598 268.303 253.809 268.513 253.809 268.771C253.809 269.03 253.598 269.24 253.34 269.24H242.137Z" fill="#B9A583"/>
<path fill-rule="evenodd" clip-rule="evenodd" d="M242.137 271.46C241.878 271.46 241.668 271.25 241.668 270.992C241.668 270.733 241.878 270.523 242.137 270.523H253.34C253.598 270.523 253.809 270.733 253.809 270.992C253.809 271.25 253.598 271.46 253.34 271.46H242.137Z" fill="#B9A583"/>
<path fill-rule="evenodd" clip-rule="evenodd" d="M281.383 182.691V231.154H164.458V182.691H281.383Z" fill="#E8B55E"/>
<path fill-rule="evenodd" clip-rule="evenodd" d="M222.921 182.691V231.154H155.266V182.691H222.921Z" fill="#F0D099"/>
<path fill-rule="evenodd" clip-rule="evenodd" d="M196.052 182.691V206.923L194.168 205.999L191.976 206.923L190.054 205.999L187.684 206.923L185.671 205.999L183.614 206.923L181.524 205.999L179.316 206.923V182.691H196.052Z" fill="#E8B55E"/>
<path fill-rule="evenodd" clip-rule="evenodd" d="M224.745 185.251C224.692 185.207 224.684 185.129 224.727 185.075C224.771 185.021 224.85 185.013 224.903 185.056C224.903 185.056 229.754 188.774 236.565 194.06C238.134 195.278 239.806 196.579 241.543 197.943C243.666 199.61 245.89 201.363 248.146 203.162C249.598 204.319 251.061 205.495 252.518 206.679C253.609 207.565 254.695 208.457 255.771 209.348C258.366 211.495 260.907 213.624 263.31 215.64C265.615 217.574 267.786 219.408 269.745 221.067C275.465 225.909 279.367 229.244 279.367 229.244C279.421 229.288 279.429 229.367 279.386 229.42C279.342 229.474 279.263 229.482 279.21 229.439C279.21 229.439 275.141 226.308 269.225 221.709C267.198 220.133 264.955 218.387 262.588 216.53C260.12 214.594 257.513 212.547 254.877 210.45C253.784 209.581 252.687 208.702 251.595 207.817C250.136 206.635 248.684 205.445 247.253 204.264C245.028 202.427 242.854 200.612 240.785 198.877C239.092 197.459 237.474 196.092 235.959 194.807C229.383 189.231 224.745 185.251 224.745 185.251Z" fill="#D29D41"/>
<path fill-rule="evenodd" clip-rule="evenodd" d="M279.209 185.057C279.263 185.013 279.342 185.021 279.385 185.075C279.429 185.129 279.421 185.208 279.367 185.251C279.367 185.251 274.729 189.232 268.154 194.807C266.639 196.092 265.021 197.459 263.328 198.877C261.259 200.612 259.085 202.427 256.86 204.264C255.429 205.445 253.977 206.635 252.518 207.817C251.426 208.702 250.329 209.581 249.236 210.45C246.599 212.547 243.993 214.594 241.525 216.53C239.158 218.387 236.915 220.133 234.888 221.709C228.972 226.307 224.903 229.439 224.903 229.439C224.85 229.482 224.771 229.474 224.727 229.42C224.684 229.367 224.692 229.288 224.745 229.244C224.745 229.244 228.648 225.909 234.367 221.067C236.327 219.408 238.498 217.574 240.802 215.64C243.205 213.624 245.746 211.495 248.341 209.348C249.417 208.457 250.504 207.565 251.595 206.679C253.052 205.495 254.515 204.319 255.966 203.162C258.222 201.364 260.446 199.61 262.57 197.943C264.307 196.579 265.978 195.278 267.548 194.06C274.358 188.775 279.209 185.057 279.209 185.057Z" fill="#D29D41"/>
<path fill-rule="evenodd" clip-rule="evenodd" d="M271.716 231.029C271.785 231.029 271.841 231.085 271.841 231.154C271.841 231.223 271.785 231.279 271.716 231.279C271.716 231.279 261.569 231.448 247.261 231.635C243.964 231.678 240.446 231.72 236.781 231.756C232.298 231.799 227.596 231.839 222.807 231.863C219.725 231.879 216.608 231.888 213.49 231.887C211.156 231.886 208.823 231.877 206.503 231.864C200.912 231.831 195.408 231.779 190.201 231.727C185.207 231.678 180.487 231.621 176.226 231.567C163.789 231.411 155.265 231.279 155.265 231.279C155.196 231.279 155.14 231.223 155.14 231.154C155.14 231.085 155.196 231.029 155.265 231.029C155.265 231.029 163.789 230.897 176.227 230.74C180.488 230.687 185.207 230.63 190.201 230.581C195.408 230.529 200.912 230.477 206.503 230.444C208.822 230.43 211.156 230.422 213.49 230.421C216.608 230.42 219.725 230.429 222.807 230.444C227.596 230.469 232.298 230.509 236.781 230.552C240.446 230.587 243.964 230.63 247.261 230.673C261.569 230.859 271.716 231.029 271.716 231.029Z" fill="#B28435"/>
<path fill-rule="evenodd" clip-rule="evenodd" d="M222.796 185.154C222.796 185.085 222.852 185.029 222.921 185.029C222.99 185.029 223.046 185.085 223.046 185.154C223.046 185.154 223.215 188.86 223.402 194.095C223.445 195.3 223.487 196.585 223.523 197.926C223.566 199.565 223.606 201.283 223.63 203.035C223.646 204.161 223.655 205.301 223.654 206.44C223.653 207.294 223.645 208.147 223.631 208.995C223.598 211.04 223.546 213.051 223.494 214.955C223.445 216.782 223.388 218.506 223.335 220.064C223.178 224.614 223.046 227.727 223.046 227.727C223.046 227.796 222.99 227.852 222.921 227.852C222.852 227.852 222.796 227.796 222.796 227.727C222.796 227.727 222.664 224.614 222.507 220.064C222.454 218.506 222.397 216.782 222.348 214.955C222.296 213.051 222.244 211.04 222.211 208.995C222.198 208.147 222.189 207.294 222.188 206.44C222.187 205.301 222.196 204.161 222.212 203.035C222.236 201.283 222.276 199.565 222.319 197.926C222.355 196.585 222.397 195.3 222.44 194.094C222.627 188.859 222.796 185.154 222.796 185.154Z" fill="#D29D41"/>
<path fill-rule="evenodd" clip-rule="evenodd" d="M281.259 185.154C281.259 185.085 281.314 185.029 281.384 185.029C281.453 185.029 281.509 185.085 281.509 185.154C281.509 185.154 281.678 188.86 281.864 194.095C281.908 195.3 281.95 196.585 281.985 197.926C282.028 199.565 282.068 201.283 282.093 203.035C282.109 204.161 282.118 205.301 282.116 206.44C282.115 207.294 282.107 208.147 282.093 208.995C282.061 211.04 282.008 213.051 281.957 214.955C281.907 216.782 281.851 218.506 281.797 220.064C281.64 224.614 281.508 227.727 281.508 227.727C281.508 227.796 281.453 227.852 281.383 227.852C281.314 227.852 281.258 227.796 281.258 227.727C281.258 227.727 281.127 224.614 280.97 220.064C280.916 218.506 280.86 216.782 280.81 214.955C280.758 213.051 280.706 211.04 280.674 208.995C280.66 208.147 280.652 207.294 280.65 206.44C280.649 205.301 280.658 204.161 280.674 203.035C280.699 201.283 280.738 199.565 280.782 197.926C280.817 196.585 280.859 195.3 280.902 194.094C281.089 188.859 281.259 185.154 281.259 185.154Z" fill="#D29D41"/>
<path fill-rule="evenodd" clip-rule="evenodd" d="M155.141 185.154C155.141 185.085 155.197 185.029 155.266 185.029C155.335 185.029 155.391 185.085 155.391 185.154C155.391 185.154 155.56 188.86 155.747 194.095C155.79 195.3 155.832 196.585 155.867 197.926C155.91 199.565 155.95 201.283 155.975 203.035C155.991 204.161 156 205.301 155.998 206.44C155.998 207.294 155.989 208.147 155.975 208.995C155.943 211.04 155.891 213.051 155.839 214.955C155.789 216.782 155.733 218.506 155.679 220.064C155.522 224.614 155.391 227.727 155.391 227.727C155.391 227.796 155.334 227.852 155.266 227.852C155.197 227.852 155.14 227.796 155.14 227.727C155.14 227.727 155.009 224.614 154.852 220.064C154.798 218.506 154.742 216.782 154.692 214.955C154.641 213.051 154.588 211.04 154.556 208.995C154.542 208.147 154.534 207.294 154.533 206.44C154.532 205.301 154.541 204.161 154.557 203.035C154.581 201.283 154.621 199.565 154.664 197.926C154.699 196.585 154.742 195.3 154.785 194.094C154.971 188.859 155.141 185.154 155.141 185.154Z" fill="#D29D41"/>
<path fill-rule="evenodd" clip-rule="evenodd" d="M173.759 252.954V301.402H56.8696V252.954H173.759Z" fill="#C99C50"/>
<path fill-rule="evenodd" clip-rule="evenodd" d="M115.314 252.954V301.402H47.6797V252.954H115.314Z" fill="#D5B276"/>
<path fill-rule="evenodd" clip-rule="evenodd" d="M88.4524 252.954V277.178L86.5692 276.255L84.3784 277.178L82.457 276.255L80.0873 277.178L78.0756 276.255L76.0193 277.178L73.9296 276.255L71.7222 277.178V252.954H88.4524Z" fill="#C99C50"/>
<path fill-rule="evenodd" clip-rule="evenodd" d="M117.138 255.512C117.084 255.469 117.076 255.39 117.119 255.336C117.163 255.283 117.242 255.274 117.295 255.318C117.295 255.318 122.145 259.035 128.953 264.318C130.522 265.536 132.193 266.837 133.929 268.2C136.052 269.867 138.276 271.619 140.531 273.417C141.982 274.574 143.445 275.75 144.901 276.933C145.992 277.819 147.078 278.711 148.154 279.601C150.748 281.748 153.288 283.876 155.69 285.892C157.994 287.825 160.165 289.659 162.123 291.317C167.841 296.157 171.742 299.491 171.742 299.491C171.796 299.535 171.804 299.614 171.76 299.668C171.717 299.721 171.638 299.73 171.584 299.686C171.584 299.686 167.517 296.556 161.602 291.958C159.576 290.384 157.334 288.638 154.968 286.782C152.501 284.846 149.895 282.8 147.26 280.703C146.167 279.834 145.07 278.956 143.978 278.071C142.52 276.889 141.068 275.7 139.638 274.519C137.413 272.683 135.24 270.868 133.172 269.135C131.48 267.716 129.862 266.35 128.347 265.065C121.774 259.492 117.138 255.512 117.138 255.512Z" fill="#B28435"/>
<path fill-rule="evenodd" clip-rule="evenodd" d="M171.585 255.318C171.638 255.275 171.717 255.283 171.76 255.337C171.804 255.39 171.796 255.469 171.742 255.513C171.742 255.513 167.106 259.492 160.532 265.065C159.018 266.35 157.4 267.717 155.708 269.135C153.64 270.869 151.467 272.683 149.243 274.519C147.812 275.7 146.36 276.89 144.902 278.071C143.81 278.956 142.713 279.835 141.62 280.704C138.985 282.8 136.379 284.847 133.912 286.782C131.545 288.638 129.304 290.384 127.278 291.959C121.363 296.556 117.296 299.686 117.296 299.686C117.242 299.73 117.163 299.721 117.12 299.668C117.076 299.614 117.084 299.535 117.138 299.492C117.138 299.492 121.039 296.157 126.757 291.317C128.716 289.659 130.886 287.825 133.19 285.892C135.592 283.877 138.132 281.748 140.726 279.602C141.802 278.711 142.888 277.819 143.979 276.933C145.435 275.75 146.899 274.575 148.349 273.418C150.604 271.62 152.828 269.867 154.951 268.2C156.687 266.837 158.358 265.536 159.927 264.319C166.735 259.035 171.585 255.318 171.585 255.318Z" fill="#B28435"/>
<path fill-rule="evenodd" clip-rule="evenodd" d="M164.094 301.276C164.163 301.276 164.219 301.332 164.219 301.402C164.219 301.471 164.163 301.527 164.094 301.527C164.094 301.527 153.95 301.696 139.647 301.882C136.35 301.925 132.834 301.968 129.17 302.003C124.689 302.046 119.988 302.086 115.2 302.11C112.12 302.126 109.003 302.135 105.887 302.134C103.554 302.133 101.221 302.124 98.9022 302.111C93.3121 302.078 87.8097 302.026 82.6044 301.974C77.6119 301.925 72.8943 301.868 68.6347 301.815C56.2007 301.658 47.6802 301.526 47.6802 301.526C47.6112 301.526 47.5552 301.471 47.5552 301.401C47.5552 301.332 47.6112 301.276 47.6802 301.276C47.6802 301.276 56.2009 301.145 68.6349 300.988C72.8945 300.934 77.6121 300.878 82.6046 300.828C87.8099 300.777 93.3121 300.724 98.9024 300.692C101.221 300.678 103.554 300.67 105.887 300.669C109.003 300.667 112.12 300.676 115.2 300.692C119.988 300.717 124.689 300.757 129.17 300.8C132.834 300.835 136.351 300.878 139.647 300.921C153.95 301.107 164.094 301.276 164.094 301.276Z" fill="#B28435"/>
<path fill-rule="evenodd" clip-rule="evenodd" d="M115.189 255.416C115.189 255.347 115.245 255.291 115.314 255.291C115.383 255.291 115.439 255.347 115.439 255.416C115.439 255.416 115.608 259.12 115.795 264.353C115.838 265.559 115.88 266.843 115.915 268.184C115.958 269.822 115.998 271.54 116.023 273.291C116.039 274.417 116.048 275.556 116.046 276.695C116.046 277.548 116.037 278.401 116.024 279.249C115.991 281.293 115.938 283.304 115.887 285.207C115.837 287.033 115.781 288.757 115.727 290.314C115.571 294.863 115.439 297.975 115.439 297.975C115.439 298.044 115.383 298.1 115.314 298.1C115.245 298.1 115.189 298.044 115.189 297.975C115.189 297.975 115.057 294.863 114.901 290.314C114.847 288.756 114.79 287.033 114.741 285.207C114.689 283.304 114.637 281.293 114.604 279.249C114.591 278.401 114.582 277.548 114.581 276.695C114.58 275.556 114.589 274.417 114.605 273.291C114.629 271.54 114.669 269.822 114.712 268.184C114.748 266.843 114.79 265.559 114.833 264.353C115.02 259.12 115.189 255.416 115.189 255.416Z" fill="#B28435"/>
<path fill-rule="evenodd" clip-rule="evenodd" d="M173.633 255.416C173.633 255.347 173.689 255.291 173.758 255.291C173.827 255.291 173.883 255.347 173.883 255.416C173.883 255.416 174.052 259.12 174.239 264.353C174.282 265.559 174.324 266.843 174.359 268.184C174.402 269.822 174.443 271.54 174.467 273.291C174.483 274.417 174.492 275.556 174.491 276.695C174.49 277.548 174.481 278.401 174.468 279.249C174.435 281.293 174.383 283.304 174.331 285.207C174.282 287.033 174.225 288.757 174.172 290.314C174.015 294.863 173.883 297.975 173.883 297.975C173.883 298.044 173.827 298.1 173.758 298.1C173.689 298.1 173.633 298.044 173.633 297.975C173.633 297.975 173.501 294.863 173.345 290.314C173.291 288.756 173.234 287.033 173.185 285.207C173.133 283.304 173.081 281.293 173.048 279.249C173.035 278.401 173.027 277.548 173.025 276.695C173.024 275.556 173.033 274.417 173.049 273.291C173.073 271.54 173.114 269.822 173.157 268.184C173.192 266.843 173.234 265.559 173.277 264.353C173.464 259.12 173.633 255.416 173.633 255.416Z" fill="#B28435"/>
<path fill-rule="evenodd" clip-rule="evenodd" d="M47.5548 255.416C47.5548 255.347 47.6109 255.291 47.6799 255.291C47.749 255.291 47.8052 255.347 47.8052 255.416C47.8052 255.416 47.9742 259.12 48.1607 264.353C48.2037 265.559 48.2462 266.843 48.2814 268.184C48.3245 269.822 48.3645 271.54 48.389 273.291C48.4048 274.417 48.4139 275.556 48.4127 276.695C48.4119 277.548 48.4032 278.401 48.3896 279.249C48.3568 281.293 48.3047 283.304 48.2531 285.207C48.2037 287.033 48.1469 288.757 48.0933 290.314C47.9365 294.863 47.8052 297.975 47.8052 297.975C47.8052 298.044 47.7492 298.1 47.6799 298.1C47.6109 298.1 47.5548 298.044 47.5548 297.975C47.5548 297.975 47.4234 294.863 47.2666 290.314C47.213 288.756 47.1564 287.033 47.107 285.207C47.0554 283.304 47.003 281.293 46.9703 279.249C46.9568 278.401 46.9482 277.548 46.9474 276.695C46.9462 275.556 46.9552 274.417 46.9709 273.291C46.9954 271.54 47.0355 269.822 47.0785 268.184C47.1138 266.843 47.1562 265.559 47.1991 264.353C47.3858 259.12 47.5548 255.416 47.5548 255.416Z" fill="#B28435"/>
<path fill-rule="evenodd" clip-rule="evenodd" d="M248.295 301.353V390.379H83.1016V301.353H248.295Z" fill="#E8B55E"/>
<path fill-rule="evenodd" clip-rule="evenodd" d="M237.073 301.353L237.123 336.605L235.239 335.681L233.047 336.605L231.126 335.681L228.755 336.605L226.742 335.681L224.686 336.605L222.595 335.681L220.387 336.605L220.337 301.353H237.073Z" fill="#F0D099"/>
<path fill-rule="evenodd" clip-rule="evenodd" d="M206.978 301.353V390.379H62.084V301.353H206.978Z" fill="#F0D099"/>
<path fill-rule="evenodd" clip-rule="evenodd" d="M158.54 331.114V360.618H110.522V331.114H158.54Z" fill="#FAEFDC"/>
<path fill-rule="evenodd" clip-rule="evenodd" d="M155.897 333.832V342.592H147.816V333.832H155.897Z" fill="#C4B397"/>
<path fill-rule="evenodd" clip-rule="evenodd" d="M156.484 346.898V357.747C156.484 358.071 156.222 358.334 155.897 358.334H137.247C136.923 358.334 136.66 358.071 136.66 357.747V346.898C136.66 346.573 136.923 346.311 137.247 346.311H155.897C156.222 346.311 156.484 346.573 156.484 346.898ZM155.31 347.485H137.834V357.16H155.31V347.485Z" fill="#C4B397"/>
<path fill-rule="evenodd" clip-rule="evenodd" d="M115.814 337.062C115.49 337.062 115.227 336.799 115.227 336.475C115.227 336.151 115.49 335.888 115.814 335.888H133.43C133.754 335.888 134.017 336.151 134.017 336.475C134.017 336.799 133.754 337.062 133.43 337.062H115.814Z" fill="#C4B397"/>
<path fill-rule="evenodd" clip-rule="evenodd" d="M115.814 341.211C115.49 341.211 115.227 340.948 115.227 340.624C115.227 340.3 115.49 340.037 115.814 340.037H133.43C133.754 340.037 134.017 340.3 134.017 340.624C134.017 340.948 133.754 341.211 133.43 341.211H115.814Z" fill="#C4B397"/>
<path fill-rule="evenodd" clip-rule="evenodd" d="M115.814 345.359C115.49 345.359 115.227 345.096 115.227 344.772C115.227 344.448 115.49 344.185 115.814 344.185H133.43C133.754 344.185 134.017 344.448 134.017 344.772C134.017 345.096 133.754 345.359 133.43 345.359H115.814Z" fill="#C4B397"/>
<path fill-rule="evenodd" clip-rule="evenodd" d="M139.8 351.519C139.476 351.519 139.212 351.256 139.212 350.932C139.212 350.608 139.476 350.345 139.8 350.345H153.836C154.16 350.345 154.423 350.608 154.423 350.932C154.423 351.256 154.16 351.519 153.836 351.519H139.8Z" fill="#C4B397"/>
<path fill-rule="evenodd" clip-rule="evenodd" d="M139.8 354.3C139.476 354.3 139.212 354.037 139.212 353.713C139.212 353.389 139.476 353.126 139.8 353.126H153.836C154.16 353.126 154.423 353.389 154.423 353.713C154.423 354.037 154.16 354.3 153.836 354.3H139.8Z" fill="#C4B397"/>
<path fill-rule="evenodd" clip-rule="evenodd" d="M206.853 305.646C206.853 305.577 206.909 305.521 206.978 305.521C207.047 305.521 207.103 305.577 207.103 305.646C207.103 305.646 207.272 312.655 207.459 322.54C207.502 324.818 207.544 327.248 207.58 329.781C207.623 332.877 207.663 336.125 207.687 339.434C207.703 341.563 207.712 343.716 207.711 345.87C207.71 347.483 207.702 349.095 207.688 350.697C207.655 354.56 207.603 358.362 207.551 361.96C207.502 365.41 207.445 368.67 207.392 371.613C207.235 380.207 207.103 386.094 207.103 386.094C207.103 386.163 207.047 386.219 206.978 386.219C206.909 386.219 206.853 386.163 206.853 386.094C206.853 386.094 206.721 380.207 206.565 371.613C206.511 368.67 206.454 365.41 206.405 361.96C206.353 358.362 206.301 354.56 206.268 350.697C206.255 349.095 206.246 347.483 206.245 345.87C206.244 343.716 206.253 341.563 206.269 339.434C206.293 336.126 206.333 332.877 206.377 329.781C206.412 327.248 206.454 324.818 206.497 322.54C206.684 312.655 206.853 305.646 206.853 305.646Z" fill="#D29D41"/>
<path fill-rule="evenodd" clip-rule="evenodd" d="M248.17 305.646C248.17 305.576 248.227 305.521 248.296 305.521C248.365 305.521 248.421 305.578 248.421 305.647C248.421 305.647 248.557 312.656 248.697 322.543C248.73 324.821 248.761 327.251 248.784 329.783C248.813 332.88 248.838 336.129 248.847 339.438C248.853 341.566 248.852 343.72 248.841 345.873C248.832 347.486 248.816 349.098 248.795 350.7C248.745 354.563 248.674 358.365 248.606 361.962C248.541 365.412 248.469 368.672 248.401 371.615C248.205 380.208 248.046 386.095 248.046 386.095C248.046 386.164 247.989 386.22 247.92 386.219C247.851 386.219 247.795 386.163 247.795 386.094C247.795 386.094 247.691 380.206 247.575 371.611C247.535 368.667 247.493 365.407 247.46 361.957C247.425 358.359 247.39 354.557 247.376 350.694C247.37 349.092 247.368 347.479 247.375 345.867C247.384 343.713 247.403 341.56 247.429 339.431C247.469 336.122 247.524 332.874 247.581 329.778C247.628 327.245 247.682 324.816 247.736 322.538C247.968 312.653 248.17 305.646 248.17 305.646Z" fill="#D29D41"/>
<path fill-rule="evenodd" clip-rule="evenodd" d="M62.2094 374.496C62.2094 374.566 62.1532 374.622 62.0841 374.622C62.0151 374.622 61.9588 374.566 61.9588 374.496C61.9588 374.496 61.747 350.976 61.6043 330.61C61.4953 315.062 61.4307 301.352 61.4307 301.352C61.4307 300.991 61.7234 300.699 62.0841 300.699C62.0841 300.699 73.3405 300.638 89.3894 300.62C92.8308 300.616 96.493 300.619 100.311 300.627C105.534 300.638 111.049 300.658 116.695 300.684C130.357 300.746 144.78 300.83 157.653 300.916C180.596 301.068 198.61 301.227 198.61 301.227C198.68 301.227 198.736 301.283 198.736 301.352C198.736 301.421 198.68 301.477 198.61 301.477C198.61 301.477 180.596 301.636 157.653 301.788C144.78 301.874 130.357 301.958 116.695 302.021C111.049 302.046 105.534 302.066 100.312 302.077C96.4931 302.085 92.831 302.088 89.3896 302.084C75.5981 302.068 65.3457 302.021 62.7345 302.008C62.7203 304.913 62.6591 317.063 62.5641 330.61C62.4214 350.976 62.2094 374.496 62.2094 374.496Z" fill="#D29D41"/>
<path fill-rule="evenodd" clip-rule="evenodd" d="M137.941 390.185C130.988 390.185 127.526 380.248 130.402 376.772C133.279 373.296 131.481 369.83 136.995 368.806C142.509 367.782 219.343 368.861 231.329 367.782C243.316 366.703 253.029 382.547 240.923 389.982C226.211 389.982 151.906 390.185 137.941 390.185Z" fill="#BE4F40"/>
<path fill-rule="evenodd" clip-rule="evenodd" d="M145.717 368.829C138.765 368.829 136.247 359.123 139.124 355.647C142.001 352.171 140.831 346.604 151.14 348.363C156.668 349.306 228.065 347.736 240.051 346.657C252.038 345.578 266.48 366.749 249.07 368.316C246.31 368.564 241.401 368.755 237.151 368.829C228.168 367.445 181.758 367.876 145.717 368.829Z" fill="#D26E61"/>
<path fill-rule="evenodd" clip-rule="evenodd" d="M133.74 373.87C133.687 373.781 133.717 373.666 133.806 373.614C133.894 373.561 134.009 373.591 134.062 373.68C134.062 373.68 135.046 374.987 136.106 376.478C136.391 376.879 136.676 377.291 136.948 377.697C137.352 378.3 137.73 378.875 138.022 379.352C138.433 380.023 138.679 380.49 138.679 380.49C138.829 380.745 138.804 381.067 138.615 381.295C138.615 381.295 137.795 382.206 136.826 383.21C135.551 384.531 134.044 386 134.044 386C133.979 386.08 133.861 386.09 133.781 386.025C133.702 385.959 133.691 385.841 133.757 385.762C133.757 385.762 134.921 384.009 135.983 382.511C136.469 381.826 136.931 381.201 137.223 380.811C137.107 380.623 136.958 380.373 136.791 380.079C136.514 379.593 136.194 378.983 135.861 378.338C135.637 377.904 135.415 377.455 135.201 377.012C134.408 375.363 133.74 373.87 133.74 373.87Z" fill="#97392B"/>
<path fill-rule="evenodd" clip-rule="evenodd" d="M142.46 352.745C142.408 352.656 142.438 352.542 142.526 352.489C142.615 352.437 142.73 352.466 142.782 352.555C142.782 352.555 143.767 353.862 144.827 355.353C145.111 355.755 145.397 356.167 145.669 356.573C146.073 357.176 146.451 357.75 146.743 358.227C147.154 358.898 147.4 359.365 147.4 359.365C147.55 359.62 147.525 359.942 147.336 360.17C147.336 360.17 146.516 361.081 145.547 362.085C144.272 363.407 142.765 364.876 142.765 364.876C142.7 364.955 142.582 364.966 142.502 364.9C142.423 364.835 142.412 364.717 142.478 364.637C142.478 364.637 143.642 362.884 144.704 361.386C145.19 360.702 145.652 360.077 145.944 359.687C145.828 359.498 145.679 359.248 145.512 358.954C145.235 358.468 144.915 357.859 144.582 357.214C144.358 356.779 144.136 356.331 143.922 355.887C143.129 354.239 142.46 352.745 142.46 352.745Z" fill="#B84534"/>
<path fill-rule="evenodd" clip-rule="evenodd" d="M241.816 373.68C241.868 373.591 241.982 373.561 242.071 373.614C242.16 373.666 242.19 373.781 242.137 373.87C242.137 373.87 241.469 375.363 240.676 377.012C240.462 377.455 240.239 377.904 240.015 378.338C239.683 378.983 239.362 379.593 239.086 380.079C238.919 380.373 238.77 380.623 238.654 380.811C238.945 381.201 239.408 381.826 239.893 382.511C240.956 384.009 242.12 385.762 242.12 385.762C242.186 385.841 242.175 385.959 242.095 386.025C242.016 386.09 241.898 386.079 241.832 386C241.832 386 240.326 384.531 239.051 383.21C238.082 382.206 237.262 381.295 237.262 381.295C237.073 381.067 237.048 380.745 237.198 380.49C237.198 380.49 237.443 380.023 237.855 379.352C238.147 378.875 238.525 378.3 238.929 377.697C239.201 377.291 239.486 376.879 239.771 376.478C240.831 374.987 241.816 373.68 241.816 373.68Z" fill="#97392B"/>
<path fill-rule="evenodd" clip-rule="evenodd" d="M250.536 352.555C250.589 352.466 250.703 352.437 250.792 352.489C250.881 352.542 250.91 352.656 250.858 352.745C250.858 352.745 250.19 354.239 249.397 355.887C249.183 356.331 248.96 356.779 248.736 357.214C248.404 357.859 248.083 358.468 247.807 358.954C247.64 359.249 247.491 359.498 247.375 359.687C247.666 360.076 248.129 360.702 248.614 361.386C249.677 362.884 250.841 364.637 250.841 364.637C250.907 364.717 250.896 364.834 250.816 364.9C250.737 364.966 250.619 364.955 250.553 364.876C250.553 364.876 249.047 363.407 247.772 362.085C246.803 361.081 245.983 360.17 245.983 360.17C245.794 359.942 245.769 359.62 245.919 359.365C245.919 359.365 246.165 358.898 246.576 358.227C246.868 357.75 247.246 357.176 247.65 356.573C247.922 356.167 248.207 355.755 248.492 355.353C249.552 353.862 250.536 352.555 250.536 352.555Z" fill="#B84534"/>
<path fill-rule="evenodd" clip-rule="evenodd" d="M138.074 381.034C137.971 381.034 137.888 380.95 137.888 380.847C137.888 380.744 137.971 380.66 138.074 380.66C138.074 380.66 142.734 380.579 150.042 380.476C155.013 380.406 161.207 380.317 167.993 380.247C171.832 380.207 175.859 380.175 179.96 380.152C182.599 380.138 185.269 380.126 187.939 380.128C190.608 380.129 193.278 380.142 195.917 380.159C200.018 380.185 204.046 380.224 207.884 380.264C212.161 380.308 216.203 380.357 219.852 380.404C230.503 380.542 237.803 380.659 237.803 380.659C237.906 380.659 237.99 380.743 237.99 380.846C237.99 380.95 237.906 381.033 237.803 381.033C237.803 381.033 230.503 381.151 219.852 381.289C216.203 381.336 212.161 381.385 207.884 381.429C204.046 381.468 200.019 381.508 195.917 381.534C193.278 381.551 190.609 381.564 187.939 381.565C185.269 381.566 182.6 381.555 179.96 381.54C175.859 381.518 171.832 381.486 167.993 381.446C161.207 381.376 155.013 381.286 150.042 381.216C142.734 381.114 138.074 381.034 138.074 381.034Z" fill="#97392B"/>
<path fill-rule="evenodd" clip-rule="evenodd" d="M146.795 359.909C146.692 359.909 146.608 359.826 146.608 359.723C146.608 359.619 146.692 359.536 146.795 359.536C146.795 359.536 151.455 359.455 158.763 359.352C163.734 359.282 169.928 359.193 176.714 359.123C180.553 359.083 184.58 359.051 188.681 359.028C191.32 359.014 193.99 359.002 196.66 359.003C199.329 359.004 201.999 359.017 204.638 359.034C208.739 359.06 212.766 359.1 216.605 359.139C220.882 359.183 224.923 359.232 228.573 359.28C239.224 359.418 246.524 359.535 246.524 359.535C246.627 359.535 246.711 359.619 246.711 359.722C246.711 359.825 246.627 359.909 246.524 359.909C246.524 359.909 239.224 360.026 228.573 360.165C224.923 360.212 220.882 360.261 216.605 360.305C212.766 360.344 208.739 360.384 204.638 360.41C201.999 360.427 199.329 360.44 196.66 360.441C193.99 360.442 191.32 360.431 188.681 360.416C184.58 360.394 180.553 360.361 176.714 360.322C169.928 360.251 163.734 360.162 158.763 360.092C151.455 359.99 146.795 359.909 146.795 359.909Z" fill="#B84534"/>
<path fill-rule="evenodd" clip-rule="evenodd" d="M144.713 368.642C144.61 368.644 144.524 368.563 144.522 368.459C144.52 368.356 144.602 368.271 144.705 368.269C144.705 368.269 152.996 367.943 164.635 367.617C168.724 367.503 173.225 367.388 177.925 367.298C181.533 367.228 185.258 367.167 189.003 367.138C192.708 367.109 196.433 367.111 200.082 367.132C206.666 367.17 213.005 367.277 218.549 367.431C227.663 367.683 234.627 368.092 237.004 368.647C237.104 368.669 237.169 368.769 237.147 368.869C237.125 368.97 237.025 369.034 236.924 369.012C234.544 368.533 227.607 368.376 218.536 368.366C214.04 368.362 209.022 368.396 203.775 368.445C200.876 368.471 197.907 368.503 194.918 368.529C192.953 368.546 190.98 368.561 189.013 368.571C185.423 368.589 181.851 368.597 178.382 368.607C175.959 368.613 173.587 368.617 171.295 368.616C156.295 368.616 144.713 368.642 144.713 368.642Z" fill="#B84534"/>
<path fill-rule="evenodd" clip-rule="evenodd" d="M336.524 114.299C323.647 116.581 318.102 117.815 307.582 121.697C298.806 124.935 276.357 135.544 264.237 140.919C266.423 151.582 269.084 162.949 270.519 171.561C280.629 169.462 298.889 165.672 305.656 164.267C305.32 171.774 309.704 216.623 309.089 228.722C308.474 240.82 303.1 265.016 305.062 270.348C310.104 277.722 392.137 278.55 399.314 270.348C401.008 264.607 399.314 248.612 399.314 244.511C399.314 240.41 402.39 198.784 404.638 180.599C407.829 187.07 410.537 193.803 411.852 196.469C417.28 193.907 437.072 184.568 440.968 182.73C436.475 171.059 418.179 129.68 409.977 126.194C401.774 122.708 388.74 117.862 374.674 114.299C367.964 114.299 345.428 114.299 336.524 114.299Z" fill="#F15D22"/>
<path fill-rule="evenodd" clip-rule="evenodd" d="M401.033 219.12C401.023 219.041 400.956 218.976 400.946 218.898C400.946 218.895 401.057 216.421 401.113 215.324C401.236 212.908 401.89 199.524 403.126 187.948C403.628 183.252 404.328 178.257 404.446 177.416C406.11 165.546 407.823 157.554 407.83 157.549C407.868 157.523 407.907 157.497 407.945 157.471C407.961 157.514 408.007 157.543 408.023 157.586C408.024 157.588 407.699 159.523 407.173 163.53C406.937 165.332 406.55 168.127 405.563 177.006L403.498 195.955C403.244 198.28 402.281 206.967 401.486 215.352L401.181 218.561C401.149 218.905 401.15 218.905 401.148 218.912C401.117 219.028 401.064 219.003 401.033 219.12Z" fill="#C03521"/>
<path fill-rule="evenodd" clip-rule="evenodd" d="M305.916 252.732C306.799 245.258 308.713 236.205 308.61 229.922C308.441 219.565 307.622 208.43 306.951 197.694C305.803 179.314 304.74 161.385 305.871 151.178C305.891 150.997 305.916 150.791 305.916 150.791C305.941 150.752 305.998 150.742 306.023 150.703C306.041 150.774 306.086 150.836 306.103 150.907C306.116 150.961 305.798 153.519 305.869 159.318C305.976 168.055 306.771 178.06 307.794 192.073C308.258 198.43 308.822 206.239 309.205 216.611C309.232 217.341 309.385 221.907 309.418 225.834C309.426 226.773 309.44 229.599 309.406 230.689C309.208 236.983 307.158 245.716 306.139 252.57C306.111 252.757 306.112 252.757 306.111 252.758C306.022 252.822 306.005 252.668 305.916 252.732Z" fill="#C03521"/>
<path fill-rule="evenodd" clip-rule="evenodd" d="M376.333 133.68C377.253 131.316 378.429 127.792 378.791 123.461C378.913 122.005 379.064 119.496 378.632 115.651C378.624 115.58 378.619 115.578 378.624 115.575C378.712 115.525 378.73 115.596 378.819 115.545C379.854 121.059 379.861 126.259 378.166 132.012C378.097 132.244 377.703 133.582 377.193 134.876C377.185 134.896 377.111 135.084 377.083 135.13C376.901 135.427 376.602 135.427 376.554 135.427C376.521 135.427 376.334 135.428 376.163 135.29C375.938 135.108 374.593 133.249 370.842 131.874C370.205 131.641 366.637 130.273 360.317 130.111C359.98 130.102 357.855 130.048 356.101 130.184C356.088 130.185 356.072 130.194 356.06 130.187C355.998 130.154 356.012 130.135 355.95 130.102C355.984 130.071 356.001 130.023 356.036 129.992C356.038 129.99 358.171 129.653 360.842 129.575C370.562 129.29 374.688 132.122 376.333 133.68Z" fill="#C03521"/>
<path fill-rule="evenodd" clip-rule="evenodd" d="M335.729 133.709C336.593 132.882 337.996 131.826 340.371 130.952C342.057 130.332 343.853 130.032 344.162 129.98C344.443 129.933 348.54 129.163 354.304 129.837C355.012 129.92 355.445 129.992 355.445 129.993C355.561 130.1 355.576 130.201 355.42 130.188C353.584 130.036 348.312 129.881 343.536 131.118C341.858 131.552 338.73 132.499 336.471 134.732C335.994 135.204 335.998 135.264 335.85 135.348C335.587 135.497 335.165 135.453 334.974 135.064C334.851 134.812 334.557 134.105 334.522 134.021C331.95 127.837 331.36 122.361 332.574 115.313C332.631 115.344 332.711 115.308 332.769 115.339C332.786 115.349 332.403 118.326 332.602 121.688C332.809 125.189 333.559 128.59 335.225 132.539C335.484 133.154 335.57 133.355 335.729 133.709Z" fill="#C03521"/>
<path fill-rule="evenodd" clip-rule="evenodd" d="M354.925 155.615C354.917 155.556 354.831 155.528 354.824 155.469C354.821 155.448 354.658 152.764 354.563 151.015C354.273 145.687 354.296 143.442 354.303 142.783C354.306 142.46 354.32 141.06 354.42 138.741C354.526 136.273 354.821 131.725 354.826 131.717C354.835 131.704 354.998 131.476 355.023 131.717C355.039 131.876 355.327 136.339 355.43 138.741C355.449 139.188 355.575 142.123 355.545 144.329C355.52 146.114 355.401 148.693 355.384 149.072C355.284 151.228 355.036 155.39 355.026 155.469C355.019 155.528 354.932 155.556 354.925 155.615Z" fill="#C03521"/>
<path fill-rule="evenodd" clip-rule="evenodd" d="M357.791 131.091C358.691 131.091 359.423 131.822 359.423 132.723C359.423 133.623 358.691 134.355 357.791 134.355C356.89 134.355 356.158 133.623 356.158 132.723C356.158 131.822 356.89 131.091 357.791 131.091Z" fill="#B12C19"/>
<path fill-rule="evenodd" clip-rule="evenodd" d="M357.791 146.362C358.691 146.362 359.423 147.094 359.423 147.995C359.423 148.895 358.691 149.627 357.791 149.627C356.89 149.627 356.158 148.895 356.158 147.995C356.158 147.094 356.89 146.362 357.791 146.362Z" fill="#B12C19"/>
<path fill-rule="evenodd" clip-rule="evenodd" d="M326.186 234.874C336.678 240.487 342.385 270.077 370.273 265.257C364.043 269.806 335.7 270.191 326.186 234.874Z" fill="#DD412B"/>
<path fill-rule="evenodd" clip-rule="evenodd" d="M373.625 158.934C373.655 158.526 373.861 158.152 374.189 157.907C374.517 157.664 374.933 157.574 375.331 157.661C379.254 158.464 384.548 158.836 388.334 158.653C388.74 158.627 389.138 158.779 389.424 159.069C389.711 159.36 389.858 159.761 389.826 160.169C389.604 162.994 389.052 170.008 388.895 172.005C388.858 172.465 388.599 172.878 388.201 173.111L381.184 177.215C380.677 177.511 380.04 177.463 379.584 177.093L373.27 171.973C372.912 171.682 372.718 171.234 372.752 170.774L373.625 158.934ZM374.374 158.99L373.502 170.83C373.486 171.044 373.576 171.253 373.743 171.389L380.058 176.51C380.27 176.682 380.567 176.705 380.804 176.567L387.822 172.462C388.007 172.354 388.128 172.161 388.145 171.946C388.302 169.949 388.855 162.935 389.076 160.11C389.091 159.92 389.023 159.732 388.889 159.597C388.755 159.461 388.569 159.39 388.378 159.403C388.376 159.403 388.374 159.403 388.372 159.403C384.531 159.589 379.158 159.212 375.178 158.397C375.176 158.397 375.174 158.396 375.173 158.396C374.986 158.355 374.791 158.396 374.638 158.51C374.485 158.624 374.388 158.799 374.374 158.99Z" fill="#C03521"/>
<path fill-rule="evenodd" clip-rule="evenodd" d="M367.547 247.312C367.507 247.336 367.494 247.393 367.454 247.416C367.448 247.42 365.997 247.548 364.501 247.516C360.07 247.424 354.169 246.323 347.295 242.134C344.189 240.24 339.011 236.605 332.941 229.099C332.905 229.055 330.667 226.308 328.507 223.017C326.939 220.629 326.101 219.069 326.101 219.069C326.108 219.023 326.129 218.98 326.136 218.934C326.181 218.962 326.239 218.963 326.284 218.991C326.304 219.004 327.158 220.452 329.256 223.231C329.69 223.806 333.297 228.677 338.404 233.533C339.23 234.319 344.122 239.035 349.902 242.375C352.465 243.857 357.707 246.633 364.381 247.143C366.258 247.286 367.419 247.212 367.443 247.22C367.487 247.235 367.503 247.297 367.547 247.312Z" fill="#DD412B"/>
<path fill-rule="evenodd" clip-rule="evenodd" d="M303.143 281.011C295.805 297.241 264.237 370.53 264.237 388.37C264.237 406.21 284.483 480.94 291.25 508.417C303.104 509.578 320.572 508.827 330.005 503.701C326.515 486.795 307.816 398.173 307.096 394.687C306.377 391.202 333.901 346.804 343.374 330.4C347.035 356.22 348.235 378.293 348.235 391.622C348.235 404.95 343.374 498.165 343.374 508.417C349.444 512.723 368.146 516.825 381.885 510.263C384.431 477.224 388.729 423.64 392.957 399.238C397.186 374.837 403.633 319.05 399.32 280.96C385.123 280.96 321.095 281.011 303.143 281.011Z" fill="#5C322C"/>
<path fill-rule="evenodd" clip-rule="evenodd" d="M347.254 419.377C347.077 419.372 347.07 419.365 346.949 419.237C346.87 419.153 346.843 419.03 346.818 418.918C346.816 418.91 346.84 416.584 346.846 412.895C346.846 412.862 346.896 404.243 346.693 393.248C346.426 378.773 345.847 368.353 345.619 364.201C345.586 363.598 345.195 356.472 344.731 350.566C344.633 349.317 344.34 345.747 344.02 342.562C342.474 327.208 340.541 319.354 339.523 315.666C337.705 309.077 336.172 306.993 336.171 306.989C336.14 306.879 336.067 306.772 336.081 306.658C336.081 306.656 336.248 306.36 336.249 306.36C336.612 306.259 336.68 306.179 336.909 306.478C336.988 306.581 339.438 309.749 342.113 319.958C344.076 327.451 345.185 334.845 345.599 337.671C346.381 343.003 346.875 347.949 346.965 348.846C347.071 349.906 347.607 355.153 347.987 361.752C348.259 366.461 348.377 370.847 348.399 371.638C348.514 375.853 348.603 380.474 348.58 387.696C348.559 394.269 348.381 400.861 348.35 402.005C348.142 409.695 347.88 415.529 347.714 418.941C347.706 419.121 347.702 419.129 347.571 419.254C347.441 419.377 347.433 419.382 347.254 419.377Z" fill="#815049"/>
<path fill-rule="evenodd" clip-rule="evenodd" d="M398.532 304.933C398.476 304.974 398.439 305.038 398.382 305.079C398.382 305.079 398.175 305.098 397.914 305.104C395.142 305.17 393.211 303.724 392.364 303.011C392 302.705 391.295 302.038 390.688 301.263C389.325 299.521 388.714 298.056 388.33 297.056C388.266 296.89 387.932 295.961 387.721 295.188C387.347 293.826 387.014 292.333 386.764 289.939C386.738 289.698 386.595 288.326 386.59 286.911C386.589 286.799 386.652 286.835 386.723 286.749C386.77 286.8 386.836 286.831 386.884 286.881C386.885 286.882 387.049 287.708 387.421 289.029C387.56 289.528 387.81 290.476 388.311 291.926C388.43 292.27 388.415 292.275 388.925 293.657C388.972 293.786 389.148 294.264 389.553 295.256C389.716 295.657 390.96 298.597 392.009 300.259C392.348 300.795 393.198 302.139 394.492 303.164C394.963 303.537 396.215 304.524 398.33 304.777C398.349 304.779 398.372 304.772 398.387 304.783C398.47 304.848 398.449 304.869 398.532 304.933Z" fill="#815049"/>
<path fill-rule="evenodd" clip-rule="evenodd" d="M399.314 270.348C399.947 273.95 399.519 279.166 399.314 281.011C393.853 283.378 351.946 291.674 303.143 281.011C303.136 277.054 303.291 274.244 305.063 270.348C309.23 271.075 346.335 281.693 399.314 270.348Z" fill="#4C3C3B"/>
<path fill-rule="evenodd" clip-rule="evenodd" d="M397.456 270.799C388.162 272.945 369.58 276.615 346.98 276.125C325.677 275.664 310.267 271.817 306.707 270.763C306.697 270.761 306.684 270.762 306.678 270.755C306.651 270.723 306.665 270.714 306.638 270.682C306.673 270.68 306.704 270.651 306.739 270.649C306.742 270.649 310.577 271.729 317.648 272.881C334.769 275.67 350.404 275.46 355.008 275.389C373.056 275.113 387.482 272.772 397.265 270.718C397.418 270.686 397.418 270.678 397.43 270.684C397.495 270.71 397.392 270.772 397.456 270.799Z" fill="#8A6D6B"/>
<path fill-rule="evenodd" clip-rule="evenodd" d="M398.366 281.424C390.926 283.19 375.138 286.518 354.207 286.778C340.669 286.946 326.372 285.677 313.678 283.348C308.042 282.314 304.372 281.345 304.362 281.334C304.343 281.313 304.339 281.282 304.32 281.262C304.356 281.26 304.387 281.23 304.424 281.228C304.433 281.227 323.1 285.932 350.925 286.039C361.316 286.079 378.44 285.626 398.168 281.346C398.326 281.311 398.326 281.303 398.339 281.308C398.404 281.334 398.301 281.398 398.366 281.424Z" fill="#8A6D6B"/>
<path fill-rule="evenodd" clip-rule="evenodd" d="M353.603 275.144C356.794 275.213 359.325 277.857 359.255 281.048C359.253 281.144 359.251 281.241 359.249 281.337C359.179 284.529 356.536 287.059 353.345 286.99C350.297 286.923 346.57 286.842 343.522 286.776C340.331 286.706 337.8 284.063 337.87 280.872C337.872 280.775 337.874 280.679 337.876 280.582C337.946 277.391 340.589 274.861 343.78 274.93C346.828 274.996 350.556 275.077 353.603 275.144Z" fill="#B6A486"/>
<path fill-rule="evenodd" clip-rule="evenodd" d="M355.599 128.244C355.599 128.244 343.152 124.578 336.524 114.298C338.302 110.891 340.892 97.2645 340.443 91.0034H370.755C370.306 97.2647 372.896 110.891 374.674 114.298C369.077 123.45 355.599 128.244 355.599 128.244Z" fill="#FADCD6"/>
<path fill-rule="evenodd" clip-rule="evenodd" d="M340.269 100.716C349.311 116.549 361.142 115.933 370.929 100.716C364.201 100.716 345.542 100.716 340.269 100.716Z" fill="#F29A89"/>
<path fill-rule="evenodd" clip-rule="evenodd" d="M383.93 68.8654H327.268C327.268 68.8654 325.022 63.431 323.982 53.3993C329.684 43.4082 343.704 38.427 355.599 38.6352C367.494 38.4272 381.514 43.4084 387.216 53.3993C386.176 63.4312 383.93 68.8654 383.93 68.8654Z" fill="#62413F"/>
<path fill-rule="evenodd" clip-rule="evenodd" d="M355.599 41.0956C360.17 40.7487 369.44 42.5527 377.658 48.5889C377.658 58.9958 382.2 65.7042 383.082 67.2C385.444 65.2914 391.067 64.4942 390.202 70.9466C389.062 79.4504 385.66 80.521 382.2 78.4398C381.615 83.4968 375.28 106.922 355.599 106.539C335.919 106.922 329.583 83.4968 328.998 78.4398C325.538 80.521 322.136 79.4504 320.996 70.9466C320.131 64.4942 325.754 65.2916 328.116 67.2C328.998 65.7042 333.54 58.9958 333.54 48.5889C341.758 42.5527 351.028 40.7487 355.599 41.0956Z" fill="#FADCD6"/>
<path fill-rule="evenodd" clip-rule="evenodd" d="M328.133 71.3628C327.254 70.515 325.105 68.865 324.24 70.1139C323.375 71.3628 324.673 76.1499 328.349 74.901C327.844 73.7262 326.713 72.8371 328.133 71.3628Z" fill="#F29989"/>
<path fill-rule="evenodd" clip-rule="evenodd" d="M345.015 68.8701C345.92 68.8701 346.655 69.743 346.655 70.8182C346.655 71.8932 345.92 72.7663 345.015 72.7663C344.109 72.7663 343.374 71.8932 343.374 70.8182C343.374 69.743 344.109 68.8701 345.015 68.8701Z" fill="#62413F"/>
<path fill-rule="evenodd" clip-rule="evenodd" d="M348.148 66.7845C348.116 66.7879 348.09 66.8128 348.058 66.8162C348.051 66.817 347.347 66.6397 346.39 66.5966C345.688 66.5648 345.687 66.5867 344.349 66.5955C342.926 66.605 342.127 66.7479 341.936 66.7818C341.769 66.8118 341.77 66.8216 341.756 66.8184C341.729 66.8122 341.706 66.7911 341.679 66.7849C341.697 66.76 341.704 66.7284 341.722 66.7036C341.726 66.6971 342.091 66.5084 342.36 66.4C344.204 65.6566 345.314 65.8413 345.885 65.9311C346.05 65.957 346.586 66.0732 346.996 66.2183C347.565 66.4201 347.908 66.6004 348.038 66.6688C348.096 66.6993 348.097 66.6981 348.101 66.7021C348.134 66.7373 348.115 66.7495 348.148 66.7845Z" fill="#EB9585"/>
<path fill-rule="evenodd" clip-rule="evenodd" d="M350.551 60.4881C351.016 58.8622 347.886 58.4376 344.4 58.8478C340.932 59.2557 337.975 60.0782 338.248 60.8984C338.507 61.6766 341.943 61.2359 344.195 61.1034C347.681 60.8982 350.141 61.9235 350.551 60.4881Z" fill="#62413F"/>
<path fill-rule="evenodd" clip-rule="evenodd" d="M366.183 68.8701C365.278 68.8701 364.542 69.743 364.542 70.8182C364.542 71.8932 365.278 72.7663 366.183 72.7663C367.088 72.7663 367.824 71.8932 367.824 70.8182C367.824 69.743 367.088 68.8701 366.183 68.8701Z" fill="#62413F"/>
<path fill-rule="evenodd" clip-rule="evenodd" d="M363.051 66.7844C363.072 66.7616 363.076 66.725 363.098 66.7019C363.098 66.7011 363.89 66.2541 364.873 66.0232C365.968 65.766 366.831 65.7684 368.084 66.1302C368.095 66.1336 368.577 66.2824 368.97 66.4558C369.262 66.5841 369.484 66.7059 369.486 66.7082C369.502 66.7308 369.503 66.762 369.519 66.7846C369.489 66.7877 369.464 66.8131 369.433 66.8162C369.428 66.8166 369.244 66.7682 368.827 66.716C368.73 66.7039 368.357 66.6427 367.421 66.608C366.959 66.5907 366.404 66.5989 365.78 66.5823C364.963 66.5604 364.273 66.6349 364.143 66.6487C363.601 66.7072 363.145 66.8166 363.14 66.816C363.109 66.8127 363.082 66.7879 363.051 66.7844Z" fill="#EB9585"/>
<path fill-rule="evenodd" clip-rule="evenodd" d="M360.646 60.4881C360.182 58.8622 363.312 58.4376 366.798 58.8478C370.266 59.2557 373.223 60.0782 372.95 60.8984C372.691 61.6766 369.255 61.2359 367.003 61.1034C363.517 60.8982 361.057 61.9235 360.646 60.4881Z" fill="#62413F"/>
<path fill-rule="evenodd" clip-rule="evenodd" d="M383.065 71.3628C383.944 70.515 386.093 68.865 386.958 70.1139C387.823 71.3628 386.526 76.1499 382.849 74.901C383.354 73.7262 384.485 72.8371 383.065 71.3628Z" fill="#F29989"/>
<path fill-rule="evenodd" clip-rule="evenodd" d="M358.194 82.6901C357.945 82.7631 354.648 83.8424 352.863 82.3243C351.599 81.2487 351.816 79.3401 353.479 78.4217C353.783 78.254 355.982 77.1782 356.766 73.8172C356.87 73.372 356.915 73.014 356.93 72.8343C356.931 72.8193 356.925 72.8022 356.934 72.7894C356.955 72.753 356.971 72.7671 356.993 72.731C357.008 72.7579 357.037 72.7755 357.052 72.8024C357.052 72.8028 357.065 73.0688 357.037 73.4677C356.967 74.4558 356.597 77.1417 354.276 78.7782C353.801 79.1127 353.474 79.2126 353.103 79.7195C352.571 80.4456 352.574 81.5763 353.818 82.2653C355.478 83.1849 358.155 82.5632 358.166 82.575C358.194 82.6037 358.167 82.6615 358.194 82.6901Z" fill="#EB9585"/>
<path fill-rule="evenodd" clip-rule="evenodd" d="M362.03 89.9269C362.064 89.9952 362.062 89.9992 362.038 90.0718C362.032 90.0907 362.018 90.1303 361.869 90.2511C361.765 90.3342 361.047 90.9399 359.834 91.5963C359.685 91.677 359.07 91.9782 358.6 92.1508C357.717 92.4748 357.254 92.5567 357.068 92.5949C356.401 92.731 355.748 92.8228 354.815 92.7168C354.811 92.7164 354.567 92.6995 353.958 92.5676C353.934 92.5624 353.582 92.5023 352.825 92.2367C352.59 92.1544 352.047 91.9308 351.66 91.723C350.72 91.2183 350.19 90.8016 350.071 90.7084C349.545 90.2957 349.254 89.9921 349.237 89.9749C349.181 89.9195 349.169 89.9245 349.153 89.8472C349.153 89.845 349.181 89.7007 349.182 89.7003C349.224 89.6718 349.258 89.6258 349.308 89.6157C349.353 89.6065 349.353 89.6201 349.665 89.7117C349.775 89.744 350.205 89.8701 351.063 90.017C351.289 90.0558 351.552 90.1058 352.561 90.1867C352.629 90.1921 352.827 90.208 353.403 90.2338C353.467 90.2369 353.466 90.2351 354.196 90.2537C354.262 90.2553 354.307 90.2565 355.03 90.2567C356.217 90.2569 356.529 90.3208 357.242 90.3182C357.272 90.3182 357.79 90.3386 358.651 90.2955C358.81 90.2877 359.599 90.2369 360.298 90.1297C360.866 90.0425 361.571 89.887 361.766 89.8394C361.839 89.8217 361.837 89.7918 361.909 89.8157C361.992 89.8424 361.991 89.8494 362.03 89.9269Z" fill="#EC8977"/>
<path fill-rule="evenodd" clip-rule="evenodd" d="M323.983 53.3989C322.213 45.8119 323.983 21 355.599 21C384.55 21 388.478 45.1737 387.216 53.3989C374.092 44.494 336.977 44.5815 323.983 53.3989Z" fill="#62413F"/>
<path fill-rule="evenodd" clip-rule="evenodd" d="M264.161 140.918C249.624 147.109 237.578 154.465 231.809 159.02C224.017 165.172 217.531 183.404 236.91 183.404C250.663 183.404 301.298 181.969 303.348 183.404C305.398 184.84 303.758 197.963 309.705 203.089C315.651 208.216 312.37 221.134 315.651 221.339C316.167 223.8 317.343 225.031 318.112 224.415C318.112 225.851 319.776 228.675 320.573 227.081C322.213 223.8 322.623 213.342 322.623 204.115C322.623 193.403 320.368 175.99 309.705 172.536C299.042 169.083 277.065 162.793 268.474 160.876C267.439 155.104 265.724 148.176 264.161 140.918Z" fill="#FADCD6"/>
<path fill-rule="evenodd" clip-rule="evenodd" d="M268.531 160.89C268.504 160.897 268.485 160.925 268.458 160.932C268.458 160.932 264.698 160.062 260.613 159.26C260.146 159.168 258.101 158.767 254.76 158.178C252.451 157.772 246.694 156.768 244.093 157.397C243.656 157.503 243.508 157.613 243.508 157.613C243.481 157.614 243.454 157.603 243.426 157.604C243.432 157.575 243.432 157.546 243.438 157.518C243.438 157.515 244.663 156.455 250.814 156.95C254.324 157.232 257.496 157.924 258.07 158.05C259.17 158.29 262.079 158.921 267.142 160.413C267.461 160.507 268.487 160.816 268.489 160.818C268.508 160.838 268.511 160.871 268.531 160.89Z" fill="#EB9585"/>
<path fill-rule="evenodd" clip-rule="evenodd" d="M296.52 182.84C296.456 182.845 296.401 182.898 296.337 182.903C296.334 182.903 281.316 183.244 278.531 183.306C266.395 183.576 262.105 183.619 260.677 183.634C239.349 183.849 234.788 183.465 232.274 183.122C231.21 182.977 230.554 182.825 230.241 182.749C230.196 182.739 230.22 182.717 230.196 182.679C230.223 182.673 230.239 182.64 230.266 182.634C230.307 182.625 231.338 182.931 234.088 183.092C240.218 183.451 252.41 182.945 266.368 182.817C277.053 182.72 289.533 182.757 292.803 182.767C293.075 182.767 296.331 182.781 296.335 182.781C296.4 182.785 296.455 182.837 296.52 182.84Z" fill="#EB9585"/>
<path fill-rule="evenodd" clip-rule="evenodd" d="M315.593 221.334C315.615 221.318 315.634 221.297 315.657 221.281C315.676 221.267 315.952 221.379 316.156 220.412C316.613 218.248 316.317 213.17 316.224 209.202C316.155 206.299 316.08 201.629 316.005 199.058C316.003 198.993 316.002 198.994 316.003 198.993C316.019 198.953 316.041 198.969 316.057 198.93C316.068 198.967 316.114 198.988 316.125 199.025C316.128 199.034 316.315 200.746 316.378 201.391C316.788 205.601 317.04 208.961 317.021 212.329C317.017 213.087 317.001 220.729 315.856 221.357C315.793 221.392 315.726 221.406 315.66 221.4C315.655 221.4 315.649 221.402 315.646 221.399C315.616 221.369 315.623 221.364 315.593 221.334Z" fill="#EB9585"/>
<path fill-rule="evenodd" clip-rule="evenodd" d="M318.062 224.446C318.07 224.419 318.073 224.391 318.081 224.365C318.09 224.339 318.315 224.31 318.519 223.209C318.998 220.61 318.929 215.16 319.022 210.432C319.079 207.497 319.234 201.842 319.283 199.059C319.284 198.99 319.284 198.99 319.284 198.989C319.301 198.95 319.324 198.968 319.342 198.929C319.351 198.969 319.396 198.994 319.405 199.034C319.409 199.052 319.716 204.485 319.753 208.71C319.767 210.369 319.801 213.08 319.474 217.55C319.255 220.54 318.976 222.034 318.904 222.419C318.737 223.316 318.496 224.25 318.155 224.459C318.151 224.461 318.148 224.466 318.143 224.465C318.101 224.46 318.103 224.452 318.062 224.446Z" fill="#EB9585"/>
<path fill-rule="evenodd" clip-rule="evenodd" d="M398.948 205.227C400.091 205.405 400.873 206.475 400.695 207.618C399.256 216.853 393.43 254.251 391.991 263.485C391.813 264.628 390.742 265.41 389.599 265.232C382.696 264.157 360.5 260.698 353.596 259.623C352.453 259.445 351.671 258.374 351.849 257.231C353.288 247.997 359.115 210.599 360.553 201.364C360.732 200.222 361.802 199.439 362.945 199.618C369.849 200.693 392.045 204.151 398.948 205.227Z" fill="#EFDDBF"/>
<path fill-rule="evenodd" clip-rule="evenodd" d="M386.694 202.258C387.152 202.329 387.464 202.757 387.393 203.214C387.314 203.72 387.214 204.364 387.135 204.87C387.064 205.327 386.636 205.64 386.179 205.568C383.86 205.207 377.323 204.189 375.005 203.828C374.548 203.756 374.235 203.328 374.307 202.871C374.385 202.365 374.486 201.721 374.564 201.216C374.636 200.759 375.064 200.446 375.521 200.517C377.839 200.878 384.377 201.897 386.694 202.258Z" fill="#D8AD65"/>
<path fill-rule="evenodd" clip-rule="evenodd" d="M354.326 241.336C354.33 241.297 354.298 241.259 354.303 241.22C354.315 241.115 356.072 228.51 357.009 222.483C358.068 215.674 360.106 203.976 360.107 203.974C360.116 203.957 360.134 203.938 360.152 203.941C360.17 203.944 360.181 203.968 360.185 203.986C360.185 203.988 358.567 215.752 357.504 222.56C356.563 228.587 354.402 241.129 354.383 241.233C354.375 241.271 354.333 241.297 354.326 241.336Z" fill="#BF9F6A"/>
<path fill-rule="evenodd" clip-rule="evenodd" d="M392.158 262.412C392.164 262.364 392.133 262.316 392.14 262.268C392.159 262.122 394.716 244.38 396.036 235.891C397.529 226.3 400.313 209.81 400.314 209.807C400.322 209.79 400.341 209.771 400.359 209.774C400.378 209.777 400.389 209.801 400.392 209.819C400.392 209.823 398.028 226.378 396.532 235.968C395.207 244.456 392.246 262.135 392.22 262.28C392.211 262.328 392.167 262.364 392.158 262.412Z" fill="#BF9F6A"/>
<path fill-rule="evenodd" clip-rule="evenodd" d="M388.596 265.076C388.559 265.072 388.524 265.105 388.486 265.1C388.39 265.089 376.827 263.494 371.3 262.635C365.055 261.664 354.328 259.778 354.326 259.777C354.31 259.767 354.31 259.741 354.293 259.732C354.33 259.736 354.365 259.703 354.401 259.707C354.505 259.721 365.185 261.173 371.377 262.14C376.903 263.003 388.404 265.002 388.499 265.02C388.536 265.027 388.559 265.069 388.596 265.076Z" fill="#BF9F6A"/>
<path fill-rule="evenodd" clip-rule="evenodd" d="M439.123 183.6L413.017 195.919C413.017 195.919 420.37 211.156 421.805 215.873C416.896 219.538 388.626 241.911 386.931 241.911C385.236 241.911 380.579 237.129 376.143 236.514C371.707 235.899 369.554 235.942 365.275 235.349C360.996 234.755 358.918 235.899 360.763 237.744C362.609 239.589 370.061 239.655 371.497 240.475C372.932 241.296 370.273 243.28 366.992 243.895C364.766 244.313 357.093 242.116 354.332 241.296C354.598 239.589 354.885 237.744 354.885 237.744C354.885 237.744 352.332 237.305 350.991 239.999C349.767 242.46 350.588 243.691 351.408 244.511C350.639 245.536 350.576 247.111 351.408 248.817C351.196 250.061 351.671 251.417 352.433 252.303C352.311 254.267 353.721 255.444 355.432 256.469C357.143 257.495 367.676 260.981 371.497 260.365C375.317 259.75 388.516 257.084 394.873 254.829C401.23 252.573 445.009 234.281 449.108 227.554C454.147 219.288 445.633 202.844 439.123 183.6Z" fill="#FADCD6"/>
<path fill-rule="evenodd" clip-rule="evenodd" d="M434.387 214.64C434.361 214.649 434.344 214.678 434.318 214.687C434.292 214.695 433.123 214.452 430.122 214.82C429.402 214.908 429.403 214.912 428.683 215.004C427.418 215.167 427.417 215.155 425.87 215.341C425.803 215.349 424.415 215.508 422.972 215.715C422.632 215.763 422.393 215.802 422.343 215.81C422.335 215.811 422.327 215.817 422.32 215.813C422.281 215.797 422.288 215.787 422.249 215.77C422.276 215.75 422.286 215.712 422.313 215.692C422.317 215.689 423.101 215.441 423.575 215.308C425.842 214.669 427.599 214.309 429.314 214.21C429.503 214.199 432.242 214.001 434.293 214.558C434.309 214.562 434.329 214.56 434.341 214.571C434.373 214.599 434.355 214.612 434.387 214.64Z" fill="#EB9585"/>
<path fill-rule="evenodd" clip-rule="evenodd" d="M359.725 248.259C359.638 248.246 356.917 247.904 354.862 246.907C353.563 246.278 352.568 245.529 352.137 245.199C351.812 244.95 351.376 244.567 351.372 244.558C351.362 244.532 351.371 244.501 351.361 244.475C351.392 244.478 351.423 244.467 351.453 244.47C351.471 244.472 351.501 244.522 352.397 244.977C353.592 245.585 355.06 246.162 356.217 246.7C356.334 246.755 357.671 247.37 358.84 247.813C359.249 247.968 359.664 248.113 359.736 248.139C359.741 248.14 359.752 248.139 359.752 248.144C359.747 248.204 359.731 248.2 359.725 248.259Z" fill="#EB9585"/>
<path fill-rule="evenodd" clip-rule="evenodd" d="M359.181 251.697C359.155 251.707 359.139 251.737 359.113 251.746C359.1 251.751 357.558 251.668 355.306 250.884C354.262 250.521 352.824 249.711 352.616 249.594C352.487 249.522 352.078 249.296 351.395 248.879C351.391 248.876 351.385 248.875 351.383 248.871C351.364 248.833 351.372 248.83 351.354 248.792C351.382 248.791 351.405 248.765 351.433 248.764C351.45 248.763 351.448 248.77 351.804 248.886C354.584 249.791 354.965 249.91 356.589 250.632C358.591 251.521 359.125 251.623 359.133 251.63C359.154 251.647 359.159 251.68 359.181 251.697Z" fill="#EB9585"/>
<path fill-rule="evenodd" clip-rule="evenodd" d="M359.18 255.188C359.153 255.195 359.135 255.224 359.108 255.231C359.105 255.232 358.815 255.192 358.704 255.172C357.717 254.996 356.222 254.598 355.107 254.029C354.933 253.94 354.133 253.532 353.012 252.775C352.849 252.665 352.406 252.357 352.405 252.355C352.397 252.328 352.389 252.302 352.381 252.275C352.409 252.274 352.433 252.252 352.461 252.251C352.467 252.251 353.31 252.563 353.384 252.59C354.055 252.838 355.414 253.315 356.344 253.787C358.132 254.693 358.541 254.868 358.736 254.951C358.818 254.986 358.932 255.036 359.082 255.094C359.1 255.102 359.123 255.102 359.137 255.116C359.168 255.146 359.149 255.158 359.18 255.188Z" fill="#EB9585"/>
<path fill-rule="evenodd" clip-rule="evenodd" d="M371.802 240.712C369.593 240.555 366.487 239.921 363.288 238.969L363.318 238.854C363.468 238.888 367.839 239.931 371.496 240.106C372.239 240.141 372.25 240.1 372.361 240.164C372.544 240.269 372.512 240.471 372.508 240.5C372.4 241.185 371.51 243.678 366.904 244.249C366.201 244.336 366.076 244.31 365.876 244.286C365.075 244.192 363.705 243.873 362.827 243.664C360.005 242.993 354.808 241.506 354.795 241.494C354.775 241.475 354.773 241.441 354.752 241.422C354.794 241.418 354.833 241.394 354.874 241.39C354.894 241.388 364.239 243.443 366 243.582C366.12 243.592 366.14 243.613 366.808 243.52C370.005 243.076 371.363 241.784 371.802 240.712Z" fill="#EB9585"/>
<path fill-rule="evenodd" clip-rule="evenodd" d="M387.4 241.756C388.44 243.651 389.734 251.069 390.423 256.197C391.872 256.197 394.377 255.258 395.007 254.782C394.626 251.409 392.923 242.014 391.29 239.161C390.447 239.195 388.2 240.916 387.4 241.756Z" fill="#815049"/>
<path fill-rule="evenodd" clip-rule="evenodd" d="M391.634 245.126C393.733 245.126 395.437 246.83 395.437 248.929C395.437 251.028 393.733 252.732 391.634 252.732C389.535 252.732 387.831 251.028 387.831 248.929C387.831 246.83 389.535 245.126 391.634 245.126Z" fill="#AB726A"/>
<path fill-rule="evenodd" clip-rule="evenodd" d="M391.634 245.946C393.28 245.946 394.617 247.283 394.617 248.929C394.617 250.576 393.28 251.912 391.634 251.912C389.988 251.912 388.651 250.576 388.651 248.929C388.651 247.283 389.987 245.946 391.634 245.946Z" fill="#975D55"/>
<path fill-rule="evenodd" clip-rule="evenodd" d="M391.387 248.772C391.412 248.477 391.392 248.437 391.532 247.554C391.552 247.43 391.573 247.307 391.594 247.183C391.598 247.157 391.61 247.165 391.634 247.137C391.638 247.157 391.67 247.164 391.675 247.184C391.702 247.31 391.908 248.856 391.865 249.006C391.863 249.015 391.849 249.065 391.805 249.109C391.646 249.268 389.778 249.861 389.701 249.875C389.68 249.879 389.661 249.855 389.64 249.859C389.655 249.845 389.65 249.816 389.666 249.802C389.679 249.79 390.407 249.306 390.76 249.096C391.149 248.865 391.295 248.814 391.387 248.772Z" fill="#CBA8A3"/>
<g clip-path="url(#clip1_116_651)">
<path d="M133.609 170.557C136.791 163.911 136.34 155.86 130.877 150.397L128.603 148.123C123.14 142.66 114.872 141.791 108.443 145.391C103.918 147.926 94.3418 142.656 93.6329 139.243C92.1442 132.076 85.227 127 77.5519 127L73.644 127.199C64.6572 127.655 57.605 135.075 57.605 144.073C57.912 147.976 51.224 150.864 47.3392 148.325C40.6719 141.658 29.8619 141.658 23.1946 148.325L21.3247 150.195C15.6074 155.913 14.9431 164.586 18.882 171.262C21.584 175.842 18.9492 183.949 14.5102 185.041C6.43294 187.027 0 192.968 0 201.723V204.549C0 212.302 5.64771 218.087 12.6732 220.579C19.9625 223.165 19.3876 233.858 18.6404 235.139C14.8279 241.675 15.7226 250.203 21.325 255.805L23.1949 257.675C28.769 263.249 37.0941 263.899 43.7629 260.416C48.5388 257.922 57.4563 262.584 58.1959 266.395C59.6293 273.78 66.7952 279 74.6785 279H77.1111C84.8394 279 91.383 273.928 93.5946 266.931C95.041 262.355 102.043 257.72 109.008 260.65C115.635 263.438 123.796 262.684 128.975 257.506L130.675 255.805C137.343 249.138 137.343 238.328 130.675 231.661C127.68 228.942 131.531 221.443 134.927 221.395C144.357 221.395 152 213.751 152 204.322V201.399C152 193.547 146.788 186.544 139.453 184.932C134.52 183.848 132.012 173.892 133.609 170.557Z" fill="#45C9A5"/>
<path d="M62.7013 226.204L42.8893 206.392C40.5148 204.018 40.5148 200.168 42.8893 197.794C45.2639 195.419 49.1134 195.419 51.4876 197.794L67.0005 213.307L100.512 179.796C102.886 177.421 106.736 177.421 109.11 179.796C111.484 182.17 111.484 186.02 109.11 188.394L71.2999 226.204C68.805 228.333 64.3465 228.029 62.7013 226.204Z" fill="white"/>
<path d="M119.059 196.794L113.233 191.98L116.585 188.688L121.294 194.599L119.059 196.794ZM123.566 199.148C123.086 199.619 122.551 199.86 121.96 199.872C121.361 199.874 120.863 199.673 120.464 199.268C120.058 198.854 119.87 198.356 119.9 197.774C119.929 197.192 120.184 196.665 120.664 196.193C121.153 195.714 121.684 195.468 122.258 195.457C122.841 195.437 123.335 195.635 123.742 196.048C124.14 196.454 124.333 196.956 124.319 197.555C124.306 198.137 124.055 198.668 123.566 199.148Z" fill="white"/>
<path d="M118.296 204.079L117.113 202.875L116.598 202.748L114.354 200.464C114.029 200.133 113.678 199.982 113.3 200.011C112.931 200.033 112.518 200.267 112.063 200.714C111.757 201.015 111.495 201.369 111.278 201.777C111.053 202.177 110.91 202.57 110.849 202.955L108.139 201.983C108.292 201.345 108.581 200.687 109.006 200.01C109.43 199.333 109.907 198.734 110.437 198.214C111.604 197.068 112.762 196.442 113.911 196.338C115.069 196.225 116.205 196.735 117.318 197.869L120.903 201.519L118.296 204.079ZM116.494 206.094C115.939 206.638 115.382 206.998 114.823 207.174C114.263 207.349 113.734 207.373 113.235 207.246C112.727 207.11 112.283 206.848 111.901 206.459C111.47 206.02 111.216 205.538 111.138 205.012C111.061 204.487 111.173 203.922 111.474 203.317C111.783 202.705 112.289 202.053 112.992 201.362L114.408 199.972L115.737 201.325L114.768 202.276C114.47 202.569 114.3 202.834 114.257 203.071C114.214 203.292 114.286 203.498 114.473 203.689C114.627 203.846 114.815 203.921 115.037 203.915C115.258 203.892 115.473 203.779 115.68 203.576C115.87 203.389 115.995 203.169 116.055 202.915C116.114 202.645 116.072 202.362 115.927 202.065L117.104 202.543C117.492 203.153 117.634 203.754 117.531 204.343C117.427 204.933 117.081 205.516 116.494 206.094Z" fill="white"/>
<path d="M108.365 213.834L98.9644 209.727L101.845 206.898L109.331 210.373L107.879 211.799L104.675 204.117L107.332 201.508L111.27 210.98L108.365 213.834Z" fill="white"/>
<path d="M100.789 221.521C100.201 222.098 99.5168 222.494 98.7355 222.708C97.9545 222.906 97.1589 222.891 96.3488 222.662C95.5307 222.425 94.7639 221.943 94.0486 221.215C93.3333 220.486 92.8685 219.715 92.6544 218.901C92.4321 218.079 92.431 217.283 92.6512 216.514C92.8797 215.737 93.2878 215.06 93.8754 214.482C94.4713 213.897 95.0856 213.546 95.7183 213.428C96.3428 213.303 97.0022 213.411 97.6964 213.754C98.3825 214.088 99.1197 214.656 99.9082 215.459C100.705 216.27 101.272 217.021 101.611 217.714C101.957 218.398 102.062 219.051 101.925 219.673C101.797 220.287 101.418 220.903 100.789 221.521ZM99.3132 218.677C99.5201 218.474 99.6576 218.242 99.7256 217.98C99.7935 217.718 99.7796 217.439 99.6839 217.143C99.58 216.838 99.3858 216.541 99.1013 216.252C98.8086 215.954 98.5192 215.758 98.2329 215.666C97.9385 215.564 97.6598 215.546 97.3967 215.609C97.1336 215.672 96.8986 215.805 96.6917 216.009C96.4848 216.212 96.3474 216.444 96.2794 216.706C96.2114 216.968 96.2253 217.247 96.3211 217.543C96.4087 217.831 96.5989 218.124 96.8915 218.422C97.176 218.712 97.4695 218.911 97.772 219.021C98.0664 219.122 98.3452 219.141 98.6083 219.077C98.8713 219.014 99.1063 218.881 99.3132 218.677ZM102.529 219.567L101.627 218.649L99.1758 216.178L96.613 213.818L93.3453 210.491L96.151 207.735L105.198 216.946L102.529 219.567Z" fill="white"/>
<path d="M93.7456 228.194L92.5629 226.99L92.0472 226.862L89.8037 224.578C89.4786 224.247 89.1272 224.096 88.7496 224.126C88.3803 224.147 87.968 224.381 87.5128 224.828C87.2066 225.129 86.945 225.484 86.7281 225.892C86.503 226.292 86.36 226.684 86.2991 227.069L83.5885 226.098C83.7419 225.459 84.0308 224.801 84.4553 224.124C84.8797 223.447 85.3568 222.848 85.8865 222.328C87.0535 221.182 88.2116 220.557 89.361 220.452C90.5187 220.339 91.6543 220.85 92.7679 221.983L96.3526 225.633L93.7456 228.194ZM91.9433 230.208C91.3888 230.753 90.8318 231.113 90.2724 231.288C89.7131 231.464 89.1837 231.488 88.6845 231.36C88.1771 231.224 87.7324 230.962 87.3504 230.573C86.9195 230.134 86.6655 229.652 86.5882 229.127C86.5109 228.601 86.6226 228.036 86.9234 227.432C87.2324 226.819 87.7387 226.167 88.4421 225.476L89.8574 224.086L91.1864 225.439L90.2181 226.39C89.9201 226.683 89.7496 226.948 89.7064 227.186C89.6634 227.407 89.7354 227.612 89.9224 227.803C90.0768 227.96 90.2648 228.036 90.4863 228.029C90.708 228.007 90.9223 227.894 91.1292 227.69C91.3196 227.503 91.4446 227.283 91.5043 227.029C91.5642 226.759 91.5216 226.476 91.3766 226.179L92.5536 226.657C92.9418 227.268 93.0841 227.868 92.9803 228.458C92.8766 229.047 92.5309 229.631 91.9433 230.208Z" fill="white"/>
<path d="M85.5877 236.206L76.5405 226.996L79.3462 224.24L88.3934 233.45L85.5877 236.206Z" fill="white"/>
<path d="M74.6378 236.231L78.5111 232.427L80.5839 234.537L76.7106 238.341L74.6378 236.231ZM78.031 239.288L82.3761 235.02L84.5464 237.23L77.3212 244.327L68.7861 235.638L75.8499 228.699L78.0203 230.909L73.8366 235.018L78.031 239.288Z" fill="white"/>
</g>
</g>
<defs>
<clipPath id="clip0_116_651">
<rect width="468" height="382" fill="white"/>
</clipPath>
<clipPath id="clip1_116_651">
<rect width="152" height="152" fill="white" transform="translate(0 127)"/>
</clipPath>
</defs>
</svg>
