<svg width="430" height="325" viewBox="0 0 430 325" fill="none" xmlns="http://www.w3.org/2000/svg">
<path d="M384.797 77.9682H65.1503C61.6198 77.9682 58.7578 80.8302 58.7578 84.3607V249.108C58.7578 252.639 61.6198 255.501 65.1503 255.501H384.797C388.327 255.501 391.189 252.639 391.189 249.108V84.3607C391.189 80.8302 388.327 77.9682 384.797 77.9682Z" stroke="#B6C7E1" stroke-width="0.76" stroke-linecap="round" stroke-linejoin="round"/>
<path d="M122.393 29.4756H143.039C144.091 29.4756 144.958 30.3426 144.958 31.4176V40.6884C144.958 41.7635 144.102 42.6304 143.039 42.6304H134.623L128.716 48.1906V42.9194L122.358 42.8154C121.318 42.7923 120.486 41.9369 120.486 40.8734V31.4176C120.486 30.3426 121.341 29.4756 122.405 29.4756H122.393Z" stroke="#B6C7E1" stroke-width="0.7" stroke-linecap="round" stroke-linejoin="round"/>
<path d="M42.9327 254.749C42.9327 257.905 40.4127 260.46 37.3032 260.46C34.1936 260.46 31.6621 257.905 31.6621 254.749C31.6621 251.594 34.1821 249.039 37.3032 249.039C40.4243 249.039 42.9327 251.594 42.9327 254.749Z" stroke="#B6C7E1" stroke-width="0.76" stroke-linecap="round" stroke-linejoin="round"/>
<path d="M425.151 132.691C425.151 134.992 423.313 136.853 421.047 136.853C418.781 136.853 416.943 134.992 416.943 132.691C416.943 130.391 418.781 128.53 421.047 128.53C423.313 128.53 425.151 130.391 425.151 132.691Z" stroke="#B6C7E1" stroke-width="0.76" stroke-linecap="round" stroke-linejoin="round"/>
<path d="M272.68 280.146C272.68 282.446 270.842 284.307 268.576 284.307C266.31 284.307 264.472 282.446 264.472 280.146C264.472 277.845 266.31 275.984 268.576 275.984C270.842 275.984 272.68 277.845 272.68 280.146Z" stroke="#B6C7E1" stroke-width="0.76" stroke-linecap="round" stroke-linejoin="round"/>
<path d="M65.6009 27.9151C65.6009 30.2154 63.7629 32.0765 61.4972 32.0765C59.2316 32.0765 57.3936 30.2154 57.3936 27.9151C57.3936 25.6147 59.2316 23.7536 61.4972 23.7536C63.7629 23.7536 65.6009 25.6147 65.6009 27.9151Z" stroke="#B6C7E1" stroke-width="0.76" stroke-linecap="round" stroke-linejoin="round"/>
<path d="M276.934 23.6496H268.415V32.2962H276.934V23.6496Z" stroke="#B6C7E1" stroke-width="0.76" stroke-linecap="round" stroke-linejoin="round"/>
<path d="M227.539 60.3976L131.398 99.7234C131.398 99.7234 127.029 215.215 227.539 280.146V60.3976Z" fill="#F15D22"/>
<path d="M227.54 60.3976L323.681 99.7234C323.681 99.7234 328.05 215.215 227.54 280.146V60.3976Z" fill="#E04F14"/>
<path d="M308.595 109.699L227.528 76.5348L146.46 109.699C146.46 109.699 142.773 207.077 227.528 261.824C312.271 207.077 308.595 109.699 308.595 109.699Z" stroke="white" stroke-width="2.36" stroke-linecap="round" stroke-linejoin="round"/>
<g clip-path="url(#clip0_12_3248)">
<path d="M253.211 137.132C235.158 130.203 217.174 130.204 199.121 137.132V160.939C199.121 177.872 209.88 193.032 226.164 199.214C242.449 193.033 253.21 177.872 253.211 160.939V137.132ZM258.332 160.939C258.331 180.246 245.845 197.508 227.051 204.182C226.48 204.385 225.852 204.385 225.28 204.182C206.487 197.508 194.001 180.246 194 160.939V135.477C194 134.484 194.618 133.587 195.567 133.202C215.939 124.933 236.393 124.933 256.765 133.202C257.713 133.587 258.332 134.484 258.332 135.477V160.939Z" fill="white"/>
<path d="M243.867 143.529C237.918 141.812 231.993 140.945 226.172 140.945C220.35 140.945 214.425 141.812 208.476 143.529V160.934C208.476 172.864 215.434 183.788 226.172 189.308C236.91 183.788 243.867 172.864 243.867 160.934V143.529ZM248.988 160.934C248.988 175.185 240.406 188.166 227.288 194.302C226.583 194.631 225.76 194.631 225.055 194.302C211.937 188.166 203.355 175.185 203.355 160.934V141.71L203.389 141.318C203.539 140.418 204.197 139.659 205.116 139.367C212.134 137.144 219.196 136.009 226.172 136.009C233.148 136.009 240.209 137.144 247.228 139.367C248.278 139.7 248.987 140.645 248.988 141.71V160.934Z" fill="white"/>
<path d="M212.541 150.42L221.075 176.746H231.316L239.851 150.42H233.023L226.196 171.81L219.368 150.42H212.541Z" fill="white"/>
</g>
<path d="M43.013 73.957H18.7494C15.5127 73.957 12.8887 71.333 12.8887 68.0963C12.8887 64.8596 15.5127 62.2356 18.7494 62.2356H43.013C46.2497 62.2356 48.8737 64.8596 48.8737 68.0963C48.8737 71.333 46.2497 73.957 43.013 73.957Z" fill="#6CABB2"/>
<path d="M25.951 68.1078C25.951 68.9401 25.2805 69.6106 24.4598 69.6106C23.6275 69.6106 22.957 68.9401 22.957 68.1194C22.957 67.2871 23.6275 66.6166 24.4482 66.6166C25.2805 66.6166 25.951 67.2871 25.951 68.1078Z" fill="white"/>
<path d="M32.3894 68.0847C32.3894 68.917 31.719 69.5875 30.8983 69.5875C30.066 69.5875 29.3955 68.917 29.3955 68.0963C29.3955 67.264 30.066 66.5935 30.8867 66.5935C31.719 66.5935 32.3894 67.264 32.3894 68.0847Z" fill="white"/>
<path d="M38.8289 68.0732C38.8289 68.9055 38.1584 69.5759 37.3377 69.5759C36.517 69.5759 35.835 68.9055 35.835 68.0847C35.835 67.2524 36.5054 66.582 37.3262 66.582C38.1585 66.582 38.8289 67.2524 38.8289 68.0732Z" fill="white"/>
<path d="M361.469 48.6183L411.048 48.6183C411.948 48.6183 412.678 47.8886 412.678 46.9884V33.0822C412.678 32.1821 411.948 31.4523 411.048 31.4523L361.469 31.4523C360.569 31.4523 359.839 32.1821 359.839 33.0822V46.9884C359.839 47.8886 360.569 48.6183 361.469 48.6183Z" fill="#6CABB2"/>
<path d="M403.269 37.7292H369.376" stroke="#F8F7FF" stroke-width="1.01" stroke-linecap="round" stroke-linejoin="round"/>
<path d="M378.681 42.3299H369.26" stroke="#F8F7FF" stroke-width="1.01" stroke-linecap="round" stroke-linejoin="round"/>
<path d="M368.255 46.1561V52.1556C368.255 52.329 368.463 52.433 368.602 52.3174L376.358 46.1561H368.255Z" fill="#6CABB2"/>
<path d="M4.63542 173.971H40.8054C43.3601 173.971 45.4293 176.04 45.4293 178.595V212.326C45.4293 214.88 43.3601 216.949 40.8054 216.949H6.10347C2.73963 216.949 0 214.21 0 210.846V178.583C0 176.028 2.06917 173.959 4.62384 173.959L4.63542 173.971Z" fill="#6CABB2"/>
<path d="M410.081 220.523C421.02 216.052 426.264 203.56 421.793 192.621C417.322 181.683 404.83 176.439 393.891 180.91C382.953 185.381 377.709 197.873 382.18 208.811C386.651 219.75 399.143 224.994 410.081 220.523Z" fill="#6CABB2"/>
<path d="M399.257 204.673C395.419 204.673 392.298 201.552 392.298 197.714C392.298 193.876 395.419 190.755 399.257 190.755C403.095 190.755 406.216 193.876 406.216 197.714C406.216 201.552 403.095 204.673 399.257 204.673ZM399.257 192.327C396.286 192.327 393.87 194.743 393.87 197.714C393.87 200.685 396.286 203.101 399.257 203.101C402.228 203.101 404.644 200.685 404.644 197.714C404.644 194.743 402.228 192.327 399.257 192.327Z" fill="#FBFBF1"/>
<path d="M404.158 201.501L403.046 202.612L405.098 204.664L406.21 203.552L404.158 201.501Z" fill="#FBFBF1"/>
<path d="M404.824 205.759L408.887 209.822C409.32 210.255 410.023 210.255 410.456 209.822L411.355 208.923C411.789 208.489 411.789 207.787 411.355 207.353L407.293 203.291C406.859 202.858 406.157 202.858 405.723 203.291L404.824 204.19C404.391 204.623 404.391 205.326 404.824 205.759Z" fill="#FBFBF1"/>
<path d="M211.794 47.8883C222.774 43.4007 228.037 30.8615 223.549 19.8814C219.062 8.90119 206.523 3.63796 195.542 8.12559C184.562 12.6132 179.299 25.1524 183.787 36.1325C188.274 47.1127 200.813 52.376 211.794 47.8883Z" fill="#6CABB2"/>
<path d="M212.061 26.3198L210.674 26.0771C210.512 25.4644 210.27 24.8865 209.958 24.3432L210.767 23.1872C211.067 22.7595 211.009 22.1815 210.651 21.8116L209.819 20.9793C209.449 20.621 208.871 20.5747 208.443 20.8868L207.287 21.696C206.744 21.3839 206.154 21.1411 205.553 20.9793L205.311 19.5575C205.218 19.0489 204.79 18.6789 204.282 18.6674H203.08C202.559 18.6674 202.109 19.0373 202.028 19.5575L201.785 20.9446C201.172 21.1065 200.594 21.3492 200.051 21.6613L198.895 20.8868C198.467 20.5863 197.889 20.6441 197.519 21.0024L196.687 21.8347C196.317 22.2046 196.271 22.7826 196.571 23.2103L197.381 24.3663C197.069 24.9096 196.826 25.4991 196.664 26.1002L195.277 26.343C194.768 26.4354 194.387 26.8747 194.387 27.3949V28.574C194.387 29.0942 194.757 29.545 195.277 29.6259L196.664 29.8687C196.826 30.4813 197.069 31.0593 197.381 31.6026L196.571 32.7586C196.271 33.1863 196.329 33.7642 196.687 34.1342L197.519 34.9664C197.889 35.3364 198.467 35.3826 198.895 35.082L200.051 34.2729C200.594 34.585 201.184 34.8277 201.785 34.9896L202.028 36.3767C202.12 36.8853 202.559 37.2668 203.08 37.2668H204.282C204.802 37.2668 205.253 36.8969 205.334 36.3767L205.576 34.9896C206.189 34.8277 206.767 34.585 207.31 34.2729L208.443 35.0705C208.871 35.371 209.449 35.3132 209.819 34.9549L210.651 34.1226C211.021 33.7527 211.067 33.1747 210.767 32.747L209.958 31.5795C210.27 31.0362 210.512 30.4466 210.674 29.8455L212.061 29.6028C212.57 29.5103 212.951 29.071 212.951 28.5509V27.3718C212.951 26.8516 212.582 26.4123 212.061 26.3198ZM203.658 31.1518C201.9 31.1518 200.479 29.7299 200.479 27.9613C200.479 26.1927 201.9 24.7709 203.669 24.7709C205.426 24.7709 206.848 26.1927 206.848 27.9613C206.848 27.9613 206.848 27.9729 206.848 27.9844C206.848 29.7415 205.415 31.1518 203.669 31.1518H203.658Z" fill="white"/>
<path d="M23.1898 180C17.254 180 13 184.112 13 189.79C13 193.094 14.5908 195.231 15.9679 197.083C17.0443 198.536 17.9465 199.782 17.9465 201.274C17.9465 203.249 21.4288 204.095 23.1937 204.095C24.9587 204.095 28.441 203.249 28.441 201.274C28.441 199.742 29.3868 198.492 30.4196 197.083C31.7967 195.231 33.3875 193.094 33.3875 189.79C33.3875 184.151 29.1295 180 23.1977 180H23.1898ZM29.5609 196.525C28.3658 198.1 27.2578 199.592 27.2578 201.543C27.2578 202.374 24.9112 203.201 23.1858 203.201C21.4605 203.201 19.1139 202.37 19.1139 201.543C19.1139 199.592 18.0059 198.1 16.8108 196.525C15.4376 194.657 13.9774 192.75 13.9774 189.723C13.9774 184.622 17.8278 180.89 23.1383 180.89C28.4489 180.89 32.2992 184.622 32.2992 189.723C32.3428 192.75 30.9261 194.657 29.5569 196.525H29.5609Z" fill="white"/>
<path d="M18.5441 204.899C19.7906 205.746 21.2943 206.149 23.2294 206.149C25.1645 206.149 26.6247 205.746 27.8752 204.899C28.1759 204.697 28.2194 204.333 28.0058 204.052C27.7921 203.771 27.3805 203.89 27.0798 204.091C26.0905 204.776 24.8004 205.1 23.2096 205.1C21.6188 205.1 20.3288 204.78 19.296 204.091C18.9952 203.89 18.6311 203.81 18.4135 204.052C18.1563 204.333 18.2433 204.697 18.5441 204.899Z" fill="white"/>
<path d="M27.1071 206.189C25.9476 206.952 24.4835 207.075 23.237 207.075C21.4325 207.075 20.2691 206.794 19.3233 206.149C19.0225 205.947 18.6308 205.908 18.4131 206.149C18.1994 206.43 18.2826 206.794 18.5437 206.996C19.2323 207.439 19.9208 207.72 20.649 207.882C20.7795 209.089 21.8955 210.059 23.229 210.059C24.5626 210.059 25.6785 209.093 25.8091 207.882C26.5412 207.72 27.2298 207.439 27.8748 206.996C28.1755 206.794 28.2191 206.43 28.0054 206.149C27.7917 205.868 27.3683 205.987 27.1071 206.189ZM23.1895 209.228C22.3031 209.228 21.844 208.563 21.7965 208.072C22.1843 208.112 22.8017 208.163 23.1895 208.163C23.5773 208.163 24.1867 208.148 24.618 208.108C24.5547 208.603 24.064 209.228 23.1895 209.228Z" fill="white"/>
<path d="M21.9388 182.295C19.9602 182.616 18.413 183.502 17.0359 185.156C16.8222 185.437 16.8657 185.801 17.1229 186.003C17.2535 186.082 17.3801 186.126 17.5107 186.126C17.6809 186.126 17.8985 186.047 18.0252 185.884C19.1846 184.515 20.4747 183.747 22.1525 183.466C22.4968 183.427 22.754 183.102 22.6669 182.782C22.6234 182.461 22.3227 182.26 21.9349 182.299L21.9388 182.295Z" fill="white"/>
<path d="M327.865 306.34L329.067 289.243L316.317 289.81L315.635 306.525L327.865 306.34Z" fill="#E9A788"/>
<path d="M315.635 306.525L290.932 317.518C289.349 318.304 288.528 320.084 288.932 321.795L331.206 321.182L327.877 306.351L315.647 306.525H315.635Z" fill="#B6C7E1"/>
<path d="M331.194 321.171L331.287 324.153L292.365 324.338C290.782 324.338 289.372 323.298 288.909 321.784L331.183 321.171H331.194Z" fill="black"/>
<path d="M306.572 310.131L309.138 312.397" stroke="black" stroke-width="1.07" stroke-linecap="round" stroke-linejoin="round"/>
<path d="M303.266 311.461L306.052 313.923" stroke="black" stroke-width="1.07" stroke-linecap="round" stroke-linejoin="round"/>
<path d="M299.891 313.068L302.919 315.738" stroke="black" stroke-width="1.07" stroke-linecap="round" stroke-linejoin="round"/>
<path d="M315.381 166.85C312.549 170.827 312.029 297.994 312.029 297.994H332.27L339.067 164.931L315.37 166.85H315.381Z" fill="#272A4B"/>
<path d="M334.061 289.243H309.578V298.618H334.061V289.243Z" fill="#454D75"/>
<path d="M364.937 306.34L363.319 288.966L350.568 289.532L352.707 306.525L364.937 306.34Z" fill="#E9A788"/>
<path d="M364.937 306.34L378.069 315.807C379.468 317.402 380.092 319.055 380.092 321.171H352.464L352.696 306.513L364.926 306.34H364.937Z" fill="#B6C7E1"/>
<path d="M380.092 321.171H352.464V324.176H380.092V321.171Z" fill="black"/>
<path d="M364.706 310.467L370.624 309.403" stroke="black" stroke-width="1.07" stroke-linecap="round" stroke-linejoin="round"/>
<path d="M366.682 312.605L373.051 311.461" stroke="black" stroke-width="1.07" stroke-linecap="round" stroke-linejoin="round"/>
<path d="M369.492 314.605L375.861 313.461" stroke="black" stroke-width="1.07" stroke-linecap="round" stroke-linejoin="round"/>
<path d="M333.39 180.525L347.528 293.936H367.745L357.215 164.931L334.061 165.313L333.39 180.525Z" fill="#272A4B"/>
<path d="M370.497 298.618H346.014L344.742 289.243H369.225L370.497 298.618Z" fill="#454D75"/>
<path d="M336.801 208.257L334.061 186.582L326.085 184.791" stroke="black" stroke-width="0.31" stroke-linecap="round" stroke-linejoin="round"/>
<path d="M339.332 72.7201L337.587 79.3669L337.24 72.0844L339.332 72.7201Z" fill="black"/>
<path d="M318.432 51.1383C318.432 51.1383 312.826 52.0978 314.213 56.9181C315.6 61.7269 318.733 62.1084 318.733 62.1084L318.432 51.1383Z" fill="black"/>
<path d="M321.357 72.9745C321.311 71.4023 321.022 69.8534 320.432 68.3737C319.623 66.3508 318.825 64.5128 316.537 65.2758C311.947 66.8132 315.496 73.6334 319.218 74.4657C320.317 74.7084 321.38 73.957 321.345 72.9745H321.357Z" fill="#BB623F"/>
<path d="M337.413 72.0844L338.997 96.0937L325.125 96.1861L325.831 76.6504L337.413 72.0844Z" fill="#E2A485"/>
<path d="M325.438 87.713L334.477 80.6038L325.68 79.7484L325.438 87.713Z" fill="black"/>
<path d="M316.016 56.3517L316.467 72.7433C316.467 72.7433 316.525 82.8695 324.732 83.2394C334.2 83.6671 337.98 79.2166 337.378 74.3038L336.858 55.8547C336.824 52.5255 333.783 49.8783 330.119 49.9824L322.432 50.1905C318.802 50.2945 315.924 53.0457 316.016 56.3402V56.3517Z" fill="#E2A485"/>
<path d="M328.708 64.1776C328.708 64.1776 325.934 63.9695 325.761 65.322C325.587 66.6745 328.87 66.6282 328.87 66.6282C328.87 66.6282 331.725 66.8825 331.829 65.611C331.945 64.3394 328.708 64.1776 328.708 64.1776Z" fill="white"/>
<mask id="mask0_12_3248" style="mask-type:luminance" maskUnits="userSpaceOnUse" x="325" y="64" width="7" height="3">
<path d="M328.708 64.1776C328.708 64.1776 325.934 63.9695 325.761 65.322C325.587 66.6745 328.87 66.6282 328.87 66.6282C328.87 66.6282 331.725 66.8825 331.829 65.611C331.945 64.3394 328.708 64.1776 328.708 64.1776Z" fill="white"/>
</mask>
<g mask="url(#mask0_12_3248)">
<path d="M330.038 65.4838C329.98 66.3046 329.171 66.9288 328.235 66.871C327.287 66.8132 326.57 66.0849 326.628 65.2642C326.686 64.4435 327.495 63.8193 328.431 63.877C329.379 63.9348 330.096 64.6631 330.038 65.4838Z" fill="#060606"/>
</g>
<path d="M319.264 64.2816C319.264 64.2816 321.414 64.1198 321.565 65.4029C321.715 66.686 319.183 66.6745 319.183 66.6745C319.183 66.6745 316.975 66.8247 316.871 65.611C316.767 64.3972 319.276 64.2816 319.276 64.2816H319.264Z" fill="white"/>
<mask id="mask1_12_3248" style="mask-type:luminance" maskUnits="userSpaceOnUse" x="316" y="64" width="6" height="3">
<path d="M319.264 64.2816C319.264 64.2816 321.414 64.1198 321.565 65.4029C321.715 66.686 319.183 66.6745 319.183 66.6745C319.183 66.6745 316.975 66.8247 316.871 65.611C316.767 64.3972 319.276 64.2816 319.276 64.2816H319.264Z" fill="white"/>
</mask>
<g mask="url(#mask1_12_3248)">
<path d="M317.819 65.5185C317.877 66.3046 318.536 66.9057 319.311 66.8479C320.085 66.8016 320.675 66.1196 320.617 65.3335C320.559 64.5475 319.9 63.9464 319.126 64.0042C318.351 64.0504 317.762 64.7324 317.819 65.5185Z" fill="#060606"/>
</g>
<path d="M332.373 61.4842L326.778 61.5189C325.911 61.6114 325.16 60.9409 325.148 60.0739C325.148 59.2879 325.749 58.6405 326.536 58.5943L332.165 59.0451C332.824 59.0104 333.402 59.4959 333.46 60.1664C333.518 60.8253 333.032 61.4148 332.373 61.4842Z" fill="black"/>
<path d="M316.501 61.727L319.704 61.6345C320.478 61.7501 321.114 61.1027 321.068 60.2473C321.044 59.6925 320.732 59.1954 320.293 58.9411C320.05 58.7908 319.75 58.7561 319.472 58.8139L316.548 59.3341C315.912 59.5075 315.473 59.7618 315.461 60.4092C315.45 61.0565 315.912 61.6461 316.513 61.7385L316.501 61.727Z" fill="black"/>
<path d="M322.131 68.0847L321.218 71.4023L322.975 72.0844" stroke="black" stroke-width="0.32" stroke-linecap="round" stroke-linejoin="round"/>
<path d="M320.767 74.5119C320.767 74.5119 323.264 75.899 327.044 74.5119" stroke="black" stroke-width="0.32" stroke-linecap="round" stroke-linejoin="round"/>
<path d="M336.292 69.3332V57.9585C336.292 56.0512 335.379 54.2016 333.749 53.2075C333.055 52.7914 332.235 52.5024 331.287 52.5255C328.027 52.618 315.635 58.0625 314.294 51.1037C312.953 44.1448 321.334 43.0582 326.617 45.1158C331.911 47.1734 334.94 44.191 339.078 47.9248C343.679 52.0862 344.176 57.658 339.656 68.8939L336.304 69.3332H336.292Z" fill="black"/>
<path d="M336.396 73.1479C336.35 71.5757 336.558 70.0152 337.066 68.5009C337.76 66.4317 338.951 64.4319 341.228 65.1833C346.915 67.0675 342.268 73.4831 338.604 74.5119C337.529 74.8124 336.419 74.1304 336.396 73.1363V73.1479Z" fill="#E2A485"/>
<path d="M337.968 71.148C337.968 71.148 339.517 68.3506 341.517 68.6627" stroke="black" stroke-width="0.32" stroke-linecap="round" stroke-linejoin="round"/>
<path d="M314.629 107.665L294.423 138.448C292.053 141.095 291.903 145.06 294.076 147.881C296.804 151.43 302.052 151.753 305.197 148.551L326.998 119.271C330.154 116.057 330.258 110.948 327.229 107.619C323.842 103.896 317.982 103.92 314.629 107.665Z" fill="#E2A485"/>
<path d="M337.425 107.052L318.537 136.171L301.301 120.588L313.531 101.573L337.425 107.052Z" fill="#B6C7E1"/>
<path d="M304.572 140.032L284.655 112.693L278.887 118.138L293.382 146.863C295.07 150.204 299.208 151.464 302.468 149.638C305.901 147.707 306.884 143.211 304.561 140.032H304.572Z" fill="#E2A485"/>
<path d="M285.395 115.71C285.395 115.71 287.384 105.989 276.078 101.342C276.078 101.342 270.969 97.5386 270.379 102.128C270.379 102.128 268.299 103.596 269.905 106.243C269.905 106.243 267.721 107.434 269.408 109.954C269.408 109.954 267.455 112.127 269.501 114.543C271.547 116.97 274.714 119.791 282.055 119.606L285.384 115.71H285.395Z" fill="#E2A485"/>
<path d="M277.616 103.515C277.616 103.515 277.2 100.116 278.252 97.9432C279.304 95.77 281.754 97.2843 281.327 99.7581C280.899 102.232 281.107 104.313 283.349 106.89L280.483 108.786L277.616 103.515Z" fill="#E2A485"/>
<path d="M338.361 94.3135C338.361 94.3135 346.315 95.77 353.967 98.3593C357.735 99.6309 357.967 104.682 357.527 108.647L359.943 171.959L311.844 172.237L312.329 109.873C311.936 104.359 311.497 101.226 318.803 97.8623C324.432 95.2729 326.941 93.8164 330.062 93.6315L338.361 94.3135Z" fill="#B6C7E1"/>
<path d="M322.86 95.955L329.888 92.6142L337.679 93.9783L343.794 95.5041C343.794 95.5041 338.015 101.677 328.883 101.134C319.75 100.59 322.86 95.9434 322.86 95.9434V95.955Z" fill="#E2A485"/>
<path d="M312.075 129.848L312.26 117.294" stroke="black" stroke-width="0.31" stroke-linecap="round" stroke-linejoin="round"/>
<path d="M354.267 121.548L372.358 151.95C373.93 155.14 377.548 156.758 380.97 155.799C385.282 154.597 387.536 149.846 385.756 145.742L369.653 114.416C367.862 110.289 363.145 108.277 358.926 109.838C354.21 111.584 352.036 117.028 354.256 121.548H354.267Z" fill="#E2A485"/>
<path d="M354.811 98.7293C354.811 98.7293 367.376 105.827 378.034 127.755L361.284 138.726L348.708 121.363L354.811 98.7177V98.7293Z" fill="#B6C7E1"/>
<path d="M358.533 134.946L349.678 122.727" stroke="black" stroke-width="0.31" stroke-linecap="round" stroke-linejoin="round"/>
<path d="M351.077 130.021L367.133 171.832L339.564 181.519L323.299 140.436L351.077 130.021Z" fill="white"/>
<path d="M329.264 143.037L348.522 135.951" stroke="#B6C7E1" stroke-width="0.95" stroke-miterlimit="10"/>
<path d="M331.184 148.262L341.356 144.517" stroke="#B6C7E1" stroke-width="0.95" stroke-miterlimit="10"/>
<path d="M337.668 152.69L347.17 149.199" stroke="#B6C7E1" stroke-width="0.95" stroke-miterlimit="10"/>
<path d="M335.321 159.487L354.58 152.401" stroke="#B6C7E1" stroke-width="0.95" stroke-miterlimit="10"/>
<path d="M341.413 176.028L347.204 173.89" stroke="#B6C7E1" stroke-width="0.95" stroke-miterlimit="10"/>
<path d="M348.684 173.347L360.671 168.931" stroke="#B6C7E1" stroke-width="0.95" stroke-miterlimit="10"/>
<path d="M333.403 154.273L335.992 153.314" stroke="#B6C7E1" stroke-width="0.95" stroke-miterlimit="10"/>
<path d="M379.386 140.656L344.106 158.805L346.985 166.11L381.791 155.522L379.386 140.656Z" fill="#E2A485"/>
<path d="M368.867 146.066L374.716 143.06" stroke="black" stroke-width="0.32" stroke-linecap="round" stroke-linejoin="round"/>
<path d="M344.592 158.539C344.592 158.539 327.842 159.163 329.726 164.827C331.611 170.491 338.304 181.508 349.852 164.792L344.592 158.55V158.539Z" fill="#E2A485"/>
<path d="M345.263 159.07L342.569 157.209C341.02 156.134 339.171 155.556 337.287 155.545L333.796 155.522C332.963 155.522 332.224 156.088 332.027 156.897C331.807 157.787 332.281 158.701 333.137 159.024L338.628 161.128L345.274 159.059L345.263 159.07Z" fill="#E2A485"/>
<path d="M75.9692 305.901L76.3276 288.099L88.7426 288.677L87.8525 306.086L75.9692 305.901Z" fill="#F6B79C"/>
<path d="M75.9691 305.901L63.3113 315.599C61.8779 317.229 61.2422 318.928 61.2422 321.101H88.1067L87.864 306.086L75.9807 305.901H75.9691Z" fill="#060606"/>
<path d="M61.2312 324.176H88.0957V321.09H61.2312V324.176Z" fill="#B6C7E1"/>
<path d="M76.2008 309.97L71.311 309.033" stroke="white" stroke-width="0.85" stroke-linecap="round" stroke-linejoin="round"/>
<path d="M74.1544 312.166L68.4556 311.149" stroke="white" stroke-width="0.85" stroke-linecap="round" stroke-linejoin="round"/>
<path d="M70.8257 314.143L66.04 313.276" stroke="white" stroke-width="0.85" stroke-linecap="round" stroke-linejoin="round"/>
<path d="M114.613 305.901L113.376 288.388L126.438 288.954L127.143 306.086L114.613 305.901Z" fill="#F6B79C"/>
<path d="M127.144 306.086L149.2 317.345C150.818 318.154 151.662 319.969 151.257 321.737L111.203 321.101L114.613 305.901L127.144 306.086Z" fill="#060606"/>
<path d="M111.203 321.101L111.11 324.153L147.72 324.35C149.35 324.35 150.783 323.286 151.257 321.737L111.203 321.101Z" fill="#B6C7E1"/>
<path d="M133.825 309.288L130.635 310.756" stroke="white" stroke-width="0.85" stroke-linecap="round" stroke-linejoin="round"/>
<path d="M137.097 310.756L133.802 312.316" stroke="white" stroke-width="0.85" stroke-linecap="round" stroke-linejoin="round"/>
<path d="M140.183 312.732L137.016 314.177" stroke="white" stroke-width="0.85" stroke-linecap="round" stroke-linejoin="round"/>
<path d="M111.226 148.597H111.353C111.099 148.193 111.075 148.204 111.226 148.597Z" fill="#7685F4"/>
<path d="M130.634 298.549C130.634 298.549 126.265 254.379 122.774 209.852C119.942 173.716 112.278 153.314 111.237 150.62H84.8468C84.8468 150.62 76.2349 157.163 73.3797 189.715C70.5244 222.267 73.4375 298.549 73.4375 298.549H90.7538L98.6952 189.911L111.573 298.549H130.646H130.634Z" fill="#B6C7E1"/>
<path d="M98.6841 189.911L99.5395 174.919L106.799 170.803" stroke="black" stroke-width="0.31" stroke-linecap="round" stroke-linejoin="round"/>
<path d="M104.938 121.513C104.938 121.513 109.62 138.853 119.688 153.522C121.561 156.25 125.225 157.059 128.069 155.371C130.612 153.857 131.745 150.771 130.785 147.985L118.497 115.907L104.938 121.525V121.513Z" fill="#F6B79C"/>
<path d="M78.1659 106.22C82.0384 103.792 90.3151 99.6887 99.031 99.2032C99.031 99.2032 106.915 99.839 114.926 106.578C116.024 107.503 116.648 108.879 116.59 110.312L111.226 150.609H84.8358L71.3689 116.219C71.2417 114.52 76.721 107.122 78.1659 106.208V106.22Z" fill="#E8BF40"/>
<path d="M88.6387 101.365C88.6387 101.365 94.5225 99.261 99.0423 99.2148C99.0423 99.2148 102.869 99.4806 107.261 101.689C107.261 101.689 107.735 106.451 100.291 106.613C92.8579 106.775 88.6387 101.353 88.6387 101.353V101.365Z" fill="#F6B79C"/>
<path d="M114.937 106.59C114.937 106.59 123.41 114.057 128.797 123.906L112.868 133.385L114.925 106.59H114.937Z" fill="#E8BF40"/>
<path d="M113.642 132.795C113.642 132.795 116 126.391 113.584 117.618" stroke="black" stroke-width="0.31" stroke-linecap="round" stroke-linejoin="round"/>
<path d="M163.233 132.056L158.389 140.367V134.876L163.233 132.056Z" fill="#9B4A32"/>
<path d="M150.078 141.13H112.151V115.444C112.151 104.983 120.659 96.4867 131.12 96.4867C141.582 96.4867 150.09 104.995 150.09 115.444V141.13H150.078ZM117.619 135.662H144.599V115.456C144.599 108.023 138.541 101.966 131.109 101.966C123.676 101.966 117.619 108.012 117.619 115.456V135.662Z" fill="#B6C7E1"/>
<path d="M153.8 121.721H108.429C105.881 121.721 103.816 123.786 103.816 126.334V160.296C103.816 162.843 105.881 164.908 108.429 164.908H153.8C156.347 164.908 158.412 162.843 158.412 160.296V126.334C158.412 123.786 156.347 121.721 153.8 121.721Z" fill="#349191"/>
<path d="M131.167 145.222C133.848 145.222 136.022 143.048 136.022 140.367C136.022 137.686 133.848 135.512 131.167 135.512C128.485 135.512 126.312 137.686 126.312 140.367C126.312 143.048 128.485 145.222 131.167 145.222Z" fill="#FFF3F3"/>
<path d="M130.323 141.026L126.312 155.753H136.773L132.276 141.026H130.323Z" fill="#FFF3F3"/>
<path d="M153.268 120.461C154.274 120.08 155.372 119.999 156.413 120.253C158.204 120.693 160.828 121.883 162.262 125.108C164.585 130.322 163.822 132.819 160.32 135.466L151.835 120.993L153.268 120.461Z" fill="#F6B79C"/>
<path d="M151.847 121.005L145.396 123.432C144.61 123.733 144.206 124.611 144.506 125.409L144.668 125.825C144.934 126.542 145.685 126.946 146.425 126.784L156.817 124.496L151.858 121.005H151.847Z" fill="#F6B79C"/>
<path d="M155.476 123.559L149.095 129.778C148.494 130.368 148.471 131.339 149.061 131.94L149.107 131.998C149.616 132.518 150.425 132.61 151.037 132.217L158.378 127.49L155.476 123.571V123.559Z" fill="#F6B79C"/>
<path d="M157.383 127.825L152.505 132.738C151.939 133.316 151.916 134.229 152.447 134.83L152.471 134.853C153.025 135.489 153.996 135.547 154.621 134.992L160.574 130.114L157.383 127.825Z" fill="#F6B79C"/>
<path d="M160.331 135.466L157.707 137.257C157.048 137.708 156.158 137.57 155.661 136.957C155.152 136.333 155.21 135.431 155.788 134.888L159.915 130.195L160.331 135.466Z" fill="#F6B79C"/>
<path d="M70.7905 120.681C70.7905 120.681 60.6642 132.738 55.7745 150.713C54.9191 153.857 56.9767 157.175 59.9013 158.146C62.5138 159.013 65.265 157.799 66.5018 155.221L85.1244 122.369L70.7905 120.669V120.681Z" fill="#F6B79C"/>
<path d="M79.1831 105.642C79.1831 105.642 70.4671 110.162 61.6587 122.97L80.5009 139.558L89.4249 122.288L79.1831 105.642Z" fill="#E8BF40"/>
<path d="M87.8531 129.836L80.5127 139.558" stroke="black" stroke-width="0.31" stroke-linecap="round" stroke-linejoin="round"/>
<path d="M60.7223 158.354C60.7223 158.354 77.9115 161.648 99.2621 161.648L99.8979 154.643L62.6759 147.083C59.7166 146.332 56.688 148.077 55.8557 151.013C54.931 154.25 57.4163 157.776 60.7223 158.354Z" fill="#F6B79C"/>
<path d="M97.1235 158.065C97.1235 158.065 95.5167 153.938 100.649 151.753L108.498 148.239C109.203 147.939 110.001 148.32 110.221 149.06C110.359 149.557 110.186 150.089 109.781 150.412L106.325 153.21L117.526 152.632C118.37 152.551 119.087 153.244 119.029 154.088C118.983 154.747 118.486 155.279 117.838 155.36L110.313 156.238L110.221 156.608L118.127 156.805C118.96 156.897 119.491 157.73 119.237 158.527C119.04 159.128 118.451 159.51 117.827 159.44L109.955 159.648L109.793 160.099L116.763 161.07C118.636 161.348 118.705 162.319 118.532 162.908C118.37 163.463 116.821 163.301 116.255 163.186L108.776 162.619L108.614 163.024L115.156 164.191C115.711 164.434 115.908 165.128 115.561 165.625C115.307 165.983 114.844 166.122 114.44 165.96L106.822 164.885C106.822 164.885 97.4934 163.81 96.2681 160.169L97.1119 158.065H97.1235Z" fill="#F6B79C"/>
<path d="M101.065 54.3172C101.065 54.3172 98.4296 50.9534 89.4015 53.4849C80.6971 55.9356 82.5814 66.0271 79.0095 68.6974C75.4491 71.3676 74.2585 74.6852 74.9405 80.072C75.6225 85.4588 69.9236 84.1873 70.9408 95.4348L121.248 95.6197C121.248 95.6197 124.3 90.4641 119.04 81.8407C119.04 81.8407 116.671 79.101 117.179 74.9742C117.688 70.8359 118.913 66.2814 113.168 61.646C109.527 58.7099 111.654 52.4792 101.065 54.3288V54.3172Z" fill="black"/>
<path d="M94.3724 80.5344L92.1299 102.636L102.487 102.949L101.967 83.5052L94.3724 80.5344Z" fill="#F6B79C"/>
<path d="M102.313 95.6428C102.313 95.6428 96.1869 92.3946 92.9502 83.5399L102.036 85.9328L102.313 95.6313V95.6428Z" fill="#9B4A32"/>
<path d="M106.359 82.1296C106.336 80.7887 106.568 79.4363 107.122 78.1531C107.874 76.3845 109.145 74.6274 111.469 75.3326C115.445 76.5348 112.428 82.4533 108.625 83.3203C107.504 83.5746 106.371 82.9735 106.359 82.1296Z" fill="#9B4A32"/>
<path d="M103.886 56.9066C103.886 56.9066 112.741 56.9991 112.313 68.3737C111.885 79.7484 109.365 88.395 104.395 90.2676C100.025 91.9206 94.9506 90.73 91.8063 85.9674C90.5695 84.0948 89.9106 81.91 89.6909 79.7021L90.5232 70.6625C90.5232 70.6625 86.1999 56.4095 103.886 56.9066Z" fill="#F6B79C"/>
<path d="M91.3315 81.6673C91.3084 80.2686 91.031 78.8814 90.4414 77.5636C89.6323 75.7488 88.3029 73.9801 86.0026 74.7893C82.0723 76.1649 85.2859 82.2106 89.1121 82.9735C90.2449 83.1931 91.3547 82.5458 91.3315 81.6673Z" fill="#F6B79C"/>
<path d="M89.0549 72.5005C89.0549 72.5005 102.441 64.5012 100.695 55.7622C100.695 55.7622 98.9152 53.0341 91.6326 54.6525C84.3501 56.2708 82.0266 67.264 83.8184 70.4891L89.0549 72.5005Z" fill="black"/>
<path d="M97.3779 57.7851C97.3779 57.7851 102.429 57.2418 107.527 61.0565C109.897 62.8367 111.885 65.2989 112.336 67.5761C112.637 69.0673 114.556 73.0207 114.556 73.0207C114.556 73.0207 114.891 65.1833 111.689 60.1664C108.475 55.1495 101.875 55.0686 97.3895 57.7967L97.3779 57.7851Z" fill="black"/>
<path d="M99.5276 73.379C99.5276 73.379 102.256 73.1709 102.429 74.5118C102.603 75.8412 99.3658 75.795 99.3658 75.795C99.3658 75.795 96.5568 76.0493 96.4528 74.8008C96.3372 73.5524 99.5276 73.3906 99.5276 73.3906V73.379Z" fill="white"/>
<mask id="mask2_12_3248" style="mask-type:luminance" maskUnits="userSpaceOnUse" x="96" y="73" width="7" height="3">
<path d="M99.5276 73.379C99.5276 73.379 102.256 73.1709 102.429 74.5118C102.603 75.8412 99.3658 75.795 99.3658 75.795C99.3658 75.795 96.5568 76.0493 96.4528 74.8008C96.3372 73.5524 99.5276 73.3906 99.5276 73.3906V73.379Z" fill="white"/>
</mask>
<g mask="url(#mask2_12_3248)">
<path d="M98.2214 74.6737C98.2792 75.4829 99.0652 76.0955 100.002 76.0377C100.926 75.9799 101.631 75.2632 101.585 74.4541C101.527 73.6449 100.741 73.0322 99.805 73.09C98.8803 73.1478 98.1751 73.8645 98.2214 74.6737Z" fill="#060606"/>
</g>
<path d="M108.821 73.483C108.821 73.483 106.706 73.3212 106.567 74.5928C106.428 75.8643 108.914 75.8412 108.914 75.8412C108.914 75.8412 111.087 75.9799 111.191 74.7893C111.295 73.5986 108.833 73.483 108.833 73.483H108.821Z" fill="white"/>
<mask id="mask3_12_3248" style="mask-type:luminance" maskUnits="userSpaceOnUse" x="106" y="73" width="6" height="3">
<path d="M108.821 73.483C108.821 73.483 106.706 73.3212 106.567 74.5928C106.428 75.8643 108.914 75.8412 108.914 75.8412C108.914 75.8412 111.087 75.9799 111.191 74.7893C111.295 73.5986 108.833 73.483 108.833 73.483H108.821Z" fill="white"/>
</mask>
<g mask="url(#mask3_12_3248)">
<path d="M110.243 74.7084C110.197 75.4829 109.538 76.0724 108.775 76.0146C108.012 75.9684 107.434 75.2979 107.492 74.5234C107.538 73.7489 108.197 73.1594 108.96 73.2172C109.723 73.2634 110.301 73.9339 110.243 74.7084Z" fill="#060606"/>
</g>
<path d="M96.0133 70.8359L100.626 69.9111C101.354 69.8418 101.862 69.1598 101.724 68.4431C101.597 67.7957 100.984 67.368 100.337 67.4605L95.7706 68.8014C95.2157 68.8823 94.8342 69.391 94.892 69.9458C94.9614 70.5007 95.4584 70.9053 96.0133 70.8475V70.8359Z" fill="black"/>
<path d="M111.041 70.6625L108.429 69.9921C107.77 69.9343 107.377 69.2869 107.573 68.5933C107.7 68.1425 108.047 67.7957 108.452 67.6686C108.683 67.5992 108.937 67.6223 109.157 67.7148L111.457 68.6858C111.943 68.9401 112.255 69.2291 112.151 69.7724C112.035 70.3042 111.55 70.7087 111.041 70.6625Z" fill="black"/>
<path d="M106.001 77.2399L107.238 79.968L105.966 80.5229" stroke="black" stroke-width="0.32" stroke-linecap="round" stroke-linejoin="round"/>
<path d="M106.868 82.4996L100.579 82.2799C100.579 82.2799 101.192 84.4647 103.596 84.4647C106.116 84.4647 106.879 82.4996 106.879 82.4996H106.868Z" fill="white"/>
<defs>
<clipPath id="clip0_12_3248">
<rect width="65" height="78" fill="white" transform="translate(194 127)"/>
</clipPath>
</defs>
</svg>
