<svg width="36" height="36" viewBox="0 0 36 36" fill="none" xmlns="http://www.w3.org/2000/svg">
<path d="M29.566 4.58381C26.156 3.97266 23.0152 2.11022 21.4467 1.05448C20.422 0.364711 19.2301 0 17.9998 0C16.7695 0 15.5776 0.364711 14.553 1.05441C12.9844 2.11022 9.84365 3.97266 6.43357 4.58374C4.41377 4.94578 2.94775 6.6934 2.94775 8.73914V17.2266C2.94775 20.0304 3.73216 22.7637 5.27925 25.3503C6.48954 27.374 8.16656 29.3081 10.2636 31.0989C13.7895 34.11 17.2809 35.6801 17.4278 35.7455L17.9998 36L18.5718 35.7455C18.7186 35.6801 22.2101 34.11 25.736 31.0988C27.833 29.3081 29.51 27.3739 30.7203 25.3503C32.2674 22.7636 33.0518 20.0303 33.0518 17.2265V8.73914C33.0518 6.6934 31.5858 4.94578 29.566 4.58381ZM30.2384 17.2265C30.2384 21.4066 28.1267 25.3388 23.9618 28.9141C21.5406 30.9926 19.0826 32.3472 17.9998 32.8968C16.9163 32.3468 14.4586 30.9923 12.0378 28.9141C7.87293 25.3387 5.76124 21.4065 5.76124 17.2265V8.73914C5.76124 8.05746 6.25272 7.47457 6.9299 7.35314C10.8474 6.65114 14.3718 4.56785 16.1241 3.38843C16.6828 3.01226 17.3314 2.81348 17.9998 2.81348C18.6682 2.81348 19.3168 3.01226 19.8756 3.3885C21.6278 4.56785 25.1522 6.65114 29.0697 7.35314C29.7468 7.47457 30.2384 8.05739 30.2384 8.73914V17.2265Z" fill="#F15D22"/>
<path d="M26.4121 9.61155C23.2405 8.68687 20.5027 7.15131 18.7645 6.02582L17.9999 5.53082L17.2353 6.02582C15.497 7.15131 12.7591 8.68694 9.5877 9.61155L8.57471 9.90693V17.2264C8.57471 19.0239 9.07639 20.7364 10.1085 22.4619C11.0046 23.9604 12.2864 25.4265 13.9178 26.8198C14.9229 27.6782 16.047 28.495 17.2587 29.2475L18.0008 29.7084L18.743 29.2475C20.0314 28.4474 21.2213 27.5732 22.2797 26.6492C23.8573 25.2719 25.0944 23.8259 25.9567 22.3515C26.9447 20.6619 27.425 18.9855 27.425 17.2265V9.90693L26.4121 9.61155ZM24.6116 17.2264C24.6116 18.4725 24.2571 19.6843 23.5281 20.9312C22.8198 22.1424 21.7772 23.353 20.4295 24.5297C19.6902 25.175 18.8759 25.7951 18.0008 26.3795C17.1918 25.8395 16.4355 25.2701 15.745 24.6804C14.3462 23.4858 13.2622 22.2535 12.5231 21.0179C11.7594 19.7412 11.3883 18.501 11.3883 17.2265V11.995C14.0239 11.1112 16.3206 9.89624 18 8.8687C19.6792 9.8961 21.9758 11.1111 24.6116 11.9949V17.2264Z" fill="#F15D22"/>
</svg>
