<svg width="36" height="36" viewBox="0 0 36 36" fill="none" xmlns="http://www.w3.org/2000/svg">
<g clip-path="url(#clip0_45_399)">
<path d="M33.2197 11.4141C33.6796 10.996 35.5194 9.28163 35.5612 6.73105C35.603 4.89128 34.7249 3.21877 32.9688 1.71351L32.927 1.6717C30.8364 0.0409961 28.9966 -0.0426295 27.8258 0.166435C25.777 0.54275 24.3972 2.0062 23.8118 2.80064C21.972 2.08982 20.0068 1.71351 17.9998 1.71351C15.9928 1.71351 14.0276 2.08982 12.2297 2.71702C11.6025 1.92257 10.2644 0.459124 8.21562 0.082809C7.04486 -0.126255 5.2051 -0.0426295 3.11446 1.58807L3.07264 1.62988C1.27469 3.21877 0.396624 4.89128 0.438437 6.73105C0.48025 9.28163 2.2782 10.996 2.77995 11.4141C1.73463 13.5883 1.19107 16.0135 1.19107 18.6059C1.19107 22.829 2.77995 26.7176 5.37235 29.6863C5.33054 29.7281 5.33054 29.7281 5.28872 29.7699L2.86358 33.4076C2.36183 34.1603 2.57089 35.2056 3.32352 35.7073C3.61621 35.9164 3.95071 36 4.2434 36C4.78697 36 5.33054 35.7491 5.62323 35.2474L7.79749 31.986C10.6408 34.1603 14.153 35.4565 17.9998 35.4565C21.8466 35.4565 25.4007 34.1603 28.244 31.9442L30.46 35.2474C30.7945 35.7491 31.2963 36 31.8399 36C32.1744 36 32.4671 35.9164 32.7597 35.7073C33.5124 35.2056 33.7214 34.1603 33.2197 33.4076L30.7945 29.7699C30.7527 29.7281 30.7109 29.6863 30.6691 29.6445C33.2197 26.6758 34.7668 22.829 34.7668 18.6059C34.8086 16.0135 34.265 13.5883 33.2197 11.4141ZM28.4112 3.42783C29.122 3.3024 29.9165 3.59509 30.7945 4.26409C31.7562 5.10035 32.2162 5.89479 32.2162 6.68923C32.2162 7.40005 31.798 8.06906 31.4217 8.48719C30.1673 6.81467 28.6203 5.43485 26.8641 4.3059C27.2823 3.88778 27.8258 3.51146 28.4112 3.42783ZM3.78346 6.68923C3.78346 5.89479 4.2434 5.10035 5.2051 4.26409C6.08317 3.59509 6.87761 3.3024 7.58843 3.42783C8.17381 3.55327 8.71737 3.92959 9.1355 4.3059C7.37936 5.39304 5.83229 6.81467 4.57791 8.48719C4.2434 8.02724 3.78346 7.40005 3.78346 6.68923ZM17.9998 32.1114C10.5571 32.1114 4.53609 26.0486 4.53609 18.6059C4.53609 11.1632 10.5571 5.05853 17.9998 5.05853C25.4425 5.05853 31.4635 11.1214 31.4635 18.5641C31.4635 26.0068 25.4425 32.1114 17.9998 32.1114ZM24.0627 22.2854C24.7317 22.9544 24.7317 23.9997 24.0627 24.6687C23.7282 25.0032 23.31 25.1705 22.8919 25.1705C22.4738 25.1705 22.0557 25.0032 21.7212 24.6687L16.8291 19.7766C16.5364 19.4421 16.3273 19.024 16.3273 18.6059V9.57432C16.3273 8.65444 17.0799 7.90181 17.9998 7.90181C18.9197 7.90181 19.6723 8.65444 19.6723 9.57432V17.8951L24.0627 22.2854Z" fill="#F15D22"/>
</g>
<defs>
<clipPath id="clip0_45_399">
<rect width="36" height="36" fill="white"/>
</clipPath>
</defs>
</svg>
