<svg width="36" height="36" viewBox="0 0 36 36" fill="none" xmlns="http://www.w3.org/2000/svg">
<path d="M17.5 2.24084C18.0169 2.24085 18.5234 2.38891 18.96 2.66858C19.3962 2.94809 19.745 3.34712 19.9658 3.81897L23.5283 11.361L31.7197 12.4596H31.7188C32.2309 12.526 32.7138 12.738 33.1113 13.0709C33.5089 13.4038 33.8057 13.8434 33.9658 14.3395C34.1259 14.8355 34.1433 15.3679 34.0166 15.8737C33.8898 16.3794 33.6235 16.8387 33.249 17.1979L27.2588 22.9567L28.7646 31.1735L28.792 31.3668C28.8402 31.819 28.7774 32.2775 28.6074 32.7008C28.4131 33.1846 28.0862 33.603 27.666 33.9069C27.2459 34.2106 26.7492 34.3882 26.2334 34.4176C25.7175 34.447 25.2033 34.3271 24.752 34.0729V34.0719L17.4951 30.1266L10.2363 34.0739L10.2354 34.0729C9.83856 34.3041 9.39062 34.4309 8.93262 34.4401H8.93164C8.53155 34.4417 8.13536 34.3544 7.77246 34.1842C7.40971 34.014 7.0881 33.7653 6.83105 33.4557C6.57401 33.146 6.38812 32.7828 6.28516 32.3922C6.1822 32.0016 6.16485 31.5929 6.23535 31.1949V31.194L7.74023 22.9772L1.75098 17.1979C1.37651 16.8387 1.11016 16.3794 0.983398 15.8737C0.856664 15.3679 0.874112 14.8355 1.03418 14.3395C1.19426 13.8434 1.49111 13.4038 1.88867 13.0709C2.28607 12.7382 2.76839 12.5261 3.28027 12.4596L11.4707 11.361L15.0342 3.81897C15.255 3.34712 15.6038 2.94809 16.04 2.66858C16.4766 2.38891 16.9831 2.24084 17.5 2.24084ZM17.4941 4.76526C17.4487 4.76516 17.4038 4.77768 17.3652 4.80237C17.3267 4.82709 17.2959 4.8628 17.2764 4.90491V4.90588L13.4629 13.0699V13.0709C13.3731 13.2597 13.2375 13.4228 13.0693 13.5455C12.9011 13.6682 12.705 13.7455 12.499 13.7721L12.5 13.7731L3.63672 14.9615C3.59187 14.9676 3.54956 14.9867 3.51465 15.0162C3.47976 15.0459 3.45335 15.0853 3.43945 15.1295C3.42559 15.1739 3.42465 15.2222 3.43652 15.2672C3.44837 15.312 3.47246 15.3522 3.50586 15.3834L3.50781 15.3854L9.98926 21.6412L10.0947 21.7545C10.1922 21.8743 10.2671 22.0118 10.3154 22.1598C10.3799 22.3573 10.3943 22.5683 10.3584 22.7731V22.774L8.69922 31.6373V31.6383C8.69055 31.6839 8.69518 31.7309 8.71191 31.774C8.72809 31.8156 8.75528 31.8517 8.79004 31.8785C8.82781 31.9022 8.87081 31.9156 8.91504 31.9156C8.95973 31.9156 9.00391 31.9026 9.04199 31.8785L9.04785 31.8756L16.9111 27.5582C17.0933 27.4582 17.2975 27.4059 17.5049 27.4059C17.7125 27.4059 17.9173 27.458 18.0996 27.5582L25.9521 31.8756L25.958 31.8785L26.0186 31.9059C26.0399 31.9121 26.0625 31.9156 26.085 31.9156C26.1289 31.9156 26.1714 31.9019 26.209 31.8785C26.244 31.8516 26.2718 31.8158 26.2881 31.774C26.3048 31.7309 26.3095 31.6839 26.3008 31.6383V31.6373L24.6719 22.7428V22.7418C24.636 22.5371 24.6514 22.3261 24.7158 22.1285C24.7802 21.9313 24.8918 21.753 25.041 21.61L31.5234 15.3541C31.5543 15.3227 31.5765 15.2832 31.5869 15.2399C31.5975 15.1959 31.5957 15.1491 31.582 15.1061C31.5683 15.0632 31.5433 15.0249 31.5098 14.9957C31.477 14.9672 31.4368 14.9485 31.3945 14.941L22.5312 13.7526V13.7516C22.3215 13.7338 22.1194 13.6636 21.9443 13.5455C21.7679 13.4265 21.625 13.2635 21.5283 13.0729L21.5264 13.0699L17.7139 4.90588L17.7129 4.90491C17.6933 4.86282 17.6626 4.82706 17.624 4.80237C17.5854 4.77767 17.5406 4.7651 17.4951 4.76526H17.4941Z" fill="#F15D22" stroke="#F15D22" stroke-width="0.2"/>
</svg>
