<svg width="36" height="36" viewBox="0 0 36 36" fill="none" xmlns="http://www.w3.org/2000/svg">
<mask id="mask0_111_857" style="mask-type:luminance" maskUnits="userSpaceOnUse" x="0" y="0" width="36" height="36">
<path d="M34.75 34.75V1.25H1.25V34.75H34.75Z" fill="white" stroke="white" stroke-width="2.5"/>
</mask>
<g mask="url(#mask0_111_857)">
<path d="M26.6666 17.3715C27.549 16.4892 27.549 15.0585 26.6666 14.1761C25.7843 13.2938 24.3536 13.2938 23.4713 14.1761C22.4959 15.1522 21.252 16.3954 20.276 17.3715C19.3937 18.2538 19.3937 19.6845 20.276 20.5668C21.1589 21.4491 22.589 21.4491 23.4713 20.5668C24.4474 19.5907 25.6912 18.3475 26.6666 17.3715Z" stroke="#F15D22" stroke-width="2.5" stroke-miterlimit="10" stroke-linecap="round" stroke-linejoin="round"/>
<path d="M29.0632 21.3655C29.9455 20.4832 29.9455 19.0525 29.0632 18.1702C28.181 17.2879 26.7502 17.2879 25.868 18.1702C25.1167 18.9215 24.2225 19.8156 23.4713 20.5668C22.589 21.4491 22.589 22.8793 23.4713 23.7621C24.3536 24.6444 25.7843 24.6444 26.6666 23.7621C27.4179 23.0103 28.3119 22.1167 29.0632 21.3655Z" stroke="#F15D22" stroke-width="2.5" stroke-miterlimit="10" stroke-linecap="round" stroke-linejoin="round"/>
<path d="M31.459 25.3593C31.8831 24.9357 32.1209 24.3607 32.1209 23.7619C32.1209 23.1626 31.8831 22.5876 31.459 22.1639C31.0354 21.7403 30.4609 21.5025 29.8616 21.5025C29.2623 21.5025 28.6879 21.7403 28.2642 22.1639C27.7496 22.678 27.1802 23.2473 26.6662 23.7619C26.2426 24.1856 26.0049 24.76 26.0049 25.3593C26.0049 25.9586 26.2426 26.533 26.6662 26.9567C27.0899 27.3809 27.6649 27.6187 28.2642 27.6187C28.8629 27.6187 29.438 27.3809 29.8616 26.9567C30.3756 26.4427 30.945 25.8733 31.459 25.3593Z" stroke="#F15D22" stroke-width="2.5" stroke-miterlimit="10" stroke-linecap="round" stroke-linejoin="round"/>
<path d="M23.4711 14.176C23.4711 14.176 26.9449 10.7028 29.063 8.5846C29.4867 8.1604 29.7245 7.58595 29.7245 6.98668C29.7245 6.3874 29.4867 5.81295 29.063 5.38932C28.6394 4.96561 28.0644 4.72733 27.4651 4.72733C26.8658 4.72733 26.2913 4.96561 25.8677 5.38932L13.8857 17.3713C13.8857 17.3713 13.3813 15.1871 12.8356 12.8215C12.5645 11.6461 11.6766 10.7101 10.5164 10.3774C9.35681 10.0447 8.10792 10.3678 7.25496 11.2213C7.2544 11.2213 7.2544 11.2219 7.2544 11.2219L7.26797 24.7781L3.87891 28.1672L10.657 34.9453H20.4701C21.3688 34.9453 22.2307 34.5878 22.8661 33.9523C25.3175 31.5015 31.4591 25.3593 31.4591 25.3593" stroke="#F15D22" stroke-width="2.5" stroke-miterlimit="10" stroke-linecap="round" stroke-linejoin="round"/>
<path d="M13.8857 17.3715C13.8857 17.3715 14.2077 17.6935 14.6844 18.1702C16.8901 20.3759 16.8901 23.9525 14.6844 26.1582" stroke="#F15D22" stroke-width="2.5" stroke-miterlimit="10" stroke-linecap="round" stroke-linejoin="round"/>
<path d="M14.0459 5.57324V1.05447" stroke="#F15D22" stroke-width="2.5" stroke-miterlimit="10" stroke-linecap="round" stroke-linejoin="round"/>
<path d="M9.52759 5.57324L8.39795 4.4436" stroke="#F15D22" stroke-width="2.5" stroke-miterlimit="10" stroke-linecap="round" stroke-linejoin="round"/>
<path d="M18.5649 5.57324L19.6946 4.4436" stroke="#F15D22" stroke-width="2.5" stroke-miterlimit="10" stroke-linecap="round" stroke-linejoin="round"/>
</g>
</svg>
