<svg width="36" height="36" viewBox="0 0 36 36" fill="none" xmlns="http://www.w3.org/2000/svg">
<mask id="mask0_111_821" style="mask-type:luminance" maskUnits="userSpaceOnUse" x="0" y="0" width="36" height="36">
<path d="M35 35V1H1V35H35Z" fill="white" stroke="white" stroke-width="2"/>
</mask>
<g mask="url(#mask0_111_821)">
<path d="M24.6339 4.80894C30.1084 10.2835 30.1084 19.1594 24.6339 24.6339C19.1594 30.1084 10.2835 30.1084 4.80897 24.6339C-0.66549 19.1594 -0.66549 10.2835 4.80897 4.80894C10.2835 -0.665518 19.1594 -0.665518 24.6339 4.80894Z" stroke="#F15D22" stroke-width="2" stroke-miterlimit="10" stroke-linecap="round" stroke-linejoin="round"/>
<path d="M22.3473 22.3469C18.1425 26.5517 11.3008 26.5517 7.09595 22.3469C2.89119 18.1421 2.89119 11.3004 7.09595 7.09552C11.3008 2.89077 18.1425 2.89077 22.3473 7.09559C26.5521 11.3004 26.5521 18.1421 22.3473 22.3469Z" stroke="#F15D22" stroke-width="2" stroke-miterlimit="10" stroke-linecap="round" stroke-linejoin="round"/>
<path d="M9.25898 20.1841C6.24701 17.1721 6.24701 12.2713 9.25898 9.25928" stroke="#F15D22" stroke-width="2" stroke-miterlimit="10" stroke-linecap="round" stroke-linejoin="round"/>
<path d="M26.1466 23.1212L34.6701 31.6448C35.5056 32.4802 35.5056 33.8348 34.6701 34.6702C33.8347 35.5058 32.4801 35.5058 31.6447 34.6702L23.1211 26.1467" stroke="#F15D22" stroke-width="2" stroke-miterlimit="10" stroke-linecap="round" stroke-linejoin="round"/>
<path d="M26.3462 29.2114L29.2114 26.3463" stroke="#F15D22" stroke-width="2" stroke-miterlimit="10" stroke-linecap="round" stroke-linejoin="round"/>
</g>
</svg>
