<svg width="300" height="78" viewBox="0 0 300 78" fill="none" xmlns="http://www.w3.org/2000/svg">
<g clip-path="url(#clip0_3235_1577)">
<path d="M180.668 19.2387C163.701 19.2387 156.357 30.6911 153.877 40.3514C153.224 42.9322 152.904 45.6934 152.904 48.3366C152.904 54.602 154.654 61.0438 158.37 66.1284C163.745 73.5101 172.347 77.1176 181.342 77.4443C190.497 77.7865 196.627 76.2138 201.221 73.5423C202.114 73.0226 202.302 72.4035 202.302 70.7187V63.2931C202.302 61.7672 201.396 61.0633 199.982 61.9837C195.046 65.132 189.08 67.0781 181.508 66.4726C173.881 65.8798 167.572 60.5105 166.978 52.9064H204.65C205.479 52.9064 206.144 52.2766 206.202 51.364C206.819 41.0153 203.853 19.2387 180.668 19.2387ZM167.095 42.6641C167.095 38.4287 170.604 30.3732 180.667 30.3732C186.226 30.3732 192.743 33.5751 192.743 42.6641H167.095Z" fill="white"/>
<path d="M109.495 42.5148C109.495 34.9284 107.81 29.1027 104.177 25.2086C100.416 21.1711 93.2534 19.2552 86.5097 19.2552C79.7689 19.2552 72.8573 21.0054 67.1165 24.4227C66.7398 24.6519 66.5165 25.0526 66.5165 25.4913V25.5537C66.5165 25.5537 67.0291 33.8988 67.0291 33.9309C67.1165 35.0571 68.4554 35.4227 69.466 34.7841C77.7583 29.5951 87.7253 28.6416 92.7612 31.1931C96.302 32.9832 97.2456 36.7692 97.2456 39.2154V40.4303H83.3787C77.433 40.4303 59.1845 42.5499 59.1845 59.4867V59.67V59.7577C59.1952 65.5307 61.1631 70.2 65.0942 73.2644C68.7243 76.1397 73.7088 77.5105 79.868 77.5105L107.874 77.5047C108.782 77.5047 109.512 76.753 109.512 75.8579L109.495 42.5148ZM97.2495 67.158H80.6835C78.4874 67.0254 76.5709 66.4579 74.8136 65.1095C72.9223 63.6265 72.066 61.9105 72.0408 59.6368C72.0738 56.6494 74.0495 50.6298 84.1321 50.6298H97.2505L97.2495 67.158Z" fill="white"/>
<path d="M245.911 19.89C244.156 19.4171 240.308 19.2514 239.284 19.2572C232.339 19.2514 226.103 22.0574 221.829 26.3367C218.702 29.4821 214.811 34.4224 214.811 43.0268V75.8599C214.811 76.7744 215.551 77.5135 216.45 77.5135H226.003C226.914 77.5135 227.658 76.7725 227.658 75.8599L227.675 43.874C227.675 33.8588 234.295 29.0355 245.09 31.2761C246.376 31.5442 247.354 30.8549 247.342 29.3768V22.6444C247.34 20.9079 247.16 20.241 245.911 19.89Z" fill="white"/>
<path d="M148.355 65.4703C137.542 67.7069 130.89 62.8836 130.89 52.8362L130.879 33.9144H143.601C144.514 33.9144 145.26 33.1646 145.26 32.251V25.2847C145.26 24.373 144.513 23.6281 143.601 23.6281H130.874L130.868 1.6614C130.868 0.74685 130.119 0 129.22 0H119.66C118.737 0 117.992 0.7488 117.992 1.6614V23.8475V53.6874C117.992 62.3269 121.892 67.2769 125.051 70.4164C129.324 74.7123 135.574 77.5086 142.548 77.5086C143.583 77.5154 147.422 77.3448 149.181 76.8787H149.192C150.44 76.519 150.617 75.8423 150.617 74.1136V67.3744C150.628 65.8846 149.646 65.1982 148.355 65.4703Z" fill="white"/>
<path d="M55.9019 19.2533H44.5874C43.3437 19.2533 42.8864 19.77 42.6252 20.5442L28.7864 65.2333L14.9369 20.5442C14.699 19.771 14.2291 19.2533 12.9951 19.2533H1.67282C0.974759 19.2533 0.402914 19.6979 0.722332 20.5442C0.722332 20.5442 17.3388 73.5452 17.9709 75.3597C18.6107 77.1673 18.7641 77.5115 21.1505 77.5115H36.4301C38.8165 77.5115 38.9544 77.1663 39.599 75.3597C40.2301 73.5481 56.8573 20.5442 56.8573 20.5442C57.1786 19.6969 56.6175 19.2533 55.9019 19.2533Z" fill="white"/>
<path d="M299.982 42.5148C299.982 34.9284 298.3 29.1027 294.662 25.2086C290.902 21.1711 283.741 19.2552 276.999 19.2552C270.258 19.2552 263.346 21.0054 257.604 24.4227C257.228 24.6519 257.005 25.0526 257.005 25.4913V25.5537C257.005 25.5537 257.515 33.8988 257.515 33.9309C257.605 35.0571 258.944 35.4227 259.953 34.7841C268.246 29.5951 278.214 28.6416 283.249 31.1931C286.788 32.9832 287.733 36.7692 287.733 39.2154V40.4303H273.86C267.917 40.4303 249.67 42.5499 249.67 59.4867V59.67V59.7577C249.682 65.5317 251.648 70.2009 255.579 73.2654C259.21 76.1406 264.189 77.5115 270.355 77.5115L298.36 77.5056C299.271 77.5056 299.999 76.7539 299.999 75.8589L299.982 42.5148ZM287.734 67.158H271.168C268.972 67.0254 267.055 66.4579 265.297 65.1095C263.407 63.6265 262.549 61.9105 262.525 59.6368C262.557 56.6494 264.532 50.6298 274.616 50.6298H287.734V67.158Z" fill="white"/>
</g>
<defs>
<clipPath id="clip0_3235_1577">
<rect width="300" height="78" fill="white"/>
</clipPath>
</defs>
</svg>
