<svg width="186" height="27" viewBox="0 0 186 27" fill="none" xmlns="http://www.w3.org/2000/svg">
<g clip-path="url(#clip0_12_3487)">
<path d="M18.8961 3.87731C13.1348 1.56774 7.39541 1.56784 1.63416 3.87731V11.813C1.63438 17.4572 5.06785 22.5108 10.2645 24.5713C15.4617 22.5109 18.8958 17.4574 18.8961 11.813V3.87731ZM20.5302 11.813C20.53 18.2488 16.5452 24.0026 10.5476 26.2275C10.3654 26.295 10.1648 26.295 9.98255 26.2275C3.98494 24.0026 0.000215993 18.2488 0 11.813V3.32562C0 2.99464 0.197088 2.69566 0.500036 2.56719C7.00127 -0.189065 13.5289 -0.189065 20.0301 2.56719C20.3329 2.69575 20.5302 2.99478 20.5302 3.32562V11.813Z" fill="#F15D22"/>
<path d="M15.9139 6.00963C14.0155 5.43722 12.1246 5.14835 10.2667 5.14835C8.40872 5.14835 6.51797 5.43722 4.61949 6.00963V11.8114C4.61949 15.7881 6.83991 19.4295 10.2667 21.2693C13.6935 19.4295 15.9139 15.7881 15.9139 11.8114V6.00963ZM17.5481 11.8114C17.5481 16.5616 14.8093 20.8885 10.6231 22.934C10.398 23.0437 10.1353 23.0437 9.91034 22.934C5.72408 20.8885 2.98535 16.5616 2.98535 11.8114V5.40328L2.99598 5.2726C3.04398 4.97281 3.25387 4.71951 3.54709 4.62236C5.7869 3.88119 8.04044 3.50293 10.2667 3.50293C12.493 3.50293 14.7465 3.88118 16.9863 4.62236C17.3214 4.73335 17.5479 5.04818 17.5481 5.40328V11.8114Z" fill="#F15D22"/>
<path d="M5.91699 8.30652L8.64059 17.0821H11.9089L14.6325 8.30652H12.4537L10.2748 15.4366L8.09586 8.30652H5.91699Z" fill="#F15D22"/>
<path d="M32.0909 19.8484C31.2523 17.9854 30.4416 16.0361 29.6588 14.0005C28.8873 11.9649 28.166 9.92939 27.4951 7.89384H29.8266C30.0949 8.69883 30.3689 9.52112 30.6484 10.3607C30.928 11.2001 31.2075 12.0282 31.4871 12.8447C31.7666 13.6497 32.0462 14.4318 32.3257 15.1908C32.6053 15.9498 32.8792 16.6456 33.1476 17.2781C33.4048 16.6456 33.6731 15.9555 33.9527 15.208C34.2323 14.449 34.5118 13.6612 34.7914 12.8447C35.0821 12.0282 35.3672 11.2001 35.6468 10.3607C35.9263 9.52112 36.1947 8.69883 36.4519 7.89384H38.7162C38.0341 9.92939 37.3073 11.9649 36.5357 14.0005C35.7642 16.0361 34.9591 17.9854 34.1204 19.8484H32.0909ZM42.828 18.3821C43.4545 18.3821 43.9296 18.3476 44.2537 18.2786V15.9671C44.1422 15.9326 43.9799 15.8981 43.7673 15.8636C43.5551 15.8291 43.3203 15.8118 43.0628 15.8118C42.8393 15.8118 42.61 15.8291 42.3752 15.8636C42.1517 15.8981 41.9449 15.9613 41.7547 16.0533C41.5758 16.1453 41.4305 16.2776 41.3186 16.4501C41.2068 16.6111 41.1509 16.8181 41.1509 17.0711C41.1509 17.5656 41.3019 17.9106 41.6038 18.1061C41.9055 18.2901 42.3139 18.3821 42.828 18.3821ZM42.6603 10.6022C43.3312 10.6022 43.896 10.6884 44.3544 10.8609C44.8131 11.0334 45.1762 11.2749 45.4446 11.5854C45.7243 11.8959 45.9201 12.2755 46.0317 12.724C46.1549 13.161 46.2162 13.644 46.2162 14.173V19.6414C45.9033 19.7104 45.4278 19.7909 44.7905 19.8829C44.1644 19.9864 43.4545 20.0382 42.6603 20.0382C42.1349 20.0382 41.6541 19.9864 41.218 19.8829C40.7819 19.7794 40.4073 19.6126 40.0942 19.3826C39.7923 19.1526 39.5519 18.8536 39.373 18.4856C39.2052 18.1176 39.1214 17.6633 39.1214 17.1228C39.1214 16.6053 39.2164 16.1683 39.4065 15.8118C39.6078 15.4553 39.8762 15.1678 40.2116 14.9493C40.5471 14.7192 40.9329 14.5583 41.3689 14.4663C41.8162 14.3628 42.2804 14.311 42.7609 14.311C42.9849 14.311 43.2197 14.3283 43.4654 14.3628C43.7115 14.3857 43.9745 14.4318 44.2537 14.5008V14.1558C44.2537 13.9142 44.226 13.6842 44.1699 13.4657C44.1141 13.2472 44.0135 13.0575 43.8679 12.8965C43.7338 12.724 43.5493 12.5917 43.3144 12.4997C43.0909 12.4077 42.8058 12.3617 42.459 12.3617C41.9894 12.3617 41.5591 12.3962 41.1677 12.4652C40.7763 12.5342 40.4576 12.6147 40.2116 12.7067L39.96 11.0162C40.2172 10.9241 40.5918 10.8322 41.0838 10.7402C41.5758 10.6481 42.1013 10.6022 42.6603 10.6022ZM48.6013 8.44585L50.6308 8.10084V10.8264H53.7506V12.5687H50.6308V16.2431C50.6308 16.9676 50.7423 17.4851 50.9663 17.7956C51.1898 18.1061 51.5701 18.2614 52.1068 18.2614C52.4758 18.2614 52.8 18.2211 53.0797 18.1406C53.3702 18.0601 53.5996 17.9854 53.7673 17.9164L54.1028 19.5724C53.868 19.6759 53.5602 19.7794 53.1803 19.8829C52.8 19.9979 52.3525 20.0554 51.8385 20.0554C51.212 20.0554 50.6866 19.9692 50.2618 19.7967C49.8479 19.6242 49.5179 19.3769 49.2722 19.0549C49.026 18.7214 48.8529 18.3246 48.7522 17.8646C48.6516 17.3931 48.6013 16.8583 48.6013 16.2603V8.44585ZM55.0786 15.3805C55.0786 14.587 55.1901 13.8912 55.414 13.2932C55.6488 12.6952 55.9562 12.2007 56.3365 11.8097C56.7164 11.4072 57.1525 11.1082 57.6448 10.9127C58.1367 10.7057 58.6399 10.6022 59.1544 10.6022C60.362 10.6022 61.3013 10.9874 61.9722 11.7579C62.6541 12.5284 62.9954 13.6785 62.9954 15.208C62.9954 15.323 62.9895 15.4553 62.9786 15.6048C62.9786 15.7428 62.9728 15.8693 62.9619 15.9843H57.1752C57.231 16.7088 57.4771 17.2723 57.9132 17.6749C58.3602 18.0658 59.0034 18.2614 59.8421 18.2614C60.334 18.2614 60.7814 18.2154 61.1839 18.1234C61.5974 18.0313 61.9219 17.9336 62.1568 17.8301L62.4251 19.5379C62.3132 19.5954 62.1568 19.6587 61.9555 19.7277C61.7651 19.7851 61.5416 19.8369 61.2846 19.8829C61.0384 19.9404 60.7701 19.9864 60.4795 20.0209C60.1884 20.0554 59.8924 20.0727 59.5905 20.0727C58.8189 20.0727 58.148 19.9576 57.5777 19.7277C57.0075 19.4861 56.5378 19.1584 56.1688 18.7444C55.7998 18.3189 55.5256 17.8243 55.3469 17.2608C55.1679 16.6858 55.0786 16.059 55.0786 15.3805ZM60.9659 14.449C60.9659 14.1615 60.9265 13.8912 60.8485 13.6382C60.77 13.3737 60.6526 13.1495 60.4962 12.9655C60.3507 12.7699 60.1662 12.6205 59.9427 12.517C59.7301 12.4019 59.4731 12.3445 59.1712 12.3445C58.8579 12.3445 58.5841 12.4077 58.3493 12.5342C58.1145 12.6492 57.9132 12.8044 57.7455 13C57.5886 13.1955 57.4658 13.4197 57.3765 13.6727C57.2867 13.9257 57.2255 14.1845 57.192 14.449H60.9659ZM70.1453 12.7067C69.9776 12.6492 69.7427 12.5917 69.4408 12.5342C69.1502 12.4652 68.8093 12.4307 68.4177 12.4307C68.1942 12.4307 67.9539 12.4537 67.6964 12.4997C67.4507 12.5457 67.2771 12.586 67.1765 12.6205V19.8484H65.1469V11.2577C65.5386 11.1082 66.025 10.9702 66.6062 10.8437C67.1991 10.7057 67.8533 10.6367 68.5686 10.6367C68.7028 10.6367 68.8596 10.6481 69.0383 10.6712C69.2173 10.6826 69.3964 10.7057 69.575 10.7402C69.7541 10.7632 69.9272 10.7977 70.095 10.8437C70.2627 10.8782 70.3969 10.9127 70.4975 10.9472L70.1453 12.7067ZM74.9981 18.3821C75.6246 18.3821 76.0997 18.3476 76.4238 18.2786V15.9671C76.3123 15.9326 76.15 15.8981 75.9374 15.8636C75.7252 15.8291 75.4904 15.8118 75.2329 15.8118C75.0094 15.8118 74.7801 15.8291 74.5452 15.8636C74.3218 15.8981 74.115 15.9613 73.9247 16.0533C73.746 16.1453 73.6005 16.2776 73.4886 16.4501C73.377 16.6111 73.3208 16.8181 73.3208 17.0711C73.3208 17.5656 73.4718 17.9106 73.7737 18.1061C74.0756 18.2901 74.484 18.3821 74.9981 18.3821ZM74.8304 10.6022C75.5013 10.6022 76.0661 10.6884 76.5245 10.8609C76.9832 11.0334 77.3463 11.2749 77.6147 11.5854C77.8944 11.8959 78.0902 12.2755 78.2018 12.724C78.325 13.161 78.3863 13.644 78.3863 14.173V19.6414C78.0734 19.7104 77.5979 19.7909 76.9606 19.8829C76.3345 19.9864 75.6246 20.0382 74.8304 20.0382C74.305 20.0382 73.824 19.9864 73.3879 19.8829C72.9518 19.7794 72.5774 19.6126 72.2641 19.3826C71.9622 19.1526 71.7219 18.8536 71.5429 18.4856C71.3752 18.1176 71.2913 17.6633 71.2913 17.1228C71.2913 16.6053 71.3865 16.1683 71.5764 15.8118C71.7777 15.4553 72.0461 15.1678 72.3815 14.9493C72.717 14.7192 73.1028 14.5583 73.5389 14.4663C73.9863 14.3628 74.4505 14.311 74.931 14.311C75.1549 14.311 75.3898 14.3283 75.6355 14.3628C75.8816 14.3857 76.1446 14.4318 76.4238 14.5008V14.1558C76.4238 13.9142 76.3961 13.6842 76.34 13.4657C76.2842 13.2472 76.1836 13.0575 76.038 12.8965C75.9039 12.724 75.7194 12.5917 75.4845 12.4997C75.261 12.4077 74.9759 12.3617 74.6291 12.3617C74.1595 12.3617 73.7292 12.3962 73.3376 12.4652C72.9464 12.5342 72.6277 12.6147 72.3815 12.7067L72.1299 11.0162C72.3874 10.9241 72.7619 10.8322 73.2537 10.7402C73.746 10.6481 74.2714 10.6022 74.8304 10.6022ZM87.034 19.8484C86.475 18.6639 85.8993 17.3068 85.3064 15.7773C84.7252 14.2362 84.1939 12.586 83.7129 10.8264H85.8766C85.9999 11.3324 86.1396 11.8787 86.296 12.4652C86.4637 13.0402 86.6373 13.621 86.8159 14.2075C87.0063 14.7825 87.1962 15.346 87.3862 15.8981C87.5875 16.4386 87.772 16.9273 87.9397 17.3643C88.1074 16.9273 88.2865 16.4386 88.4764 15.8981C88.6668 15.346 88.8513 14.7825 89.0299 14.2075C89.2203 13.621 89.399 13.0402 89.5667 12.4652C89.7344 11.8787 89.8799 11.3324 90.0028 10.8264H92.0994C91.6189 12.586 91.0821 14.2362 90.4892 15.7773C89.908 17.3068 89.3377 18.6639 88.7784 19.8484H87.034ZM92.9322 15.3805C92.9322 14.587 93.0441 13.8912 93.2676 13.2932C93.5024 12.6952 93.8102 12.2007 94.1901 11.8097C94.5705 11.4072 95.0066 11.1082 95.4984 10.9127C95.9907 10.7057 96.4939 10.6022 97.008 10.6022C98.2157 10.6022 99.1549 10.9874 99.8259 11.7579C100.508 12.5284 100.849 13.6785 100.849 15.208C100.849 15.323 100.844 15.4553 100.832 15.6048C100.832 15.7428 100.827 15.8693 100.815 15.9843H95.0288C95.085 16.7088 95.3307 17.2723 95.7668 17.6749C96.2142 18.0658 96.857 18.2614 97.6957 18.2614C98.188 18.2614 98.635 18.2154 99.0375 18.1234C99.4514 18.0313 99.7755 17.9336 100.01 17.8301L100.279 19.5379C100.167 19.5954 100.01 19.6587 99.8091 19.7277C99.6191 19.7851 99.3956 19.8369 99.1382 19.8829C98.8924 19.9404 98.6241 19.9864 98.3331 20.0209C98.0425 20.0554 97.746 20.0727 97.4441 20.0727C96.6725 20.0727 96.0016 19.9576 95.4313 19.7277C94.8611 19.4861 94.3914 19.1584 94.0224 18.7444C93.6534 18.3189 93.3796 17.8243 93.2005 17.2608C93.0219 16.6858 92.9322 16.059 92.9322 15.3805ZM98.8195 14.449C98.8195 14.1615 98.7805 13.8912 98.7021 13.6382C98.6241 13.3737 98.5067 13.1495 98.3498 12.9655C98.2048 12.7699 98.0203 12.6205 97.7963 12.517C97.5842 12.4019 97.3267 12.3445 97.0248 12.3445C96.712 12.3445 96.4377 12.4077 96.2029 12.5342C95.9681 12.6492 95.7668 12.8044 95.5991 13C95.4427 13.1955 95.3198 13.4197 95.2301 13.6727C95.1408 13.9257 95.0791 14.1845 95.0456 14.449H98.8195ZM105.249 19.8484C104.689 18.6639 104.113 17.3068 103.521 15.7773C102.939 14.2362 102.408 12.586 101.928 10.8264H104.091C104.214 11.3324 104.354 11.8787 104.511 12.4652C104.678 13.0402 104.851 13.621 105.031 14.2075C105.22 14.7825 105.41 15.346 105.601 15.8981C105.802 16.4386 105.987 16.9273 106.154 17.3643C106.322 16.9273 106.501 16.4386 106.691 15.8981C106.881 15.346 107.065 14.7825 107.245 14.2075C107.434 13.621 107.614 13.0402 107.781 12.4652C107.949 11.8787 108.094 11.3324 108.217 10.8264H110.314C109.833 12.586 109.296 14.2362 108.704 15.7773C108.122 17.3068 107.552 18.6639 106.993 19.8484H105.249ZM119.567 15.3288C119.567 16.0418 119.466 16.6916 119.265 17.2781C119.064 17.8646 118.778 18.3649 118.409 18.7789C118.04 19.1929 117.593 19.5149 117.068 19.7449C116.553 19.9749 115.983 20.0899 115.357 20.0899C114.73 20.0899 114.16 19.9749 113.646 19.7449C113.131 19.5149 112.69 19.1929 112.321 18.7789C111.952 18.3649 111.661 17.8646 111.449 17.2781C111.247 16.6916 111.147 16.0418 111.147 15.3288C111.147 14.6157 111.247 13.9717 111.449 13.3967C111.661 12.8102 111.952 12.31 112.321 11.8959C112.701 11.4819 113.148 11.1656 113.663 10.9472C114.177 10.7171 114.742 10.6022 115.357 10.6022C115.971 10.6022 116.536 10.7171 117.051 10.9472C117.576 11.1656 118.024 11.4819 118.393 11.8959C118.762 12.31 119.047 12.8102 119.248 13.3967C119.46 13.9717 119.567 14.6157 119.567 15.3288ZM117.487 15.3288C117.487 14.4318 117.297 13.7245 116.917 13.207C116.548 12.678 116.028 12.4135 115.357 12.4135C114.686 12.4135 114.16 12.678 113.78 13.207C113.411 13.7245 113.227 14.4318 113.227 15.3288C113.227 16.2373 113.411 16.9561 113.78 17.4851C114.16 18.0141 114.686 18.2786 115.357 18.2786C116.028 18.2786 116.548 18.0141 116.917 17.4851C117.297 16.9561 117.487 16.2373 117.487 15.3288ZM116.028 7.35907L113.83 9.87764L112.858 9.11862L114.837 6.27229L116.028 7.35907ZM119.114 7.35907L116.9 9.87764L115.944 9.11862L117.906 6.27229L119.114 7.35907ZM123.708 19.8484C123.149 18.6639 122.574 17.3068 121.981 15.7773C121.4 14.2362 120.868 12.586 120.387 10.8264H122.551C122.674 11.3324 122.814 11.8787 122.97 12.4652C123.138 13.0402 123.312 13.621 123.49 14.2075C123.681 14.7825 123.871 15.346 124.061 15.8981C124.262 16.4386 124.446 16.9273 124.614 17.3643C124.782 16.9273 124.961 16.4386 125.151 15.8981C125.341 15.346 125.526 14.7825 125.704 14.2075C125.895 13.621 126.073 13.0402 126.241 12.4652C126.409 11.8787 126.554 11.3324 126.677 10.8264H128.774C128.293 12.586 127.757 14.2362 127.164 15.7773C126.582 17.3068 126.012 18.6639 125.453 19.8484H123.708ZM129.607 15.3805C129.607 14.587 129.719 13.8912 129.942 13.2932C130.177 12.6952 130.485 12.2007 130.865 11.8097C131.245 11.4072 131.681 11.1082 132.173 10.9127C132.665 10.7057 133.168 10.6022 133.682 10.6022C134.89 10.6022 135.829 10.9874 136.5 11.7579C137.183 12.5284 137.523 13.6785 137.523 15.208C137.523 15.323 137.518 15.4553 137.507 15.6048C137.507 15.7428 137.501 15.8693 137.49 15.9843H131.703C131.759 16.7088 132.005 17.2723 132.441 17.6749C132.889 18.0658 133.532 18.2614 134.37 18.2614C134.862 18.2614 135.309 18.2154 135.712 18.1234C136.126 18.0313 136.45 17.9336 136.685 17.8301L136.953 19.5379C136.842 19.5954 136.685 19.6587 136.484 19.7277C136.294 19.7851 136.07 19.8369 135.813 19.8829C135.567 19.9404 135.299 19.9864 135.008 20.0209C134.717 20.0554 134.42 20.0727 134.119 20.0727C133.347 20.0727 132.676 19.9576 132.106 19.7277C131.536 19.4861 131.066 19.1584 130.697 18.7444C130.328 18.3189 130.054 17.8243 129.875 17.2608C129.696 16.6858 129.607 16.059 129.607 15.3805ZM135.494 14.449C135.494 14.1615 135.455 13.8912 135.377 13.6382C135.299 13.3737 135.181 13.1495 135.024 12.9655C134.879 12.7699 134.695 12.6205 134.471 12.517C134.259 12.4019 134.001 12.3445 133.699 12.3445C133.386 12.3445 133.112 12.4077 132.877 12.5342C132.643 12.6492 132.441 12.8044 132.274 13C132.117 13.1955 131.994 13.4197 131.905 13.6727C131.815 13.9257 131.754 14.1845 131.72 14.449H135.494ZM135.846 7.13482L133.112 9.86039L132.106 8.92887L134.571 5.91003L135.846 7.13482ZM141.269 15.3115C141.269 16.2315 141.481 16.9561 141.906 17.4851C142.331 18.0026 142.918 18.2614 143.667 18.2614C143.992 18.2614 144.265 18.2499 144.489 18.2269C144.724 18.1924 144.914 18.1579 145.06 18.1234V12.9482C144.881 12.8217 144.64 12.7067 144.338 12.6032C144.047 12.4882 143.735 12.4307 143.399 12.4307C142.661 12.4307 142.118 12.6895 141.772 13.207C141.437 13.7245 141.269 14.426 141.269 15.3115ZM147.089 19.5724C146.687 19.6989 146.177 19.8139 145.563 19.9174C144.959 20.0209 144.322 20.0727 143.651 20.0727C142.957 20.0727 142.336 19.9634 141.789 19.7449C141.241 19.5264 140.771 19.2159 140.38 18.8134C140 18.3994 139.703 17.9048 139.491 17.3298C139.29 16.7433 139.189 16.0878 139.189 15.3633C139.189 14.6502 139.273 14.0062 139.441 13.4312C139.619 12.8447 139.877 12.3445 140.212 11.9304C140.548 11.5164 140.956 11.2001 141.437 10.9817C141.917 10.7516 142.471 10.6367 143.097 10.6367C143.522 10.6367 143.896 10.6884 144.221 10.7919C144.545 10.8954 144.825 11.0104 145.06 11.1369V6.80706L147.089 6.46205V19.5724ZM149.181 15.3805C149.181 14.587 149.293 13.8912 149.516 13.2932C149.751 12.6952 150.058 12.2007 150.439 11.8097C150.819 11.4072 151.255 11.1082 151.747 10.9127C152.239 10.7057 152.742 10.6022 153.257 10.6022C154.464 10.6022 155.403 10.9874 156.074 11.7579C156.757 12.5284 157.098 13.6785 157.098 15.208C157.098 15.323 157.092 15.4553 157.081 15.6048C157.081 15.7428 157.075 15.8693 157.064 15.9843H151.277C151.333 16.7088 151.579 17.2723 152.015 17.6749C152.463 18.0658 153.106 18.2614 153.944 18.2614C154.436 18.2614 154.883 18.2154 155.286 18.1234C155.7 18.0313 156.024 17.9336 156.259 17.8301L156.527 19.5379C156.415 19.5954 156.259 19.6587 156.058 19.7277C155.868 19.7851 155.644 19.8369 155.387 19.8829C155.141 19.9404 154.872 19.9864 154.582 20.0209C154.291 20.0554 153.995 20.0727 153.693 20.0727C152.921 20.0727 152.25 19.9576 151.68 19.7277C151.11 19.4861 150.64 19.1584 150.271 18.7444C149.902 18.3189 149.628 17.8243 149.449 17.2608C149.27 16.6858 149.181 16.059 149.181 15.3805ZM155.068 14.449C155.068 14.1615 155.029 13.8912 154.951 13.6382C154.872 13.3737 154.755 13.1495 154.598 12.9655C154.453 12.7699 154.268 12.6205 154.045 12.517C153.832 12.4019 153.575 12.3445 153.273 12.3445C152.96 12.3445 152.686 12.4077 152.451 12.5342C152.217 12.6492 152.015 12.8044 151.848 13C151.691 13.1955 151.568 13.4197 151.479 13.6727C151.389 13.9257 151.328 14.1845 151.294 14.449H155.068ZM162.302 20.0209C161.698 20.0094 161.195 19.9404 160.792 19.8139C160.401 19.6874 160.088 19.5091 159.853 19.2791C159.618 19.0376 159.45 18.7444 159.35 18.3994C159.26 18.0428 159.216 17.6404 159.216 17.1918V6.80706L161.245 6.46205V16.7951C161.245 17.0481 161.262 17.2608 161.295 17.4333C161.34 17.6058 161.413 17.7553 161.513 17.8819C161.614 17.9968 161.748 18.0889 161.916 18.1579C162.095 18.2154 162.319 18.2614 162.587 18.2959L162.302 20.0209ZM163.742 15.3805C163.742 14.587 163.854 13.8912 164.078 13.2932C164.312 12.6952 164.62 12.2007 165 11.8097C165.38 11.4072 165.817 11.1082 166.308 10.9127C166.801 10.7057 167.304 10.6022 167.818 10.6022C169.026 10.6022 169.965 10.9874 170.636 11.7579C171.318 12.5284 171.659 13.6785 171.659 15.208C171.659 15.323 171.653 15.4553 171.642 15.6048C171.642 15.7428 171.637 15.8693 171.625 15.9843H165.839C165.895 16.7088 166.141 17.2723 166.577 17.6749C167.024 18.0658 167.667 18.2614 168.506 18.2614C168.998 18.2614 169.445 18.2154 169.847 18.1234C170.261 18.0313 170.585 17.9336 170.82 17.8301L171.089 19.5379C170.977 19.5954 170.82 19.6587 170.619 19.7277C170.429 19.7851 170.206 19.8369 169.948 19.8829C169.702 19.9404 169.434 19.9864 169.143 20.0209C168.852 20.0554 168.556 20.0727 168.254 20.0727C167.482 20.0727 166.812 19.9576 166.241 19.7277C165.671 19.4861 165.201 19.1584 164.832 18.7444C164.463 18.3189 164.19 17.8243 164.01 17.2608C163.832 16.6858 163.742 16.059 163.742 15.3805ZM169.629 14.449C169.629 14.1615 169.59 13.8912 169.512 13.6382C169.434 13.3737 169.317 13.1495 169.16 12.9655C169.015 12.7699 168.83 12.6205 168.606 12.517C168.394 12.4019 168.137 12.3445 167.835 12.3445C167.522 12.3445 167.248 12.4077 167.013 12.5342C166.778 12.6492 166.577 12.8044 166.409 13C166.253 13.1955 166.13 13.4197 166.04 13.6727C165.951 13.9257 165.889 14.1845 165.856 14.449H169.629ZM178.809 15.1045C178.809 14.1615 178.692 13.483 178.457 13.069C178.234 12.6435 177.808 12.4307 177.182 12.4307C176.959 12.4307 176.713 12.448 176.444 12.4825C176.176 12.517 175.975 12.5457 175.84 12.5687V19.8484H173.811V11.1197C174.202 11.0047 174.711 10.8954 175.337 10.7919C175.975 10.6884 176.646 10.6367 177.35 10.6367C177.954 10.6367 178.446 10.7171 178.826 10.8782C179.217 11.0392 179.542 11.2519 179.799 11.5164C179.922 11.4244 180.079 11.3267 180.268 11.2232C180.458 11.1197 180.671 11.0276 180.906 10.9472C181.141 10.8551 181.387 10.7804 181.644 10.7229C181.912 10.6654 182.181 10.6367 182.449 10.6367C183.131 10.6367 183.69 10.7402 184.126 10.9472C184.574 11.1427 184.92 11.4244 185.166 11.7924C185.423 12.1489 185.597 12.586 185.686 13.1035C185.787 13.6095 185.837 14.1672 185.837 14.7768V19.8484H183.808V15.1045C183.808 14.1615 183.696 13.483 183.472 13.069C183.249 12.6435 182.818 12.4307 182.181 12.4307C181.856 12.4307 181.549 12.4882 181.258 12.6032C180.968 12.7067 180.749 12.8102 180.604 12.9137C180.693 13.2012 180.755 13.506 180.788 13.828C180.822 14.15 180.839 14.495 180.839 14.863V19.8484H178.809V15.1045Z" fill="#F15D22"/>
</g>
<defs>
<clipPath id="clip0_12_3487">
<rect width="186" height="26" fill="white" transform="translate(0 0.5)"/>
</clipPath>
</defs>
</svg>
