<svg width="68" height="68" viewBox="0 0 68 68" fill="none" xmlns="http://www.w3.org/2000/svg">
<path d="M67.0946 31.8141L49.8118 14.5309C48.9239 13.6477 47.5966 13.3852 46.4443 13.8619C45.2897 14.3428 44.5374 15.4647 44.5374 16.7153V24.2656H22.1267C19.8548 24.2679 18.0093 26.1113 18.0093 28.3809V39.6158C18.0093 41.8857 19.8547 43.727 22.1289 43.727H44.5374V51.2817C44.5374 52.5345 45.2898 53.6586 46.4443 54.1395C47.5966 54.6143 48.9239 54.3518 49.8118 53.4663L67.0948 36.183C68.3019 34.9761 68.3019 33.0211 67.0946 31.8141Z" fill="#333333"/>
<path d="M11.4975 24.2703H10.3429C8.42956 24.2703 6.87939 25.8206 6.87939 27.7341V40.2677C6.87939 42.1809 8.42956 43.7315 10.3429 43.7315H11.4975C13.4108 43.7315 14.9612 42.181 14.9612 40.2677V27.7341C14.9612 25.8207 13.4108 24.2703 11.4975 24.2703Z" fill="#333333"/>
<path d="M2.2391 24.1106C1.00158 24.1106 0 25.1122 0 26.3498V41.6541C0 42.8917 1.00158 43.8932 2.2391 43.8932C3.47675 43.8932 4.47834 42.8917 4.47834 41.6541V26.3498C4.47819 25.1122 3.47661 24.1106 2.2391 24.1106Z" fill="#333333"/>
</svg>
