<svg width="1440" height="382" viewBox="0 0 1440 382" fill="none" xmlns="http://www.w3.org/2000/svg">
<mask id="mask0_45_89" style="mask-type:alpha" maskUnits="userSpaceOnUse" x="0" y="0" width="1440" height="382">
<rect width="1440" height="382" fill="#D9D9D9"/>
</mask>
<g mask="url(#mask0_45_89)">
<path d="M1045.39 85.0382C989.726 135.54 839.424 205.612 865.394 323.947C897.321 469.427 996.838 484.903 1076.19 594.068C1155.55 703.233 1217.75 861.952 1316.39 910.792C1427.73 965.921 1542.18 822.192 1578.48 804.923C1616.98 786.612 1753.32 786.919 1786.52 764.404C1937.06 662.327 1826.47 437.23 1672.34 235.71C1333.79 -206.912 1256.9 -181.643 1162.3 -117.908C1104.92 -79.2494 1096.65 38.5374 1045.39 85.0382Z" fill="#349191"/>
<path d="M990.355 548.955C1040.76 604.708 1110.57 755.131 1228.95 729.367C1374.49 697.693 1390.13 598.203 1499.44 519.037C1608.74 439.871 1767.57 377.943 1816.58 279.388C1871.9 168.146 1728.37 53.4528 1711.17 17.1155C1692.92 -21.4175 1693.47 -157.749 1671.01 -190.993C1569.19 -341.706 1343.9 -231.515 1142.12 -77.7307C698.907 260.046 724.043 336.98 787.613 431.695C826.172 489.141 943.944 497.62 990.355 548.955Z" fill="#349191" fill-opacity="0.1"/>
</g>
</svg>
