<svg width="68" height="69" viewBox="0 0 68 69" fill="none" xmlns="http://www.w3.org/2000/svg">
<g clip-path="url(#clip0_45_462)">
<path d="M59.7724 20.1671C61.1962 17.1939 60.9944 13.5919 58.5505 11.148L57.533 10.1306C55.0891 7.68668 51.3902 7.29785 48.5139 8.90864C46.4896 10.0423 42.2056 7.68504 41.8884 6.15817C41.2224 2.95156 38.1279 0.680908 34.6943 0.680908L32.946 0.769716C28.9256 0.973988 25.7706 4.29334 25.7706 8.31894C25.908 10.0649 22.916 11.3569 21.1781 10.221C18.1953 7.23829 13.3593 7.23829 10.3765 10.221L9.53999 11.0576C6.98224 13.6155 6.68508 17.4957 8.44723 20.4825C9.656 22.5315 8.47729 26.1582 6.49142 26.6464C2.8779 27.5349 0 30.1929 0 34.1094V35.3738C0 38.8424 2.52661 41.4303 5.66957 42.5452C8.93058 43.7021 8.6734 48.4856 8.33911 49.0588C6.63354 51.9831 7.03378 55.7979 9.54013 58.3042L10.3767 59.1408C12.8704 61.6345 16.5947 61.9251 19.5782 60.3672C21.7147 59.2515 25.7041 61.3369 26.035 63.0418C26.6763 66.3457 29.8821 68.6809 33.4088 68.6809H34.4971C37.9545 68.6809 40.8819 66.4119 41.8713 63.2816C42.5184 61.2345 45.6508 59.1609 48.7669 60.4718C51.7313 61.7189 55.3826 61.3815 57.6992 59.065L58.46 58.3042C61.4428 55.3215 61.4428 50.4855 58.46 47.5029C57.1201 46.2863 58.8428 42.9316 60.3621 42.9103C64.5806 42.9103 68.0001 39.4906 68.0001 35.2722V33.9646C68.0001 30.4521 65.6684 27.3192 62.3867 26.598C60.18 26.1129 59.058 21.6589 59.7724 20.1671Z" fill="#349191"/>
<path d="M28.0506 45.0619L19.1873 36.1986C18.1251 35.1363 18.1251 33.4142 19.1873 32.352C20.2496 31.2897 21.9718 31.2897 23.034 32.352L29.9739 39.292L44.9657 24.3001C46.028 23.2378 47.7502 23.2378 48.8124 24.3001C49.8745 25.3624 49.8747 27.0846 48.8124 28.1468L31.8974 45.0619C30.7812 46.0143 28.7866 45.8783 28.0506 45.0619Z" fill="white"/>
</g>
<defs>
<clipPath id="clip0_45_462">
<rect width="68" height="68" fill="white" transform="translate(0 0.680908)"/>
</clipPath>
</defs>
</svg>
