<svg width="80" height="79" viewBox="0 0 80 79" fill="none" xmlns="http://www.w3.org/2000/svg">
<path d="M39.75 0.139648C18.033 0.139648 0.424988 17.7387 0.424988 39.4557C0.424988 61.1727 18.033 78.7717 39.75 78.7717C61.458 78.7717 79.066 61.1727 79.066 39.4557C79.066 17.7387 61.457 0.139648 39.75 0.139648ZM50.627 24.1167C50.627 24.4407 50.36 24.7077 50.036 24.7077H45.336C44.182 24.7077 43.248 25.6417 43.248 26.7957V31.7146H49.931C50.274 31.7146 50.551 32.0097 50.522 32.3537L49.931 39.2946C49.912 39.5996 49.655 39.8287 49.349 39.8287H43.248V62.8517C43.248 63.1757 42.981 63.4427 42.657 63.4427H34.248C33.924 63.4427 33.657 63.1757 33.657 62.8517V39.8287H29.453C29.129 39.8287 28.862 39.5717 28.862 39.2377V32.3067C28.862 31.9827 29.129 31.7157 29.453 31.7157H33.657V25.0327C33.657 20.3707 37.432 16.5957 42.094 16.5957H50.035C50.359 16.5957 50.626 16.8526 50.626 17.1866L50.627 24.1167Z" fill="black"/>
</svg>
