<svg width="36" height="36" viewBox="0 0 36 36" fill="none" xmlns="http://www.w3.org/2000/svg">
<g clip-path="url(#clip0_45_372)">
<path d="M0.925346 11.6958L11.6956 0.925507C12.9294 -0.308247 14.9369 -0.308106 16.1705 0.925507L29.6852 14.4403H32.8358C34.5805 14.4403 36 15.8597 36 17.6045V32.836C36 34.5807 34.5805 36.0002 32.8358 36.0002H8.60372C6.85898 36.0002 5.43953 34.5807 5.43953 32.836V20.6848L0.925346 16.1706C-0.308407 14.9369 -0.308407 12.9295 0.925346 11.6958ZM14.6788 2.41711C14.4732 2.2115 14.2031 2.10863 13.933 2.10863C13.6629 2.10863 13.3928 2.2115 13.1872 2.41711L7.63758 7.96675L14.1111 14.4403H26.7021L14.6788 2.41711ZM7.54899 32.836C7.54899 33.4175 8.02214 33.8907 8.60372 33.8907H32.8358C33.4174 33.8907 33.8905 33.4175 33.8905 32.836V17.6045C33.8905 17.0229 33.4174 16.5497 32.8358 16.5497H8.60372C8.02214 16.5497 7.54899 17.0229 7.54899 17.6045V32.836ZM8.17451 14.4701C8.315 14.451 8.45809 14.4403 8.60372 14.4403H11.1279L6.14598 9.45828L4.65431 10.95L8.17451 14.4701ZM2.41695 14.6791L5.43953 17.7016V17.6045C5.43953 16.8027 5.73984 16.0701 6.2331 15.5119L3.16271 12.4416L2.41695 13.1873C2.00567 13.5986 2.00567 14.2678 2.41695 14.6791Z" fill="#F15D22"/>
<path d="M31.7812 28.5884H27.8563V30.6978H31.7812V28.5884Z" fill="#F15D22"/>
<path d="M25.7153 28.5884H21.7904V30.6978H25.7153V28.5884Z" fill="#F15D22"/>
<path d="M19.6494 28.5884H15.7244V30.6978H19.6494V28.5884Z" fill="#F15D22"/>
<path d="M13.5835 28.5884H9.65856V30.6978H13.5835V28.5884Z" fill="#F15D22"/>
<path d="M24.6606 19.7422H31.7812V26.0706H24.6606V19.7422ZM26.7701 23.9611H29.6718V21.8516H26.7701V23.9611Z" fill="#F15D22"/>
</g>
<defs>
<clipPath id="clip0_45_372">
<rect width="36" height="36" fill="white" transform="matrix(-1 0 0 1 36 0)"/>
</clipPath>
</defs>
</svg>
