<svg width="36" height="36" viewBox="0 0 36 36" fill="none" xmlns="http://www.w3.org/2000/svg">
<path d="M34.2787 7.54875L31.8487 2.6775C31.365 1.72125 30.4088 1.125 29.3288 1.125H6.67125C5.6025 1.125 4.635 1.72125 4.15125 2.6775L1.72125 7.54875C1.3275 8.325 1.125 9.19125 1.125 10.0687V32.0737C1.125 33.6263 2.385 34.8862 3.9375 34.8862H32.0625C33.615 34.8862 34.875 33.6263 34.875 32.0737V10.0575C34.875 9.19125 34.6725 8.31375 34.2787 7.5375V7.54875ZM29.835 3.69L31.9275 7.875H22.815L22.0613 3.375H29.3175C29.5312 3.375 29.7225 3.49875 29.8237 3.69H29.835ZM15.255 10.125H20.745V16.02L18.5625 14.7487C18.2138 14.5462 17.7862 14.5462 17.4375 14.7487L15.255 16.02V10.125ZM15.4575 7.875L16.2113 3.375H19.7887L20.5425 7.875H15.4575ZM6.165 3.69C6.255 3.49875 6.4575 3.375 6.67125 3.375H13.9275L13.1737 7.875H4.0725L6.165 3.69ZM32.0625 32.625H3.9375C3.6225 32.625 3.375 32.3775 3.375 32.0625V10.125H13.005V17.9662C13.005 18.3713 13.2188 18.7425 13.5675 18.945C13.9163 19.1475 14.3438 19.1475 14.6925 18.945L18 17.0212L21.3075 18.945C21.4875 19.0462 21.6788 19.1025 21.87 19.1025C22.0613 19.1025 22.2525 19.0575 22.4325 18.9563C22.7812 18.7537 22.995 18.3825 22.995 17.9775V10.1363H32.625V32.0737C32.625 32.3888 32.3775 32.6362 32.0625 32.6362V32.625Z" fill="#F15D22"/>
<path d="M11.8125 23.0625H6.1875C5.56875 23.0625 5.0625 23.5687 5.0625 24.1875V29.8125C5.0625 30.4313 5.56875 30.9375 6.1875 30.9375H11.8125C12.4313 30.9375 12.9375 30.4313 12.9375 29.8125V24.1875C12.9375 23.5687 12.4313 23.0625 11.8125 23.0625ZM10.6875 28.6875H7.3125V25.3125H10.6875V28.6875Z" fill="#F15D22"/>
<path d="M29.8125 28.125H24.1875C23.5687 28.125 23.0625 28.6312 23.0625 29.25C23.0625 29.8687 23.5687 30.375 24.1875 30.375H29.8125C30.4313 30.375 30.9375 29.8687 30.9375 29.25C30.9375 28.6312 30.4313 28.125 29.8125 28.125Z" fill="#F15D22"/>
<path d="M29.8125 23.625H24.1875C23.5687 23.625 23.0625 24.1312 23.0625 24.75C23.0625 25.3687 23.5687 25.875 24.1875 25.875H29.8125C30.4313 25.875 30.9375 25.3687 30.9375 24.75C30.9375 24.1312 30.4313 23.625 29.8125 23.625Z" fill="#F15D22"/>
</svg>
