<svg width="79" height="79" viewBox="0 0 79 79" fill="none" xmlns="http://www.w3.org/2000/svg">
<path d="M41.3267 47.2562C45.4825 46.2748 48.056 42.1104 47.0747 37.9545C46.0934 33.7987 41.9289 31.2253 37.7731 32.2066C33.6172 33.1879 31.0438 37.3524 32.0251 41.5082C33.0064 45.664 37.1709 48.2375 41.3267 47.2562Z" fill="black"/>
<path d="M49.13 19.8647H29.567C23.99 19.8647 19.462 24.3927 19.462 29.9697V49.5327C19.462 55.1097 23.99 59.6376 29.567 59.6376H49.13C54.707 59.6376 59.235 55.1097 59.235 49.5327V29.9697C59.236 24.3927 54.707 19.8647 49.13 19.8647ZM39.549 51.8206C32.895 51.8206 27.48 46.4056 27.48 39.7516C27.48 33.0976 32.895 27.6826 39.549 27.6826C46.203 27.6826 51.618 33.0976 51.618 39.7516C51.619 46.4056 46.204 51.8206 39.549 51.8206ZM52.324 30.8287C50.732 30.8287 49.445 29.5416 49.445 27.9496C49.445 26.3676 50.732 25.0797 52.324 25.0797C53.906 25.0797 55.193 26.3666 55.193 27.9496C55.194 29.5416 53.906 30.8287 52.324 30.8287ZM49.13 19.8647H29.567C23.99 19.8647 19.462 24.3927 19.462 29.9697V49.5327C19.462 55.1097 23.99 59.6376 29.567 59.6376H49.13C54.707 59.6376 59.235 55.1097 59.235 49.5327V29.9697C59.236 24.3927 54.707 19.8647 49.13 19.8647ZM39.549 51.8206C32.895 51.8206 27.48 46.4056 27.48 39.7516C27.48 33.0976 32.895 27.6826 39.549 27.6826C46.203 27.6826 51.618 33.0976 51.618 39.7516C51.619 46.4056 46.204 51.8206 39.549 51.8206ZM52.324 30.8287C50.732 30.8287 49.445 29.5416 49.445 27.9496C49.445 26.3676 50.732 25.0797 52.324 25.0797C53.906 25.0797 55.193 26.3666 55.193 27.9496C55.194 29.5416 53.906 30.8287 52.324 30.8287ZM49.13 19.8647H29.567C23.99 19.8647 19.462 24.3927 19.462 29.9697V49.5327C19.462 55.1097 23.99 59.6376 29.567 59.6376H49.13C54.707 59.6376 59.235 55.1097 59.235 49.5327V29.9697C59.236 24.3927 54.707 19.8647 49.13 19.8647ZM39.549 51.8206C32.895 51.8206 27.48 46.4056 27.48 39.7516C27.48 33.0976 32.895 27.6826 39.549 27.6826C46.203 27.6826 51.618 33.0976 51.618 39.7516C51.619 46.4056 46.204 51.8206 39.549 51.8206ZM52.324 30.8287C50.732 30.8287 49.445 29.5416 49.445 27.9496C49.445 26.3676 50.732 25.0797 52.324 25.0797C53.906 25.0797 55.193 26.3666 55.193 27.9496C55.194 29.5416 53.906 30.8287 52.324 30.8287ZM49.13 19.8647H29.567C23.99 19.8647 19.462 24.3927 19.462 29.9697V49.5327C19.462 55.1097 23.99 59.6376 29.567 59.6376H49.13C54.707 59.6376 59.235 55.1097 59.235 49.5327V29.9697C59.236 24.3927 54.707 19.8647 49.13 19.8647ZM39.549 51.8206C32.895 51.8206 27.48 46.4056 27.48 39.7516C27.48 33.0976 32.895 27.6826 39.549 27.6826C46.203 27.6826 51.618 33.0976 51.618 39.7516C51.619 46.4056 46.204 51.8206 39.549 51.8206ZM52.324 30.8287C50.732 30.8287 49.445 29.5416 49.445 27.9496C49.445 26.3676 50.732 25.0797 52.324 25.0797C53.906 25.0797 55.193 26.3666 55.193 27.9496C55.194 29.5416 53.906 30.8287 52.324 30.8287ZM39.349 0.139648C17.632 0.139648 0.03302 17.7387 0.03302 39.4557C0.03302 61.1727 17.632 78.7717 39.349 78.7717C61.066 78.7717 78.665 61.1727 78.665 39.4557C78.665 17.7387 61.066 0.139648 39.349 0.139648ZM63.85 49.5327C63.85 57.6457 57.243 64.2527 49.13 64.2527H29.567C21.454 64.2527 14.847 57.6457 14.847 49.5327V29.9697C14.847 21.8567 21.454 15.2496 29.567 15.2496H49.13C57.243 15.2496 63.85 21.8567 63.85 29.9697V49.5327ZM49.13 19.8647H29.567C23.99 19.8647 19.462 24.3927 19.462 29.9697V49.5327C19.462 55.1097 23.99 59.6376 29.567 59.6376H49.13C54.707 59.6376 59.235 55.1097 59.235 49.5327V29.9697C59.236 24.3927 54.707 19.8647 49.13 19.8647ZM39.549 51.8206C32.895 51.8206 27.48 46.4056 27.48 39.7516C27.48 33.0976 32.895 27.6826 39.549 27.6826C46.203 27.6826 51.618 33.0976 51.618 39.7516C51.619 46.4056 46.204 51.8206 39.549 51.8206ZM52.324 30.8287C50.732 30.8287 49.445 29.5416 49.445 27.9496C49.445 26.3676 50.732 25.0797 52.324 25.0797C53.906 25.0797 55.193 26.3666 55.193 27.9496C55.194 29.5416 53.906 30.8287 52.324 30.8287ZM49.13 19.8647H29.567C23.99 19.8647 19.462 24.3927 19.462 29.9697V49.5327C19.462 55.1097 23.99 59.6376 29.567 59.6376H49.13C54.707 59.6376 59.235 55.1097 59.235 49.5327V29.9697C59.236 24.3927 54.707 19.8647 49.13 19.8647ZM39.549 51.8206C32.895 51.8206 27.48 46.4056 27.48 39.7516C27.48 33.0976 32.895 27.6826 39.549 27.6826C46.203 27.6826 51.618 33.0976 51.618 39.7516C51.619 46.4056 46.204 51.8206 39.549 51.8206ZM52.324 30.8287C50.732 30.8287 49.445 29.5416 49.445 27.9496C49.445 26.3676 50.732 25.0797 52.324 25.0797C53.906 25.0797 55.193 26.3666 55.193 27.9496C55.194 29.5416 53.906 30.8287 52.324 30.8287ZM49.13 19.8647H29.567C23.99 19.8647 19.462 24.3927 19.462 29.9697V49.5327C19.462 55.1097 23.99 59.6376 29.567 59.6376H49.13C54.707 59.6376 59.235 55.1097 59.235 49.5327V29.9697C59.236 24.3927 54.707 19.8647 49.13 19.8647ZM39.549 51.8206C32.895 51.8206 27.48 46.4056 27.48 39.7516C27.48 33.0976 32.895 27.6826 39.549 27.6826C46.203 27.6826 51.618 33.0976 51.618 39.7516C51.619 46.4056 46.204 51.8206 39.549 51.8206ZM52.324 30.8287C50.732 30.8287 49.445 29.5416 49.445 27.9496C49.445 26.3676 50.732 25.0797 52.324 25.0797C53.906 25.0797 55.193 26.3666 55.193 27.9496C55.194 29.5416 53.906 30.8287 52.324 30.8287Z" fill="black"/>
</svg>
